<svg xmlns="http://www.w3.org/2000/svg" xmlns:xlink="http://www.w3.org/1999/xlink" width="462.782" height="430.503" viewBox="0 0 462.782 430.503"><defs><clipPath id="a"><path d="M435.923,518.377c-1.9-14.755-7.576-28.63-18.278-38.852-14.12-13.484-35.34-21.195-42.8-40.639-7.279-18.969-.892-38.618-1.549-58.11-.907-26.761-12.689-49.434-28.514-70.35-35.221-46.543-100.332-63.5-156.228-58.181-35.474,3.374-73.419,17.613-99.184,42.824C59.546,324.249,66,361.328,73.216,398.307c6.317,32.39,4.028,62.956-10.415,92.838-7.509,15.543-17.4,26.322-13.956,44.592,7.922,41.951,45.187,63.929,84.544,70.751,45.822,7.941,95.472-9.3,141.231,5.388,57.668,18.5,122.98,26.672,152.843-38.967C434.671,557.065,438.32,537.022,435.923,518.377Z" transform="translate(-48.138 -251.305)" fill="none"/></clipPath><linearGradient id="b" x1="1.406" y1="3.955" x2="1.406" y2="2.663" gradientUnits="objectBoundingBox"><stop offset="0" stop-color="gray" stop-opacity="0.251"/><stop offset="0.54" stop-color="gray" stop-opacity="0.122"/><stop offset="1" stop-color="gray" stop-opacity="0.102"/></linearGradient><linearGradient id="c" x1="-0.671" y1="0.201" x2="-0.671" y2="-1.061" xlink:href="#b"/><linearGradient id="d" x1="0.5" y1="1" x2="0.5" y2="0" xlink:href="#b"/><linearGradient id="e" x1="0.5" y1="1" x2="0.5" y2="0" xlink:href="#b"/><linearGradient id="f" x1="0.5" y1="1" x2="0.5" y2="0" xlink:href="#b"/><linearGradient id="g" x1="0" y1="0.5" x2="1" y2="0.5" xlink:href="#b"/><linearGradient id="i" x1="0" y1="0.5" x2="1" y2="0.5" xlink:href="#b"/><linearGradient id="k" x1="0" y1="0.5" x2="1" y2="0.5" xlink:href="#b"/><linearGradient id="l" x1="-11.741" y1="5.084" x2="-11.741" y2="4.933" gradientUnits="objectBoundingBox"><stop offset="0" stop-color="gray" stop-opacity="0.251"/><stop offset="0.535" stop-color="gray" stop-opacity="0.122"/><stop offset="1" stop-color="gray" stop-opacity="0.102"/></linearGradient><linearGradient id="n" x1="-4.017" y1="1" x2="-4.017" y2="0" xlink:href="#b"/><linearGradient id="o" x1="0.5" y1="1" x2="0.5" y2="0" xlink:href="#b"/><linearGradient id="p" x1="0.5" y1="1" x2="0.5" y2="0" xlink:href="#b"/></defs><g transform="translate(3294.832 3062.14)"><g transform="translate(-3332.392 -3304.369)"><path d="M151.409,672.679c64.858-2.226,94.2-66.865,133.034-107.842,21.507-22.7,47.149-42.188,76.685-52.44,29.774-10.33-42.675-13.011-23.77-42.183,31.127-48.022,92.67-113.336,45.429-129.815-31.944-11.144-60.734-2.839-90.348-23.758-16.2-11.444-30.049-25.865-45.473-38.339C192.149,233.967,89.929,221.341,51.4,295.22c-16.866,32.338-14.982,72.349-.561,105.846,5.927,13.763,13.837,26.7,18.408,40.981,23.365,73-55.6,161.6,29.4,215.925A91.724,91.724,0,0,0,151.409,672.679Z" transform="translate(4.94 0)" fill="#559aff" opacity="0.35"/><path d="M439.9,520.033c-2.6-15.008-9.025-28.953-20.429-38.934-15.045-13.165-37.094-20.106-45.588-39.662-8.29-19.084-2.627-39.468-4.173-59.377-2.118-27.337-15.175-50-32.3-70.7-38.1-46.042-105.163-73.482-162.1-65.557C139.174,250.84,107.222,262.065,81.989,289,52.779,320.175,54.5,375.844,63.529,413.351c7.9,32.851,15.272,62.632,1.828,93.844-6.993,16.234-17.561,29.139-14.811,47.978,6.562,44.931,40.334,74.508,80.9,79.732,47.231,6.086,104.65-15.766,152.115-2.779,59.816,16.364,122.162-1.078,151.059-58.4C442.645,557.807,443.18,539,439.9,520.033Z" transform="translate(34.056 5.529)" fill="none" stroke="#d1dced" stroke-linecap="round" stroke-miterlimit="10" stroke-width="0.5" stroke-dasharray="3 2"/><g transform="translate(37.56 275.446)"><path d="M435.923,518.377c-1.9-14.755-7.576-28.63-18.278-38.852-14.12-13.484-35.34-21.195-42.8-40.639-7.279-18.969-.892-38.618-1.549-58.11-.907-26.761-12.689-49.434-28.514-70.35-35.221-46.543-100.332-63.5-156.228-58.181-35.474,3.374-73.419,17.613-99.184,42.824C59.546,324.249,66,361.328,73.216,398.307c6.317,32.39,4.028,62.956-10.415,92.838-7.509,15.543-17.4,26.322-13.956,44.592,7.922,41.951,45.187,63.929,84.544,70.751,45.822,7.941,95.472-9.3,141.231,5.388,57.668,18.5,122.98,26.672,152.843-38.967C434.671,557.065,438.32,537.022,435.923,518.377Z" transform="translate(-8.832 -251.305)" fill="#fff"/><g transform="translate(80.934 232.036)"><path d="M59.341,348.082q2.759,1.594,5.622,3.032H384.256a95.137,95.137,0,0,0,7.041-10.3H59.341Z" transform="translate(-59.341 -240.259)" fill="#d9ebff"/><path d="M228.865,408.845H104.336c-2.969,0-4.775-2.408-4.035-5.377l21.027-84.34a7.346,7.346,0,0,1,6.718-5.377H252.575c2.969,0,4.775,2.408,4.035,5.377l-21.027,84.34A7.346,7.346,0,0,1,228.865,408.845Z" transform="translate(51.446 -313.752)" fill="#d9ebff"/><path d="M236.951,347.47H101.969c-4.567,0-7.346-3.7-6.205-8.268l.208-.84H247.488l-.208.84A11.3,11.3,0,0,1,236.951,347.47Z" transform="translate(38.879 -246.915)" fill="#c4dff7"/><path d="M226.948,397.063H101.615l20.315-81.479H247.263Z" transform="translate(55.463 -308.777)" fill="#c4dff7"/><g transform="translate(304.446 58.076)"><path d="M163.106,367.394h-17.37l-4.46-36.368h26.291Z" transform="translate(-141.275 -324.915)" fill="#d9ebff"/><path d="M166.695,331.779H151l-2.048-2.4h-4.641l-.92,2.4H142.15l-.874,3.714h26.291Z" transform="translate(-141.275 -329.382)" fill="#c4dff7"/></g></g><g transform="translate(0 98.562)"><path d="M82.2,457.361c4.529-9.23,8.788-19.534,6.112-29.915-2.241-8.71-8.78-15.194-15.026-21.44-5.629-5.629-15.565-13.466-14.079-22.536.788-4.823,5.209-7.94,6.15-12.916,2.854-15.112-10.137-26.021-14.239-39.32-3.463-11.229.082-23.3,5.633-33.222,3.875-6.922,9.163-16.52,17.014-19.5,9.784-3.712,15.829,8.695,18.556,15.933s3.946,14.93,4.619,22.6c.591,6.774-1.029,16.141,2.5,22.135,2.664,4.511,8.3,6.477,11.359,10.731a17.411,17.411,0,0,1,2.82,9.5c.238,5.748-1.657,11.136-3.355,16.539-4.57,14.558,3.147,28.31,2.768,42.809-.137,5.206-1.494,10.289-2.846,15.316q-3.288,12.262-6.584,24.52" transform="translate(-4.47 -277.83)" fill="#d9ebff"/><path d="M91.968,455.915c7.747-8.379,19.545-11.288,30.268-15.194s22.042-10.475,24.773-21.555c1.791-7.272-.576-15,.717-22.38,4.266-24.372,37.317-27.742,48.52-47.324,10.527-18.4,7.565-64.29-18.006-70.116-13.057-2.976-24.58,9.72-29.41,20.47-2.85,6.339-4.143,13.47-8.249,19.08-4.373,5.975-11.366,9.427-18.307,12.013-8.576,3.2-18.073,6.863-25.059,13.358-9.1,8.457-9.423,18.66-9.245,30.421.16,10.854-5.912,13.793-11.634,22.068a23.151,23.151,0,0,0-1.891,22.51c3.842,8.212,12.7,14.692,12.247,23.747-.23,4.608-3.021,8.784-6.573,11.727s-7.833,4.842-12.054,6.7" transform="translate(45.285 -274.909)" fill="#d9ebff"/><path d="M118.976,405.552a34.218,34.218,0,0,1-3.162-20.44c.565-3.6,1.587-7.732-.706-10.568-1.182-1.457-3.013-2.218-4.37-3.511-2.07-1.98-2.8-5-2.872-7.866s.409-5.726.312-8.591c-.074-2.293-.706-4.849-2.679-6.02-1.795-1.066-4.1-.628-6.086-1.278-2.519-.821-4.176-3.3-4.89-5.856s-.676-5.243-.933-7.877c-.955-9.728-6.889-21.232-15.632-26.088-6.956-3.864-15.4-5.273-23.056-3.088s-14.291,8.167-16.546,15.8.353,16.654,6.778,21.351a32.807,32.807,0,0,0,8.227,3.994c2.794,1.029,5.748,1.378,8.275,3.125a7.082,7.082,0,0,1,3.277,5.325c.059,1.843-.847,3.567-1.226,5.369-1.055,5.013,2.14,10.1,6.317,13.068s9.222,4.37,13.993,6.231c2.2.855,4.548,2.006,5.473,4.176a13.145,13.145,0,0,1,.583,4.411A11.139,11.139,0,0,0,93,394.493c2.638,2.6,6.8,3.207,9.367,5.875a13.988,13.988,0,0,1,2.9,5.522,62.2,62.2,0,0,1,3.021,16.2" transform="translate(-37.56 -208.56)" fill="#d9ebff"/><path d="M56.157,282.662c-2.59,31.721,15.576,61.139,21.759,92.358a125.885,125.885,0,0,1-17.4,91.489" transform="translate(12.265 -264.71)" fill="none" stroke="#c8e2fc" stroke-miterlimit="10" stroke-width="1"/><path d="M67.686,439.267C87.357,424.129,106.8,406,113,381.959c3.188-12.347,2.724-25.795,8.561-37.135,5.8-11.277,16.884-18.646,26.549-26.861S166.952,298.8,166.4,286.127" transform="translate(44.255 -255.299)" fill="none" stroke="#c8e2fc" stroke-miterlimit="10" stroke-width="1"/><path d="M41.243,307.913a95.163,95.163,0,0,1,42.716,36.031,95.168,95.168,0,0,1,14.885,53.871" transform="translate(-27.557 -196.135)" fill="none" stroke="#c8e2fc" stroke-miterlimit="10" stroke-width="1"/><path d="M49.154,320.117a25.9,25.9,0,0,1,21.41,7.049" transform="translate(-6.073 -163.635)" fill="none" stroke="#c8e2fc" stroke-miterlimit="10" stroke-width="1"/><path d="M45.506,316.116a26.906,26.906,0,0,1,24.308,5.124" transform="translate(-15.98 -176.574)" fill="none" stroke="#c8e2fc" stroke-miterlimit="10" stroke-width="1"/><path d="M57.049,300.6a30.115,30.115,0,0,1,15.413,15.558" transform="translate(15.368 -215.995)" fill="none" stroke="#c8e2fc" stroke-miterlimit="10" stroke-width="1"/><path d="M57.486,309.8A38.645,38.645,0,0,1,74.623,339.48" transform="translate(16.555 -191.013)" fill="none" stroke="#c8e2fc" stroke-miterlimit="10" stroke-width="1"/><path d="M60.032,290.556a44.548,44.548,0,0,0-.918,21.748" transform="translate(18.453 -243.272)" fill="none" stroke="#c8e2fc" stroke-miterlimit="10" stroke-width="1"/><path d="M53.591,289.869c4.069,1.122,7.327,4.433,9.795,7.71a72.943,72.943,0,0,1,5.473,8.9" transform="translate(5.977 -245.137)" fill="none" stroke="#c8e2fc" stroke-miterlimit="10" stroke-width="1"/><path d="M66.818,297.865a46.255,46.255,0,0,0-5.406,26.3" transform="translate(26.678 -223.422)" fill="none" stroke="#c8e2fc" stroke-miterlimit="10" stroke-width="1"/><path d="M79.393,301.881a34.478,34.478,0,0,1,4.619,22.547" transform="translate(76.048 -212.516)" fill="none" stroke="#c8e2fc" stroke-miterlimit="10" stroke-width="1"/><path d="M109.949,302.481A52.674,52.674,0,0,0,80.61,323.508" transform="translate(79.354 -210.887)" fill="none" stroke="#c8e2fc" stroke-miterlimit="10" stroke-width="1"/><path d="M117.859,315.592A81.575,81.575,0,0,0,74.3,337.786" transform="translate(62.215 -175.28)" fill="none" stroke="#c8e2fc" stroke-miterlimit="10" stroke-width="1"/><path d="M131.493,294.924c-8.119-.03-16.29.282-24.234,1.973s-15.692,4.827-21.979,9.969" transform="translate(92.036 -231.413)" fill="none" stroke="#c8e2fc" stroke-miterlimit="10" stroke-width="1"/><path d="M90.482,293.542c-.435,7.677-3.478,14.937-6.566,21.979" transform="translate(88.332 -235.162)" fill="none" stroke="#c8e2fc" stroke-miterlimit="10" stroke-width="1"/><path d="M47.329,308.518a26.349,26.349,0,0,0,2.341,13.116" transform="translate(-11.255 -194.492)" fill="none" stroke="#c8e2fc" stroke-miterlimit="10" stroke-width="1"/><path d="M54.684,316.808a38.073,38.073,0,0,0,.933,15.227" transform="translate(7.924 -171.978)" fill="none" stroke="#c8e2fc" stroke-miterlimit="10" stroke-width="1"/><path d="M50.566,310.638a26.141,26.141,0,0,0,5.38,20.507" transform="translate(-3.178 -188.734)" fill="none" stroke="#c8e2fc" stroke-miterlimit="10" stroke-width="1"/></g><g transform="translate(286.269 269.378)"><path d="M178.2,365.145H114.6L124.91,323.8h63.6Z" transform="translate(-114.602 -323.802)" fill="#d9ebff" opacity="0.45"/><path d="M175.938,328.923l1.033-4.142H118.549l-1.032,4.142Z" transform="translate(-106.685 -321.142)" fill="#d9ebff" opacity="0.45"/><path d="M154.258,328.746l.516-2.071h-29.21l-.516,2.071Z" transform="translate(-86.235 -315.996)" fill="#d9ebff" opacity="0.45"/><path d="M154,329.812l.516-2.071h-29.21l-.516,2.071Z" transform="translate(-86.931 -313.103)" fill="#d9ebff" opacity="0.45"/><path d="M153.746,330.877l.516-2.071h-29.21l-.517,2.071Z" transform="translate(-87.626 -310.21)" fill="#d9ebff" opacity="0.45"/><path d="M153.49,331.942l.516-2.07H124.8l-.517,2.07Z" transform="translate(-88.321 -307.317)" fill="#d9ebff" opacity="0.45"/><path d="M153.234,333.008l.516-2.071H124.54l-.516,2.071Z" transform="translate(-89.016 -304.424)" fill="#d9ebff" opacity="0.45"/><path d="M152.978,334.073l.516-2.071h-29.21l-.516,2.071Z" transform="translate(-89.712 -301.531)" fill="#d9ebff" opacity="0.45"/><path d="M152.722,335.138l.516-2.071h-29.21l-.517,2.071Z" transform="translate(-90.407 -298.638)" fill="#d9ebff" opacity="0.45"/></g><g transform="translate(262.497 252.717)"><path d="M171.8,360.661H108.2l10.308-41.343h63.6Z" transform="translate(-108.205 -319.318)" fill="#d9ebff"/><path d="M169.54,324.439l1.033-4.142H112.152l-1.033,4.142Z" transform="translate(-100.288 -316.658)" fill="#d9ebff" opacity="0.45"/><path d="M147.86,324.262l.516-2.071h-29.21l-.516,2.071Z" transform="translate(-79.838 -311.513)" fill="#d9ebff" opacity="0.45"/><path d="M147.6,325.328l.516-2.071H118.91l-.516,2.071Z" transform="translate(-80.533 -308.62)" fill="#d9ebff" opacity="0.45"/><path d="M147.348,326.393l.516-2.071h-29.21l-.516,2.071Z" transform="translate(-81.228 -305.727)" fill="#d9ebff" opacity="0.45"/><path d="M147.092,327.458l.516-2.071H118.4l-.516,2.071Z" transform="translate(-81.923 -302.833)" fill="#d9ebff" opacity="0.45"/><path d="M146.836,328.524l.517-2.071H118.142l-.516,2.071Z" transform="translate(-82.619 -299.94)" fill="#d9ebff" opacity="0.45"/><path d="M146.58,329.589l.516-2.07h-29.21l-.516,2.07Z" transform="translate(-83.314 -297.047)" fill="#d9ebff" opacity="0.45"/><path d="M146.324,330.654l.516-2.071H117.63l-.516,2.071Z" transform="translate(-84.009 -294.154)" fill="#d9ebff" opacity="0.45"/></g><path d="M131.813,344.7c4.4-1.75,7.755-5.488,12.08-7.42,4.842-2.163,10.512-1.843,15.535-.152s9.508,4.66,13.823,7.74a7.14,7.14,0,0,1,2.545,2.6,2.5,2.5,0,0,1-.821,3.229,7.062,7.062,0,0,1-2.486.293c-3.348.387-4.555,4.749-7.417,6.536-1.806,1.13-4.08,1.1-6.209,1.037-9.419-.286-18.872-.572-28.158-2.159a12.963,12.963,0,0,1-5.183-1.717" transform="translate(201.322 -21.944)" fill="#ffc1c7"/><path d="M81.125,300.5s-1.839,18.928-2.891,19.5-6.109,1.4-6.109,1.4,15.1,11.816,23.628,10.735,25.917-6.681,25.917-6.681-6.268-3.541-7.621-4.032-3.021-21.893-3.021-21.893" transform="translate(56.313 -120.358)" fill="#ffc1c7"/><path d="M75.224,326.949c.256,12.819,7.376,21.3,16.424,21.741s24.13-1.04,26.679-14.447c3.656-19.251,1.646-40.085-9.312-46.874C99.469,281.457,74.2,275.928,75.224,326.949Z" transform="translate(64.645 -163.461)" fill="#ffc1c7"/><path d="M139.473,279.326a1.326,1.326,0,0,0-2.159.457c-.673,1.787-1.59,4.091-3.783,5.436.929-1.694,1.784-4.853-.219-5.354-1.758-.438-3.768,2.315-6.157,2.337a139.549,139.549,0,0,1-20.96-1.98c-16.825-4.191-34.616,9-38.495,27.307a42.662,42.662,0,0,0,4.414,29.28c3.073,5.41,7.476,10.255,8.368,16.6.23,1.639.275,3.474,1.3,4.66a5.141,5.141,0,0,0,2.813,1.393,77.822,77.822,0,0,0,27.786,1.665,7.609,7.609,0,0,0,4.552-1.668c1.579-1.5,2-4.054,2.166-6.4.442-6.161,2.958-7.454,1.382-13.392-6.7-.033-9.91-11.214-9.208-15.732s6.35-7.316,9.148-3.968c1.906,2.281,1.94,6.313,4.351,7.859,2.241-1.8,2.326-5.551,1.72-8.613s-1.683-6.213-.97-9.234c1.579-6.688,9.813-7.164,14.454-11.63C144.839,293.668,144.326,283.851,139.473,279.326Z" transform="translate(41.878 -176.225)" fill="#363636"/><path d="M312.281,427.024c-4.329,2.426-32.929-13.886-69.562-20.645-9.724-18.055-33.553-83.756-41.252-88.234-12.2-7.1-46.016-11.82-64.115-13.187-15.718-1.185-60,2.111-68.113,10.148-13.562,13.436-1.327,64.9,1,94.933C67.3,427.046,60.952,428.388,59.1,445.558c13.343,7.911,28.741,13.124,44.511,15.859,32.178,5.577,66.24-1.252,99.518-.736-4.344-16.386-4.927-39.063-6.87-57.52,9.5,20.559,28.5,36.871,34.586,36.871,11.4,0,81.557,6.978,82.642,3.4S318.415,429.6,312.281,427.024Z" transform="translate(20.944 -106.234)" fill="#464353"/><path d="M169.934,361.742c-18.776-29.031-54.606-53.592-88.631-34.1-17.724,10.151-26.088,30.67-29.317,51.117,16.071,21.927,42.95,34.5,70.952,39.357,23.216,4.024,47.416,1.583,71.595.108C188.7,398.547,181.364,379.414,169.934,361.742Z" transform="translate(1.618 -62.938)" fill="#559aff"/><path d="M121.98,307.2A26.478,26.478,0,0,0,128,303.123c2.111-2.088,3.545-4.9,6.06-6.48a15.9,15.9,0,0,1,4.47-1.679" transform="translate(191.703 -132.742)" fill="none" stroke="#c8e2fc" stroke-miterlimit="10" stroke-width="1"/><path d="M124.568,293.75a91.5,91.5,0,0,1,17.23.788c3.08.435,6.51,1.271,8.1,3.946" transform="translate(198.732 -136.333)" fill="none" stroke="#c8e2fc" stroke-miterlimit="10" stroke-width="1"/><g transform="translate(39.305)"><g clip-path="url(#a)"><g transform="translate(251.256 69.563)"><path d="M179.208,387.134c.438-8.249.078-16.676-2.582-24.5s-7.836-15.038-15.182-18.82c-3.4-1.754-7.2-2.757-10.367-4.923s-5.637-6.068-4.522-9.731c.583-1.917,2.07-3.511,2.378-5.488.539-3.441-2.616-6.313-5.7-7.926-4.169-2.181-8.817-3.43-12.756-6-10.538-6.874-11.615-20.243-3.5-29.221a31.905,31.905,0,0,1,14.053-9.456c8.587-2.608,18.292-.152,25.3,5.455s11.43,14.057,13.143,22.863c1.312,6.759,1.133,13.707,1.732,20.567,2.114,24.219,15.339,30.807,5.432,63.714" transform="translate(-99.819 -270.026)" fill="#d9ebff"/><path d="M207.705,330.78c-2.337-13.392-17.263-36.946-31.506-39.331-5.347-.9-11.028,1.278-15.665,2.987-4.492,1.661-9.535-.13-14.042-.825a33.521,33.521,0,0,0-23.918,5.522c-3.188,2.215-6.135,5.273-6.714,9.111-.721,4.752,2.452,9.36,6.424,12.065a22.012,22.012,0,0,0,17.037,3.233c5.837-1.323,10.831-4.968,16.238-7.536s12.084-3.983,17.189-.862c3.913,2.389,6.1,6.986,10.062,9.293,4.281,2.493,9.75,1.832,14.283,3.831,6.358,2.8,9.349,9.977,11.723,16.505" transform="translate(-115.757 -212.416)" fill="#d9ebff"/><path d="M118.677,299.035c4.184,1.992,9.111,1.709,13.618.617s8.8-2.947,13.306-4.017c16.141-3.823,34.326,3.727,43.01,17.858" transform="translate(-107.828 -203.163)" fill="none" stroke="#c8e2fc" stroke-miterlimit="10" stroke-width="1"/><path d="M128.424,276.747c8.773,6.521,14.086,16.568,19.114,26.274,4.351,8.4,8.732,16.881,11.244,26,2.961,10.764,3.222,22.094,2.694,33.248" transform="translate(-81.358 -251.775)" fill="none" stroke="#c8e2fc" stroke-miterlimit="10" stroke-width="1"/><path d="M131.2,286.476q4.5,1.867,9,3.738a32.655,32.655,0,0,1,3.511,1.62,16.5,16.5,0,0,1,6.547,6.759" transform="translate(-73.814 -225.353)" fill="none" stroke="#c8e2fc" stroke-miterlimit="10" stroke-width="1"/><path d="M128.426,280.783c4.258,2.6,9.836,2.7,13.674,5.886a20.966,20.966,0,0,1,2.816,3.062q2.146,2.659,4.288,5.321" transform="translate(-81.353 -240.814)" fill="none" stroke="#c8e2fc" stroke-miterlimit="10" stroke-width="1"/></g></g></g></g><g transform="translate(129.168 334.283)"><circle cx="5.337" cy="5.337" r="5.337" transform="translate(34.086)" fill="none" stroke="#f36986" stroke-linecap="round" stroke-linejoin="round" stroke-width="0.5"/><circle cx="5.337" cy="5.337" r="5.337" transform="translate(310.58 192.323)" fill="none" stroke="#1654d3" stroke-linecap="round" stroke-linejoin="round" stroke-width="0.5"/><g transform="translate(183.272 72.281)"><line y2="10.398" transform="translate(5.199)" stroke-width="0.5" stroke="#f36986" stroke-linecap="round" stroke-linejoin="round" fill="none"/><line x1="10.398" transform="translate(0 5.199)" stroke-width="0.5" stroke="#f36986" stroke-linecap="round" stroke-linejoin="round" fill="none"/></g><g transform="translate(-7 115.164)"><line y2="10.398" transform="translate(5.199)" stroke-width="0.5" stroke="#1654d3" stroke-linecap="round" stroke-linejoin="round" fill="none"/><line x1="10.398" transform="translate(0 5.199)" stroke-width="0.5" stroke="#1654d3" stroke-linecap="round" stroke-linejoin="round" fill="none"/></g></g></g><g transform="translate(-3194.215 -3005.606)"><g transform="translate(258.036 9.328)" opacity="0.5"><g opacity="0.5"><rect width="28.098" height="33.524" transform="matrix(1, -0.009, 0.009, 1, 0, 0.255)" fill="url(#b)"/></g><rect width="27.158" height="32.161" transform="matrix(1, -0.009, 0.009, 1, 0.518, 0.917)" fill="#e6e6e6"/><circle cx="5.009" cy="5.009" r="5.009" transform="matrix(1, -0.009, 0.009, 1, 9.255, 11)" fill="#fff"/><circle cx="4.551" cy="4.551" r="4.551" transform="matrix(1, -0.009, 0.009, 1, 9.732, 13.119)" fill="#fff"/><rect width="2.124" height="3.641" transform="matrix(1, -0.009, 0.009, 1, 13.289, 20.369)" fill="#fff"/><path d="M5.213,0h0a5.233,5.233,0,0,1,5.233,5.208v4.78H0V5.208A5.233,5.233,0,0,1,5.213,0Z" transform="translate(9.465 22.668) rotate(-0.573)" fill="#fff"/><circle cx="1.82" cy="1.82" r="1.82" transform="matrix(1, -0.009, 0.009, 1, 12.427, 9.151)" fill="#fff"/><path d="M718.346,105.449a5.441,5.441,0,0,1,2.85.468,6.332,6.332,0,0,1,2.2,1.194c1.164,1.094,1.413,2.83,1.452,4.427a11.036,11.036,0,0,0,.662,4.7,4.656,4.656,0,0,0,4.3,2.487,3.715,3.715,0,0,1-3.526.109,5.268,5.268,0,0,1-2.388-2.154,13.044,13.044,0,0,1-.851-2.029A26.361,26.361,0,0,0,720,108.782a3.761,3.761,0,0,0-.676-.8,2.566,2.566,0,0,0-1.3-.5c-.388-.055-1.055.129-1.3-.254C716.212,106.429,717.774,105.559,718.346,105.449Z" transform="translate(-703.492 -97.418)" fill="#fff"/></g><g transform="translate(138.649 8.047)" opacity="0.5"><g opacity="0.5"><rect width="28.928" height="33.649" transform="matrix(1, -0.009, 0.009, 1, 0, 0.263)" fill="url(#c)"/></g><rect width="27.854" height="32.987" transform="matrix(1, -0.009, 0.009, 1, 0.588, 0.919)" fill="#e6e6e6"/><circle cx="5.133" cy="5.133" r="5.133" transform="matrix(1, -0.009, 0.009, 1, 9.242, 11.271)" fill="#fff"/><circle cx="4.666" cy="4.666" r="4.666" transform="matrix(1, -0.009, 0.009, 1, 9.73, 13.445)" fill="#fff"/><rect width="2.179" height="3.735" transform="matrix(1, -0.009, 0.009, 1, 13.374, 20.878)" fill="#fff"/><path d="M5.367,0h0a5.367,5.367,0,0,1,5.367,5.367v4.9H0V5.372A5.367,5.367,0,0,1,5.367,0Z" transform="matrix(1, -0.009, 0.009, 1, 9.354, 23.555)" fill="#fff"/><path d="M471.94,108.214s3.094-1.9,3.7-3.924a18.742,18.742,0,0,0,3.626,4.944Z" transform="translate(-461.128 -95.57)" fill="#fff"/></g><g transform="translate(114.903 25.193)" opacity="0.5"><rect width="35.583" height="40.483" fill="url(#d)"/></g><rect width="33.703" height="39.916" transform="translate(116.032 25.76)" fill="#e6e6e6"/><circle cx="6.212" cy="6.212" r="6.212" transform="translate(126.293 38.374)" fill="#fff"/><circle cx="5.65" cy="5.65" r="5.65" transform="translate(126.855 41.01)" fill="#fff"/><rect width="2.636" height="4.516" transform="translate(131.187 50.048)" fill="#fff"/><path d="M260.421,107.05h0a6.5,6.5,0,0,1,6.466,6.5v5.914H253.91v-5.914a6.5,6.5,0,0,1,6.511-6.5Z" transform="translate(-127.617 -53.804)" fill="#fff"/><path d="M427.009,145.949q-.6.313-1.174.671a2.039,2.039,0,0,0-.831.776,1.491,1.491,0,0,1-.194.378c-.179.194-.5.189-.731.249-.831.194-1.258,1.109-1.492,1.935a13.775,13.775,0,0,0-.323,1.492,1.86,1.86,0,0,0,.03.995c.055.134.134.259.179.393.154.5-.279.995-.388,1.492a2.566,2.566,0,0,0,.234,1.383,1.655,1.655,0,0,0,.184.393,2.656,2.656,0,0,0,.229.259,2.2,2.2,0,0,1,.423.676,14.554,14.554,0,0,1,2.626.746c1.383.537,2.751,1.3,4.233,1.234a3.9,3.9,0,0,0,1.179-.244c.741-.279,1.388-.776,2.139-.995a18.651,18.651,0,0,1,2.114-.358c.338-.065.751-.323.627-.642a1,1,0,0,0,.995-.2,2.705,2.705,0,0,0,.622-.885,8.186,8.186,0,0,0,.7-1.751,4.974,4.974,0,0,0-.448-3.482,1.562,1.562,0,0,0-.433-.547c-.134-.1-.3-.159-.428-.264a1.576,1.576,0,0,1-.328-.423q-.706-1.159-1.492-2.263a4.616,4.616,0,0,0-1.95-1.8c-1.243-.5-2.149.284-3.328.328a6.752,6.752,0,0,0-1.527-.08A5.561,5.561,0,0,0,427.009,145.949Z" transform="translate(-297.413 -107.988)" fill="#fff"/><path d="M749.85,149.1s3.606-2.169,4.307-4.477a21.439,21.439,0,0,0,4.223,5.66Z" transform="translate(-462.158 -107.793)" fill="#fff"/><path d="M178.246,387.91s34.837,21.3,83.581,10.855,111.143-46.319,147.626,28.626" transform="translate(-192.625 -213.029)" fill="none" stroke="rgba(96,218,168,0.5)" stroke-miterlimit="10" stroke-width="2" stroke-dasharray="12"/><path d="M615.238,312.38s-38.072,17.116-27.325,42.569,0,53.451,0,53.451" transform="translate(-382.44 -208.003)" fill="none" stroke="rgba(96,218,168,0.5)" stroke-miterlimit="10" stroke-width="2" stroke-dasharray="12"/><path d="M431.928,220.336s-10.51,21.487,0,39.4a37.8,37.8,0,0,0,22.716,17.13c22.537,6.178,52.7-1.061,48.174,72.752" transform="translate(-299.89 -143.811)" fill="none" stroke="rgba(96,218,168,0.5)" stroke-miterlimit="10" stroke-width="2" stroke-dasharray="12"/><path d="M731.99,201.591s25.529,16.805,11.244,36.477c-5.417,7.34-59.031,29.482-71.423,33.524-.346.113-8.665,6.084-8.665,6.084S627,309.444,628.131,332.069c-14.423,5.373.1-13.557-3.394,2.72-2.379,11.072,3.394,19.037,3.394,22.059" transform="translate(-407.952 -148.816)" fill="none" stroke="rgba(96,218,168,0.5)" stroke-miterlimit="10" stroke-width="2" stroke-dasharray="12"/><g transform="translate(197.301)" opacity="0.5"><g opacity="0.5"><rect width="29.789" height="33.887" fill="url(#e)"/></g><rect width="28.212" height="33.415" transform="translate(0.945 0.473)" fill="#e6e6e6"/><circle cx="5.203" cy="5.203" r="5.203" transform="translate(9.53 11.032)" fill="#fff"/><circle cx="4.73" cy="4.73" r="4.73" transform="translate(10.003 13.241)" fill="#fff"/><rect width="2.208" height="3.785" transform="translate(13.634 20.806)" fill="#fff"/><path d="M421.276,47.22h0a5.437,5.437,0,0,1,5.437,5.437V57.63H415.84V52.657A5.436,5.436,0,0,1,421.276,47.22Z" transform="translate(-406.305 -23.733)" fill="#fff"/><path d="M588.65,91.254q-.5.264-.995.562a1.707,1.707,0,0,0-.7.652,1.236,1.236,0,0,1-.164.318c-.149.164-.4.159-.612.209-.7.164-1.054.93-1.243,1.617a11.521,11.521,0,0,0-.273,1.248,1.555,1.555,0,0,0,.025.821c.045.114.114.214.149.328.129.428-.234.831-.323,1.268a2.148,2.148,0,0,0,.194,1.159,1.383,1.383,0,0,0,.154.328,2.218,2.218,0,0,0,.194.214,1.84,1.84,0,0,1,.353.562,12.181,12.181,0,0,1,2.2.627,8.912,8.912,0,0,0,3.546,1.03,3.264,3.264,0,0,0,.995-.2c.622-.234,1.159-.652,1.791-.851a15.61,15.61,0,0,1,1.771-.3c.284-.055.632-.269.522-.537a.831.831,0,0,0,.851-.164,2.263,2.263,0,0,0,.5-.741,6.852,6.852,0,0,0,.6-1.467,4.148,4.148,0,0,0-.373-2.93,1.308,1.308,0,0,0-.363-.458c-.114-.085-.249-.134-.358-.224a1.318,1.318,0,0,1-.274-.358q-.592-.995-1.248-1.9a3.86,3.86,0,0,0-1.631-1.492c-1.04-.4-1.8.234-2.785.274a7.1,7.1,0,0,0-1.278-.07,4.656,4.656,0,0,0-1.219.473Z" transform="translate(-576.354 -80.565)" fill="#fff"/></g></g><g transform="translate(-3084.71 -3062.14)"><g transform="translate(150.755)" opacity="0.5"><rect width="101.905" height="99.857" fill="url(#f)"/></g><rect width="100.882" height="98.32" transform="translate(151.267 0.768)" fill="#fff"/><g transform="translate(161.509 8.932)" opacity="0.5"><rect width="80.397" height="62.414" fill="#559aff"/></g><g transform="translate(185.605 16.082)" opacity="0.5"><path d="M885.164,223.4a9.423,9.423,0,0,0-2.8-6.539,22.967,22.967,0,0,0-6-4.407h-.014a10.159,10.159,0,0,0-3.092-.934V207.7a8.57,8.57,0,0,0,1.913-2.482h0v.306s3.664-3.7,3.58-8.045c.054-2.608-1.2-5.478-5.406-7.94-9.766-5.7-13.507,2.587-14.219,4.5a1.286,1.286,0,0,0-.1.292l-.028.089h0a1.022,1.022,0,0,0,0,.271h0v.028h0a1.123,1.123,0,0,0,0,.145c0,.64.544,1.228,1.467,1.709a8.542,8.542,0,0,0,4.259,12.811v2.452l-.189-.357s-1.305.782-2.989,1.983h0c-2.821,2.011-6.707,5.2-7.291,7.828-.934,4.2,0,21.993,0,21.993l31.306.467Zm-9.661-18.53Zm-.313.343Zm.023-.026.012-.012Zm.047-.049ZM859.03,194.86Zm.042.138v.014Zm.058.138v.019Zm.075.135.014.023Zm.091.133.019.026Zm.107.131.026.028Zm.124.128.03.03Zm1.06.7.033.016h0Zm-.92-.581.037.033Zm.154.124.044.033Zm.17.119.051.035Zm.184.117.061.035Zm.2.112.068.037Z" transform="translate(-853.832 -187.566)" fill="url(#g)"/></g><rect width="8.311" height="12.19" transform="translate(196.624 36.329)" fill="#fda57d"/><path d="M902.2,277.113a5.419,5.419,0,0,0,2.216.553,8.272,8.272,0,0,0,5.542-2.13v-.086H902.2Z" transform="translate(-705.3 -238.845)" opacity="0.05"/><circle cx="8.311" cy="8.311" r="8.311" transform="translate(191.083 21.923)" fill="#fda57d"/><circle transform="translate(191.914 27.74)" fill="#ff0"/><path d="M880.84,237.49" transform="translate(-688.929 -209.75)" fill="#ff0"/><ellipse cx="7.428" cy="2.823" rx="7.428" ry="2.823" transform="translate(191.05 20.842)"/><path d="M886.064,198.683l6.833,4.159v5.138s8.914-9.009-1.782-15.247-13.965,4.755-13.965,4.755S880.12,199.872,886.064,198.683Z" transform="translate(-686.1 -173.976)"/><ellipse cx="0.831" cy="1.385" rx="0.831" ry="1.385" transform="translate(206.28 28.849)" fill="#fda57d"/><g transform="translate(191.066 23.789)" opacity="0.05"><path d="M892.95,225.647,888.4,222.88a17.446,17.446,0,0,1-3.76.39c-3.993,0-7.239-1.2-7.419-2.7v.026h0a1.118,1.118,0,0,0,0,.14c0,1.56,3.325,2.823,7.428,2.823a17.447,17.447,0,0,0,3.771-.39l4.547,2.767Z" transform="translate(-877.22 -220.57)"/><path d="M944.58,239.631v.3s3.561-3.6,3.479-7.828C947.975,236.2,944.58,239.631,944.58,239.631Z" transform="translate(-928.85 -229.407)"/></g><path d="M866.067,290.45s-9.093,5.455-10,9.546,0,21.4,0,21.4l30.461.455-.388-19.807a9.171,9.171,0,0,0-2.732-6.364c-2.275-2.235-5.714-4.965-9.156-5.231l-4.091,7.73Z" transform="translate(-669.629 -250.342)" fill="#4d8af0"/><path d="M878.465,330.1s-2.377,12.477-.3,16.347" transform="translate(-686.226 -280.733)" opacity="0.05"/><path d="M956,330.1s2.377,12.477.3,16.347" transform="translate(-746.537 -280.733)" opacity="0.05"/><path d="M841.02,171.551l8.633-.121-5.661,14.383Z" transform="translate(-644.622 -131.397)" fill="#fff"/><path d="M841.02,168.14v.89h8.617l.016-.89Z" transform="translate(-644.622 -128.875)" fill="#fff"/><rect width="1.189" height="1.189" transform="translate(199.963 39.265)"/><path d="M835.172,171.95l-1.782,1.784,3.862,6.581Z" transform="translate(-638.774 -131.796)" fill="#4d8af0"/><path d="M866.89,174.5l1.488,1.485-4.458,5.941Z" transform="translate(-662.175 -133.75)" fill="#4d8af0"/><path d="M835.172,171.95l-1.782,1.784,3.862,6.581Z" transform="translate(-638.774 -131.796)" fill="#fff" opacity="0.1"/><path d="M866.89,174.5l1.488,1.485-4.458,5.941Z" transform="translate(-662.175 -133.75)" fill="#fff" opacity="0.1"/><path d="M843.232,170.68l-4.752,20.036,2.97,4.456,3.862-4.456Z" transform="translate(-642.676 -130.822)"/><rect width="70.991" height="3.269" transform="translate(167.191 80.112)" fill="#e0e0e0"/><rect width="48.339" height="3.269" transform="translate(178.517 86.651)" fill="#e0e0e0"/><g transform="translate(0 26.743)" opacity="0.5"><rect width="101.905" height="99.857" fill="url(#f)"/></g><rect width="100.882" height="98.32" transform="translate(0.511 27.511)" fill="#fff"/><g transform="translate(10.754 35.675)" opacity="0.5"><rect width="80.397" height="62.414" fill="#559aff"/></g><g transform="translate(35.587 39.827)" opacity="0.5"><path d="M245.458,335.858h1.3l-.406-4.157h-.044c.248-2.541.619-13.8-11.485-18.285l-1.081-.712-.082.072v-3.038a8.7,8.7,0,0,0,1.95-2.513h0v.311a15.291,15.291,0,0,0,2.615-3.869,15.273,15.273,0,0,1-2.317,3.246v-.028c1.52-1.735,7.737-9.789-2.169-15.569-11.158-6.508-13.264,4.411-13.264,4.411l.89,1.191s-2.16,4.325-2.16,6.366a8.673,8.673,0,0,0,5.78,8.173v2.592c-.806.294-12,4.626-12,17.65l-1.56,4.157.521.234h0v11.585h25.454s1.56-12.342,1.039-16.5l1.56,1.039v3.638h.346v.091h-.1l.1.336v11.134h5.109v-11.13l.058-.336h-.058Zm-28.877.953h0l.037-.953Z" transform="translate(-211.42 -289.246)" fill="url(#i)"/></g><rect width="8.311" height="12.19" transform="translate(49.322 60.606)" fill="#fda57d"/><path d="M271.43,381.073a5.42,5.42,0,0,0,2.216.553,8.27,8.27,0,0,0,5.543-2.131v-.085H271.43Z" transform="translate(-221.83 -318.528)" opacity="0.05"/><circle cx="8.311" cy="8.311" r="8.311" transform="translate(43.783 46.2)" fill="#fda57d"/><circle transform="translate(44.615 52.017)" fill="#ff0"/><path d="M250.07,341.45" transform="translate(-205.458 -289.433)" fill="#ff0"/><path d="M259.59,303.232l6.833,2.674v5.138s8.921-9-1.782-15.242c-9.616-5.6-11.359,1.147-12.568,2.445a.313.313,0,0,0,.016.444C253.278,299.808,254.294,304.292,259.59,303.232Z" transform="translate(-206.928 -252.763)" fill="#4d4545"/><rect width="4.897" height="12.202" transform="translate(64.048 85.733)" fill="#fda57d"/><path d="M272.85,350.567v3.487h6.473l-.395-3.984Z" transform="translate(-209.133 -268.321)" fill="#fff"/><path d="M157.68,367.13v12.451h3.984l.462-11.538Z" transform="translate(-120.858 -281.397)" fill="#fda57d"/><path d="M235.436,396.481l-2.891-3.487S221,396.979,221,409.927l3.486,3.984-.5,12.451h20.419s1.495-12.949,1-16.933l1.495,1h5.976s2.3-13.946-12.143-18.427Z" transform="translate(-183.176 -328.178)" fill="#235067"/><path d="M157.042,350.07l-1.492,3.984,4.89,2.242.089-2.242Z" transform="translate(-119.225 -268.321)" fill="#fff"/><path d="M202.62,279.93l1.957,4.379,2.8-2.3-2.7-3.181Z" transform="translate(-155.304 -213.717)" opacity="0.05"/><path d="M202.62,278.66l1.957,4.376,2.8-2.3-2.7-3.181Z" transform="translate(-155.304 -212.743)" fill="#fff"/><path d="M230.615,273.37l1.782,1.189-5.049,4.752-1.768-1.534Z" transform="translate(-172.902 -209.532)" opacity="0.05"/><path d="M230.615,272.1l1.782,1.186-5.049,4.755-1.768-1.534Z" transform="translate(-172.902 -208.558)" fill="#fff"/><path d="M237.47,446.015a17.748,17.748,0,0,1,3.566-10.7" transform="translate(-195.8 -361.382)" opacity="0.05"/><path d="M263.68,343.844V342.06l1.782,1.189-1.189-.3Z" transform="translate(-202.105 -262.181)" opacity="0.05"/><path d="M273.86,367.51l.1.32h4.9l.056-.32Z" transform="translate(-209.907 -281.688)" opacity="0.05"/><path d="M157.68,368.11v.341l4.367,1.875-.112-.278Z" transform="translate(-120.858 -282.148)" opacity="0.05"/><path d="M268.963,323.5a14.638,14.638,0,0,1-2.218,3.111v-5.145l-6.833-2.674c-5.121,1.025-5.929-3.094-7.365-4.414a.315.315,0,0,0-.444.019h0a.313.313,0,0,0,.016.444c1.191,1.116,2.2,5.6,7.5,4.54l6.833,2.674v5.138A14.654,14.654,0,0,0,268.963,323.5Z" transform="translate(-206.951 -268.621)" opacity="0.05"/><ellipse cx="0.831" cy="1.385" rx="0.831" ry="1.385" transform="translate(58.979 53.126)" fill="#fda57d"/><rect width="70.991" height="3.269" transform="translate(13.766 105.566)" fill="#e0e0e0"/><rect width="48.339" height="3.269" transform="translate(25.092 112.105)" fill="#e0e0e0"/><g transform="translate(75.883 54.873)" opacity="0.5"><rect width="101.905" height="99.857" fill="url(#f)"/></g><rect width="100.882" height="98.32" transform="translate(76.395 55.642)" fill="#fff"/><g transform="translate(86.637 63.808)" opacity="0.5"><rect width="80.397" height="62.414" fill="#559aff"/></g><g transform="translate(109.163 64.35)" opacity="0.5"><path d="M551.248,432.679l.234-.175.334-.248h0l15.59-11.58-5.359-21.435v-.07c.044-.654.294-5.714-2.44-4.8-2.672.89-1.681,4.628-1.49,5.264l.03.093,3.409,18.026-10.835,6.319-1.5-.168a13.521,13.521,0,0,0,2.595-8.1c0-6.725-4.579-12.178-10.231-12.178s-10.231,5.453-10.231,12.178c0,5.037,2.569,9.362,6.233,11.209l-3.879,1.941v.021c-1.112-.234-5.329-.163-3.62,15.314a16.328,16.328,0,0,1-2.524,10.7l-1.07,1.488,26.7.163h.082S549.494,450.574,551.248,432.679Z" transform="translate(-526.49 -394.26)" fill="url(#k)"/></g><path d="M535.609,542.973s-5.511-2.38-3.9,13.974a19.3,19.3,0,0,1-3.005,12.416l-.339.521h5.123l3.858-4.087Z" transform="translate(-418.761 -443.803)" fill="#3ad29f"/><path d="M638.045,418v-.068l-3.853.453.028.093,3.342,17.668L626.1,442.831l.467,8.6L643.28,439.01Z" transform="translate(-493.676 -348.053)" fill="#3ad29f"/><ellipse cx="10.027" cy="11.938" rx="10.027" ry="11.938" transform="translate(114.286 74.242)" fill="#ff0"/><rect width="7.162" height="10.506" transform="translate(122.165 90.238)" fill="#fda57d"/><path d="M559.339,525.77l-1.91-2.865L551.7,525.77v4.74a9.74,9.74,0,0,0-.385,7.888c-.467,6.207-1.733,14.343-1.733,14.343l21.23.156s-3.82-6.125-1.91-24.27l-.467-7.641-4.3-.467Z" transform="translate(-435.025 -426.686)" fill="#3ad29f"/><path d="M571.19,403.81l.479.476.476,7.531-.556.413Z" transform="translate(-437.804 -309.511)" opacity="0.05"/><path d="M583.19,507.543a4.69,4.69,0,0,0,1.91.467,7.128,7.128,0,0,0,4.776-1.836V506.1H583.19Z" transform="translate(-460.787 -415.633)" opacity="0.05"/><circle cx="7.162" cy="7.162" r="7.162" transform="translate(117.39 77.824)" fill="#fda57d"/><ellipse cx="0.717" cy="1.193" rx="0.717" ry="1.193" transform="translate(130.999 83.793)" fill="#fda57d"/><circle transform="translate(118.107 82.838)" fill="#ff0"/><path d="M564.78,473.43" transform="translate(-446.676 -390.592)" fill="#ff0"/><path d="M506.028,354.33v.336h12.295V355H505.86Z" transform="translate(-387.73 -271.586)" opacity="0.05"/><rect width="12.416" height="6.207" transform="translate(118.107 77.107)" fill="#ff0"/><path d="M661.121,397.417c-2.618.873-1.649,4.537-1.462,5.161l3.853-.453C663.564,401.483,663.809,396.523,661.121,397.417Z" transform="translate(-519.146 -332.248)" fill="#fda57d"/><g transform="translate(114.466 93.82)" opacity="0.05"><path d="M549.711,560.567s1.256-8.136,1.733-14.343a9.792,9.792,0,0,1,.395-7.888V533.6l5.345-2.674-.128-.191-5.728,2.865v4.74a9.785,9.785,0,0,0-.395,7.888c-.467,6.207-1.733,14.343-1.733,14.343l21.23.156h0Z" transform="translate(-549.2 -528.332)"/><path d="M533.477,407.012l4.729-5.2-.465-.051-4.481,4.927Z" transform="translate(-523.198 -401.76)"/></g><path d="M516.46,406.068l3.669,8.449,6.725-11.538L525,402.74l-4.61,4.607-2.048-2.3Z" transform="translate(-395.855 -308.691)" opacity="0.05"/><path d="M516.46,404.968l3.669,8.451,6.725-11.538L525,401.64l-4.61,4.61-2.048-2.3Z" transform="translate(-395.855 -307.848)" fill="#fff"/><rect width="70.991" height="3.269" transform="translate(91.529 132.889)" fill="#e0e0e0"/><rect width="48.339" height="3.269" transform="translate(102.855 139.427)" fill="#e0e0e0"/></g><g transform="translate(-3014.905 -2839.138)"><ellipse cx="3.19" cy="0.478" rx="3.19" ry="0.478" transform="translate(0.863 28.737) rotate(-63.611)" fill="#e0e0e0"/><ellipse cx="3.19" cy="0.325" rx="3.19" ry="0.325" transform="translate(40.855 48.598) rotate(-63.611)" fill="#e0e0e0"/><rect width="1.914" height="6.379" transform="translate(20.036 36.835) rotate(39.547)" fill="#f55f44"/><rect width="2.153" height="6.379" transform="translate(20.215 43.857) rotate(-166.769)" opacity="0.05"/><rect width="1.914" height="6.379" transform="translate(20.215 43.857) rotate(-166.769)" fill="#f55f44"/><rect width="6.698" height="44.495" transform="translate(1.221 29.092) rotate(-63.611)" fill="url(#l)"/><path d="M256.257,444.122c-.78-.374-40.43-20.06-39.858-19.776a22.262,22.262,0,0,0,2.835-5.714l39.858,19.776S257.693,440.865,256.257,444.122Z" transform="translate(-215.107 -395.397)" fill="#f5f5f5"/><rect width="3.668" height="6.379" transform="translate(21.556 31.883) rotate(26.389)" opacity="0.05"/><rect width="3.349" height="6.379" transform="translate(21.698 31.954) rotate(26.389)" fill="#f55f44"/><rect width="2.233" height="6.379" transform="translate(22.127 32.167) rotate(26.389)" opacity="0.05"/><rect width="1.914" height="6.379" transform="translate(22.27 32.237) rotate(26.389)" fill="#f55f44"/><circle cx="0.266" cy="0.266" r="0.266" transform="translate(23.488 50.987)" fill="#dbdbdb"/><g transform="translate(2.04 43.807)" opacity="0.5"><rect width="0.273" height="1.545" transform="translate(0.636)" fill="#47e6b1"/><rect width="0.273" height="1.545" transform="translate(1.545 0.636) rotate(90)" fill="#47e6b1"/></g><g transform="translate(70.749 24.539)" opacity="0.5"><rect width="0.273" height="1.545" transform="translate(0.636)" fill="#47e6b1"/><rect width="0.273" height="1.545" transform="translate(1.545 0.636) rotate(90)" fill="#47e6b1"/></g><g transform="translate(3.676 5.362)" opacity="0.5"><rect width="0.273" height="1.545" transform="translate(0.636)" fill="#47e6b1"/><rect width="0.273" height="1.545" transform="translate(1.545 0.636) rotate(90)" fill="#47e6b1"/></g><g transform="translate(62.569 2.999)" opacity="0.5"><rect width="0.273" height="1.545" transform="translate(0.636)" fill="#47e6b1"/><rect width="0.273" height="1.545" transform="translate(1.545 0.636) rotate(90)" fill="#47e6b1"/></g><path d="M203.424,410.252a.334.334,0,0,1-.186-.4.161.161,0,0,0,.007-.037h0a.167.167,0,0,0-.3-.111h0a.16.16,0,0,0-.019.033.334.334,0,0,1-.4.186.16.16,0,0,0-.037-.007h0a.167.167,0,0,0-.111.3h0a.162.162,0,0,0,.033.019.334.334,0,0,1,.186.4.16.16,0,0,0-.007.037h0a.167.167,0,0,0,.3.111h0a.16.16,0,0,0,.019-.033.334.334,0,0,1,.4-.186.16.16,0,0,0,.037.007h0a.167.167,0,0,0,.111-.3h0A.16.16,0,0,0,203.424,410.252Z" transform="translate(-202.303 -387.217)" fill="#4d8af0" opacity="0.5"/><path d="M375.424,213.252a.334.334,0,0,1-.186-.4.16.16,0,0,0,.007-.037h0a.167.167,0,0,0-.3-.111h0a.16.16,0,0,0-.019.033.334.334,0,0,1-.4.186.16.16,0,0,0-.037-.007h0a.167.167,0,0,0-.111.3h0a.16.16,0,0,0,.033.019.334.334,0,0,1,.186.4.16.16,0,0,0-.007.037h0a.167.167,0,0,0,.3.111h0a.161.161,0,0,0,.019-.033.334.334,0,0,1,.4-.186.16.16,0,0,0,.037.007h0a.167.167,0,0,0,.111-.3h0A.159.159,0,0,0,375.424,213.252Z" transform="translate(-358.671 -208.121)" fill="#4d8af0" opacity="0.5"/><path d="M585.424,724.252a.334.334,0,0,1-.186-.4.159.159,0,0,0,.007-.037h0a.167.167,0,0,0-.3-.111h0a.153.153,0,0,0-.019.033.334.334,0,0,1-.4.186.167.167,0,0,0-.037-.007h0a.167.167,0,0,0-.111.3h0a.164.164,0,0,0,.033.019.334.334,0,0,1,.186.4.163.163,0,0,0-.007.037h0a.167.167,0,0,0,.3.111h0a.155.155,0,0,0,.018-.033.334.334,0,0,1,.4-.186.16.16,0,0,0,.037.007h0a.167.167,0,0,0,.111-.3h0A.159.159,0,0,0,585.424,724.252Z" transform="translate(-549.585 -672.679)" fill="#4d8af0" opacity="0.5"/><circle cx="0.545" cy="0.545" r="0.545" transform="translate(68.477 39.808)" fill="#f55f44" opacity="0.5"/><circle cx="0.545" cy="0.545" r="0.545" transform="translate(56.48 43.261)" fill="#4d8af0" opacity="0.5"/><circle cx="0.545" cy="0.545" r="0.545" transform="translate(8.856 48.624)" fill="#47e6b1" opacity="0.5"/><circle cx="0.545" cy="0.545" r="0.545" transform="translate(36.849)" fill="#f55f44" opacity="0.5"/><path d="M385.378,446.843l-2.181,3.272s.727,3.363,16.814,3.272,17.359-3.272,17.359-3.272l-3-4.363-9.179-6.271Z" transform="translate(-366.752 -414.351)" fill="#559aff"/><path d="M385.378,446.843l-2.181,3.272s.727,3.363,16.814,3.272,17.359-3.272,17.359-3.272l-3-4.363-9.179-6.271Z" transform="translate(-366.752 -414.351)" opacity="0.15"/><path d="M79.923,78.542,51.294,91.175l-34.9-12.633L48.386,64l15.7,7.241.563.26Z" transform="translate(-14.899 -58.183)" fill="#559aff"/><path d="M79.923,78.542,51.294,91.175l-34.9-12.633L48.386,64l15.7,7.241.563.26Z" transform="translate(-14.899 -58.183)" opacity="0.15"/><path d="M542.339,154l-.545.033-.61-10.362.563.26Z" transform="translate(-491.994 -130.613)" fill="#f5f5f5"/><path d="M385.742,367.964,383.2,383.414s18.268-5.908,34.173,0l-2.363-16.359S393.649,364.419,385.742,367.964Z" transform="translate(-366.752 -347.651)" fill="#559aff"/><ellipse cx="2.636" cy="1.818" rx="2.636" ry="1.818" transform="translate(47.664 22.903)" fill="#f5f5f5"/></g><g transform="translate(-3231.707 -2907.291)"><g transform="translate(-0.005 30.907)" opacity="0.5"><path d="M222.267,245.169a9.491,9.491,0,1,0-14.785,7.877v.043a3.249,3.249,0,0,0,1.076.684l.013-.043a8.869,8.869,0,0,0,4.465.987h.046a8.7,8.7,0,0,0,4.139-.944s.011-.024.03-.072a3.38,3.38,0,0,0,.9-.612l.015-.108A9.479,9.479,0,0,0,222.267,245.169Z" transform="translate(-203.285 -235.678)" fill="url(#f)"/></g><circle cx="9.205" cy="9.205" r="9.205" transform="translate(0.183 30.855)" fill="#f5f5f5"/><path d="M226.544,304.6s-2.194.185-1.613,4.176a3.153,3.153,0,0,0,1.046.664l1.233-4.176Z" transform="translate(-220.842 -260.913)" fill="#fda57d"/><path d="M269.524,304.6s2.194.185,1.613,4.176a3.152,3.152,0,0,1-1.044.664l-1.233-4.176Z" transform="translate(-256.705 -260.913)" fill="#fda57d"/><path d="M227.483,269.28s-1.044,3.037-1.613,2.752c0,0,5.494,4.745,10.344,0a14.465,14.465,0,0,0-2.088-2.752Z" transform="translate(-221.687 -232.142)" fill="#333"/><circle cx="4.081" cy="4.081" r="4.081" transform="translate(5.236 32.772)" fill="#333"/><path d="M237.38,304.6h-7.117l-.664,2.846s-.389,1.318.095,1.9,5.02,1.9,8.345.095a3.709,3.709,0,0,0,.095-2.372c-.371-1.328-.095-.095-.095-.095Z" transform="translate(-224.604 -260.913)" opacity="0.1"/><path d="M237.89,304.6h-7.117l-.664,2.846s-.389,1.318.095,1.9,5.02,1.9,8.345.095a3.709,3.709,0,0,0,.095-2.372c-.371-1.328-.095-.095-.095-.095Z" transform="translate(-225.02 -260.913)" opacity="0.1"/><path d="M237.61,304.6h-7.117l-.664,2.846s-.389,1.318.095,1.9,5.02,1.9,8.345.095a3.709,3.709,0,0,0,.095-2.372c-.371-1.328-.095-.095-.095-.095Z" transform="translate(-224.792 -260.913)" fill="#fdd835"/><path d="M42.53,222.86h2.848v2.453a1.248,1.248,0,0,1-1.248,1.248h-.352a1.248,1.248,0,0,1-1.248-1.248Z" transform="translate(-34.648 -181.535)" opacity="0.1"/><path d="M42.53,222.29h2.848v2.453a1.248,1.248,0,0,1-1.248,1.248h-.352a1.248,1.248,0,0,1-1.248-1.248Z" transform="translate(-34.648 -181.071)" fill="#fda57d"/><path d="M245.85,291.96a4.1,4.1,0,0,0,2.846,0v-.35H245.85Z" transform="translate(-237.962 -250.332)" opacity="0.1"/><circle cx="4.081" cy="4.081" r="4.081" transform="translate(5.236 33.657)" fill="#fda57d"/><path d="M232.52,251.2h7.788s-.671-3.143-3.62-2.943A5.244,5.244,0,0,0,232.52,251.2Z" transform="translate(-227.104 -215.012)" fill="#333"/><ellipse cx="0.38" cy="0.712" rx="0.38" ry="0.712" transform="translate(4.941 36.854)" fill="#fda57d"/><ellipse cx="0.38" cy="0.712" rx="0.38" ry="0.712" transform="translate(12.913 36.854)" fill="#fda57d"/><path d="M232.52,251.771h7.788s-.671-3.141-3.62-2.941A5.244,5.244,0,0,0,232.52,251.771Z" transform="translate(-227.104 -215.477)" opacity="0.1"/><g transform="translate(0.127 -0.002)" opacity="0.5"><path d="M204,78.489a9.491,9.491,0,1,1,14.785,7.877v.043a3.249,3.249,0,0,1-1.076.684l-.013-.043a8.869,8.869,0,0,1-4.465.987h-.046a8.7,8.7,0,0,1-4.139-.944s-.011-.024-.03-.072a3.38,3.38,0,0,1-.9-.612l-.015-.108A9.479,9.479,0,0,1,204,78.489Z" transform="translate(-204 -68.998)" fill="url(#n)"/></g><circle cx="9.205" cy="9.205" r="9.205" transform="translate(0.419 0.284)" fill="#f5f5f5"/><path d="M228.224,139.09s-2.194.185-1.613,4.176a3.153,3.153,0,0,0,1.044.664l1.233-4.176Z" transform="translate(-222.211 -126.094)" fill="#be7c5e"/><path d="M271.214,139.09s2.194.185,1.613,4.176a3.152,3.152,0,0,1-1.044.664l-1.233-4.176Z" transform="translate(-258.082 -126.094)" fill="#be7c5e"/><path d="M233.635,103.78s-.169.491-.408,1.061c-.523,1.244.074,6.021,1.322,6.529a7.106,7.106,0,0,0,5.161.239c1.669-.606,2.177-6.043,1-7.369-.137-.156-.282-.31-.432-.46Z" transform="translate(-227.526 -97.332)" fill="#333"/><circle cx="4.081" cy="4.081" r="4.081" transform="translate(5.55 2.081)" fill="#333"/><path d="M239.07,139.09h-7.117l-.664,2.846s-.389,1.318.095,1.9,5.02,1.9,8.345.095a3.709,3.709,0,0,0,.1-2.372c-.371-1.328-.095-.095-.095-.095Z" transform="translate(-225.981 -126.094)" opacity="0.1"/><path d="M239.556,139.09h-7.123l-.664,2.846s-.389,1.318.095,1.9,5.02,1.9,8.345.095a3.709,3.709,0,0,0,.095-2.372c-.371-1.328-.095-.095-.095-.095Z" transform="translate(-226.372 -126.094)" opacity="0.1"/><path d="M239.292,139.09h-7.119l-.664,2.846s-.389,1.318.095,1.9,5.02,1.9,8.345.095a3.709,3.709,0,0,0,.095-2.372c-.371-1.328-.095-.095-.095-.095Z" transform="translate(-226.16 -126.094)" fill="#3ad29f"/><path d="M44.22,57.35h2.848v2.455a1.248,1.248,0,0,1-1.248,1.248h-.352a1.248,1.248,0,0,1-1.248-1.248Z" transform="translate(-36.024 -46.717)" opacity="0.1"/><path d="M44.22,56.78h2.848v2.451a1.248,1.248,0,0,1-1.248,1.248h-.352a1.248,1.248,0,0,1-1.248-1.248Z" transform="translate(-36.024 -46.252)" fill="#be7c5e"/><path d="M247.54,126.46a4.1,4.1,0,0,0,2.846,0v-.35H247.54Z" transform="translate(-239.339 -115.521)" opacity="0.1"/><circle cx="4.081" cy="4.081" r="4.081" transform="translate(5.55 2.968)" fill="#be7c5e"/><path d="M234.21,85.693H242s-.664-3.143-3.607-2.943A5.289,5.289,0,0,0,234.21,85.693Z" transform="translate(-228.481 -80.194)" fill="#333"/><ellipse cx="0.38" cy="0.712" rx="0.38" ry="0.712" transform="translate(5.253 6.163)" fill="#be7c5e"/><ellipse cx="0.38" cy="0.712" rx="0.38" ry="0.712" transform="translate(13.225 6.163)" fill="#be7c5e"/><path d="M234.21,86.263H242s-.664-3.143-3.607-2.943A5.289,5.289,0,0,0,234.21,86.263Z" transform="translate(-228.481 -80.658)" opacity="0.1"/><g transform="translate(-0.005 122.263)" opacity="0.5"><path d="M222.267,737.827a9.491,9.491,0,1,0-14.785,7.879v.043a3.25,3.25,0,0,0,1.076.684l.013-.043a8.869,8.869,0,0,0,4.465.987h.046a8.7,8.7,0,0,0,4.139-.944s.011-.024.03-.072a3.38,3.38,0,0,0,.9-.612l.015-.108A9.479,9.479,0,0,0,222.267,737.827Z" transform="translate(-203.285 -728.338)" fill="url(#o)"/></g><circle cx="9.205" cy="9.205" r="9.205" transform="translate(0.281 122.549)" fill="#f5f5f5"/><path d="M225.484,798.93s-2.194.185-1.613,4.176a3.153,3.153,0,0,0,1.044.664l1.233-4.176Z" transform="translate(-219.979 -663.577)" fill="#4d8af0"/><path d="M268.464,798.93s2.194.185,1.613,4.176a3.153,3.153,0,0,1-1.044.664l-1.233-4.176Z" transform="translate(-255.842 -663.577)" fill="#4d8af0"/><circle cx="4.081" cy="4.081" r="4.081" transform="translate(5.04 124.439)" fill="#333"/><path d="M236.32,798.93H229.2l-.664,2.846s-.389,1.318.095,1.9,5.02,1.9,8.345.095a3.709,3.709,0,0,0,.095-2.372c-.371-1.328-.095-.095-.095-.095Z" transform="translate(-223.741 -663.577)" fill="#4d8af0"/><path d="M236.832,798.93h-7.119l-.664,2.846s-.389,1.318.095,1.9,5.02,1.9,8.345.095a3.709,3.709,0,0,0,.095-2.372c-.371-1.328-.095-.095-.095-.095Z" transform="translate(-224.156 -663.577)" fill="#4d8af0"/><path d="M236.55,798.93h-7.117l-.664,2.846s-.389,1.318.095,1.9,5.02,1.9,8.358.089a3.709,3.709,0,0,0,.095-2.372c-.371-1.328-.095-.095-.095-.095Z" transform="translate(-223.928 -663.577)" fill="#4d8af0"/><path d="M41.472,717.19h2.846v2.453a1.248,1.248,0,0,1-1.248,1.248h-.352a1.248,1.248,0,0,1-1.248-1.248V717.19Z" transform="translate(-33.784 -584.199)" opacity="0.1"/><path d="M41.472,716.62h2.846v2.453a1.248,1.248,0,0,1-1.248,1.248h-.352a1.248,1.248,0,0,1-1.248-1.248V716.62Z" transform="translate(-33.784 -583.735)" fill="#fda57d"/><path d="M244.8,786.339a4.1,4.1,0,0,0,2.846,0V786H244.8Z" transform="translate(-237.107 -653.044)" opacity="0.1"/><circle cx="4.081" cy="4.081" r="4.081" transform="translate(5.04 125.323)" fill="#fda57d"/><path d="M231.46,746.1h7.788s-.669-3.141-3.609-2.941A5.292,5.292,0,0,0,231.46,746.1Z" transform="translate(-226.24 -618.141)" opacity="0.1"/><path d="M231.46,745.523h7.788s-.664-3.143-3.607-2.943A5.289,5.289,0,0,0,231.46,745.523Z" transform="translate(-226.24 -617.668)" fill="#333"/><ellipse cx="0.38" cy="0.712" rx="0.38" ry="0.712" transform="translate(4.745 128.52)" fill="#fda57d"/><ellipse cx="0.38" cy="0.712" rx="0.38" ry="0.712" transform="translate(12.717 128.52)" fill="#fda57d"/><g transform="translate(-0.005 92.126)" opacity="0.5"><path d="M222.267,575.309a9.491,9.491,0,1,0-14.785,7.877v.043a3.248,3.248,0,0,0,1.076.684l.013-.043a8.868,8.868,0,0,0,4.465.987h.046a8.7,8.7,0,0,0,4.139-.944s.011-.024.03-.072a3.38,3.38,0,0,0,.9-.612l.015-.108A9.479,9.479,0,0,0,222.267,575.309Z" transform="translate(-203.285 -565.818)" fill="url(#p)"/></g><circle cx="9.205" cy="9.205" r="9.205" transform="translate(0.183 92.069)" fill="#f5f5f5"/><path d="M226.544,634.71s-2.194.185-1.613,4.176a3.154,3.154,0,0,0,1.044.664l1.233-4.176Z" transform="translate(-220.842 -529.809)" fill="#be7c5e"/><path d="M269.524,634.71s2.194.185,1.613,4.176a3.154,3.154,0,0,1-1.044.664l-1.233-4.176Z" transform="translate(-256.705 -529.809)" fill="#be7c5e"/><path d="M227.483,599.4s-1.044,5.378-1.613,5.085c0,0,5.494,4.745,10.344,0,0,0-.855-3.85-2.088-5.085Z" transform="translate(-221.687 -501.047)" fill="#333"/><circle cx="4.081" cy="4.081" r="4.081" transform="translate(5.236 93.986)" fill="#333"/><path d="M237.38,634.71h-7.117l-.664,2.846s-.389,1.318.095,1.9,5.02,1.9,8.345.095a3.709,3.709,0,0,0,.095-2.372c-.371-1.328-.095-.095-.095-.095Z" transform="translate(-224.604 -529.809)" opacity="0.1"/><path d="M237.89,634.71h-7.117l-.664,2.846s-.389,1.318.095,1.9,5.02,1.9,8.345.095a3.709,3.709,0,0,0,.095-2.372c-.371-1.328-.095-.095-.095-.095Z" transform="translate(-225.02 -529.809)" opacity="0.1"/><path d="M237.61,634.71h-7.117l-.664,2.846s-.389,1.318.095,1.9,5.02,1.9,8.345.095a3.709,3.709,0,0,0,.095-2.372c-.371-1.328-.095-.095-.095-.095Z" transform="translate(-224.792 -529.809)" fill="#f55f44"/><path d="M42.53,553h2.848v2.453A1.248,1.248,0,0,1,44.13,556.7h-.352a1.248,1.248,0,0,1-1.248-1.248Z" transform="translate(-34.648 -450.456)" opacity="0.1"/><path d="M42.53,552.41h2.848v2.453a1.248,1.248,0,0,1-1.248,1.248h-.352a1.248,1.248,0,0,1-1.248-1.248Z" transform="translate(-34.648 -449.975)" fill="#be7c5e"/><path d="M245.85,622.08a4.1,4.1,0,0,0,2.846,0v-.35H245.85Z" transform="translate(-237.962 -519.236)" opacity="0.1"/><circle cx="4.081" cy="4.081" r="4.081" transform="translate(5.236 94.873)" fill="#be7c5e"/><path d="M232.52,581.321h7.788s-.671-3.141-3.62-2.941A5.244,5.244,0,0,0,232.52,581.321Z" transform="translate(-227.104 -483.917)" fill="#333"/><ellipse cx="0.38" cy="0.712" rx="0.38" ry="0.712" transform="translate(4.941 98.068)" fill="#be7c5e"/><ellipse cx="0.38" cy="0.712" rx="0.38" ry="0.712" transform="translate(12.913 98.068)" fill="#be7c5e"/><path d="M232.52,581.9h7.788s-.671-3.143-3.62-2.939A5.251,5.251,0,0,0,232.52,581.9Z" transform="translate(-227.104 -484.388)" opacity="0.1"/><g transform="translate(-0.005 61.361)" opacity="0.5"><path d="M222.267,409.4a9.491,9.491,0,1,0-14.785,7.877v.043a3.249,3.249,0,0,0,1.076.684l.013-.043a8.869,8.869,0,0,0,4.465.987h.046a8.7,8.7,0,0,0,4.139-.944s.011-.024.03-.072a3.38,3.38,0,0,0,.9-.612l.015-.108A9.479,9.479,0,0,0,222.267,409.4Z" transform="translate(-203.285 -399.908)" fill="url(#f)"/></g><circle cx="9.205" cy="9.205" r="9.205" transform="translate(0.281 61.647)" fill="#f5f5f5"/><path d="M225.484,470.5s-2.194.185-1.613,4.176a3.153,3.153,0,0,0,1.044.664l1.233-4.176Z" transform="translate(-219.979 -396.049)" fill="#4d8af0"/><path d="M268.464,470.5s2.194.185,1.613,4.176a3.152,3.152,0,0,1-1.044.664l-1.233-4.176Z" transform="translate(-255.842 -396.049)" fill="#4d8af0"/><circle cx="4.081" cy="4.081" r="4.081" transform="translate(5.04 63.538)" fill="#333"/><path d="M236.32,470.5H229.2l-.664,2.846s-.389,1.318.095,1.9,5.02,1.9,8.345.095a3.709,3.709,0,0,0,.095-2.372c-.371-1.328-.095-.095-.095-.095Z" transform="translate(-223.741 -396.049)" fill="#4d8af0"/><path d="M236.832,470.5h-7.119l-.664,2.846s-.389,1.318.095,1.9,5.02,1.9,8.345.095a3.709,3.709,0,0,0,.095-2.372c-.371-1.328-.095-.095-.095-.095Z" transform="translate(-224.156 -396.049)" fill="#4d8af0"/><path d="M236.55,470.5h-7.117l-.664,2.846s-.389,1.318.095,1.9,5.02,1.9,8.345.095a3.709,3.709,0,0,0,.095-2.372c-.371-1.328-.095-.095-.095-.095Z" transform="translate(-223.928 -396.049)" fill="#4d8af0"/><path d="M41.48,388.77h2.846v2.453a1.248,1.248,0,0,1-1.248,1.248h-.352a1.248,1.248,0,0,1-1.246-1.248Z" transform="translate(-33.792 -316.68)" opacity="0.1"/><path d="M41.472,388.2h2.846v2.453A1.248,1.248,0,0,1,43.07,391.9h-.352a1.248,1.248,0,0,1-1.248-1.248V388.2Z" transform="translate(-33.784 -316.215)" fill="#be7c5e"/><path d="M244.8,457.87a4.1,4.1,0,0,0,2.846,0v-.35H244.8Z" transform="translate(-237.107 -385.476)" opacity="0.1"/><circle cx="4.081" cy="4.081" r="4.081" transform="translate(5.04 64.423)" fill="#be7c5e"/><path d="M231.46,417.681h7.788s-.669-3.141-3.609-2.941A5.292,5.292,0,0,0,231.46,417.681Z" transform="translate(-226.24 -350.621)" opacity="0.1"/><path d="M231.46,417.1h7.788s-.664-3.143-3.607-2.943A5.289,5.289,0,0,0,231.46,417.1Z" transform="translate(-226.24 -350.149)" fill="#333"/><ellipse cx="0.38" cy="0.712" rx="0.38" ry="0.712" transform="translate(4.745 67.618)" fill="#be7c5e"/><ellipse cx="0.38" cy="0.712" rx="0.38" ry="0.712" transform="translate(12.717 67.618)" fill="#be7c5e"/><path d="M233.408,406.339a2.461,2.461,0,0,1,.61-.992c.838-.829,2.212-1,2.917-1.947a.556.556,0,0,1-.252.777,2.137,2.137,0,0,0,1.84-.619,1.263,1.263,0,0,1-.213,1.333,1.276,1.276,0,0,1,1.276,1.031,1.19,1.19,0,0,1-.556,1,3.063,3.063,0,0,1-1.113.419C236.783,407.591,232.665,408.646,233.408,406.339Z" transform="translate(-227.755 -341.392)" fill="#333"/></g></g></svg>