<svg xmlns="http://www.w3.org/2000/svg" width="458" height="497.057" viewBox="0 0 458 497.057"><g transform="translate(-678 -226)"><circle cx="19.5" cy="19.5" r="19.5" transform="translate(1097 226)" fill="rgba(96,218,168,0.1)"/><circle cx="19.5" cy="19.5" r="19.5" transform="translate(751 246)" fill="#f5f8fa"/><g transform="translate(678 459.244)" opacity="0.69"><path d="M174.613,512.118l-.8-.2c8.925-43.865,31.354-83.7,63.155-112.162,48.878-43.681,114.677-56.43,174.085-33.731s104.032,77.641,118.062,145.358l-.8.2c-18.893-91.678-91.594-155.706-176.8-155.706C267.433,355.878,193.033,421.586,174.613,512.118Z" transform="translate(-101.342 -252.096)" fill="#3f3d56"/><circle cx="21.159" cy="21.159" r="21.159" transform="translate(409.465 92.323)" fill="rgba(243,105,134,0.68)"/><rect width="1.018" height="40.23" transform="translate(446.599 222.565)" fill="#3f3d56"/><path d="M909.78,613.593c.065,14.067-9.832,25.517-9.832,25.517s-10-11.358-10.067-25.425,9.832-25.517,9.832-25.517S909.715,599.526,909.78,613.593Z" transform="translate(-452.763 -385.902)" fill="#559aff"/><path d="M909.78,613.593c.065,14.067-9.832,25.517-9.832,25.517s-10-11.358-10.067-25.425,9.832-25.517,9.832-25.517S909.715,599.526,909.78,613.593Z" transform="translate(-452.763 -385.902)" opacity="0.1"/><circle cx="11.163" cy="11.163" r="11.163" transform="translate(214.525 123.106)" fill="rgba(85,154,255,0.36)" opacity="0.4"/><path d="M87.88,692.092a10.249,10.249,0,0,0,3.817,5.164,8.824,8.824,0,0,0-3.124-11.547A10.249,10.249,0,0,0,87.88,692.092Z" transform="translate(-59.041 -433.771)" fill="#3f3d56"/><path d="M84.919,694.491a10.249,10.249,0,0,1,2.656,5.846A8.824,8.824,0,0,1,79,691.993,10.252,10.252,0,0,1,84.919,694.491Z" transform="translate(-54.813 -436.855)" fill="#559aff"/><path d="M699.88,692.092a10.249,10.249,0,0,0,3.817,5.164,8.824,8.824,0,0,0-3.124-11.547A10.249,10.249,0,0,0,699.88,692.092Z" transform="translate(-359.39 -433.771)" fill="#3f3d56"/><path d="M696.919,694.491a10.249,10.249,0,0,1,2.656,5.846A8.824,8.824,0,0,1,691,691.993,10.253,10.253,0,0,1,696.919,694.491Z" transform="translate(-355.161 -436.855)" fill="#559aff"/><path d="M66.107,440.576,64,437.065,83.664,420.21h50.564v4.916L115.968,444.79,94.9,449Z" transform="translate(-31.409 -206.224)" fill="#3f3d56"/><path d="M188.277,429.044V418.056h-6.62v3.465l-2.084-2.368-16.855,16.855-2.809,2.809L156.4,452.862l6.321,15.45h32.3v-31.6Z" transform="translate(-76.755 -205.167)" fill="#ccc"/><rect width="53.373" height="32.305" transform="translate(32.591 230.84)" fill="#f2f2f2"/><rect width="11.236" height="9.832" transform="translate(67.353 241.023)" fill="#3f3d56"/><rect width="9.832" height="22.473" transform="translate(52.957 240.672)" fill="#ccc"/><path d="M77.867,476.126v-3.511H73.654v3.511h4.213Z" transform="translate(-36.147 -231.943)" fill="#3f3d56"/><path d="M77.516,485.026H73.654v3.512h4.213v-3.512Z" transform="translate(-36.147 -238.034)" fill="#3f3d56"/><rect width="4.214" height="3.511" transform="translate(44.53 240.672)" fill="#3f3d56"/><rect width="4.214" height="3.511" transform="translate(44.53 246.992)" fill="#3f3d56"/><path d="M194.4,476.816V473.3h-4.214v3.512H194.4Z" transform="translate(-93.336 -232.281)" fill="#3f3d56"/><path d="M194.048,485.716h-3.863v3.511H194.4v-3.511Z" transform="translate(-93.336 -238.372)" fill="#3f3d56"/><rect width="4.214" height="3.511" transform="translate(103.872 241.023)" fill="#3f3d56"/><rect width="4.214" height="3.511" transform="translate(103.872 247.344)" fill="#3f3d56"/><path d="M465.107,440.576,463,437.065l19.664-16.855h50.564v4.916L514.969,444.79,493.9,449Z" transform="translate(-227.224 -206.224)" fill="#3f3d56"/><path d="M587.277,429.044V418.056h-6.62v3.465l-2.084-2.368-16.855,16.855-2.809,2.809L555.4,452.862l6.321,15.45h32.3v-31.6Z" transform="translate(-272.57 -205.167)" fill="#ccc"/><rect width="53.373" height="32.305" transform="translate(235.776 230.84)" fill="#f2f2f2"/><rect width="11.236" height="9.832" transform="translate(270.538 241.023)" fill="#3f3d56"/><rect width="9.832" height="22.473" transform="translate(256.142 240.672)" fill="#ccc"/><path d="M476.867,476.126v-3.511h-4.213v3.511h4.213Z" transform="translate(-231.962 -231.943)" fill="#3f3d56"/><path d="M476.516,485.026h-3.862v3.512h4.213v-3.512Z" transform="translate(-231.962 -238.034)" fill="#3f3d56"/><rect width="4.214" height="3.511" transform="translate(247.714 240.672)" fill="#3f3d56"/><rect width="4.214" height="3.511" transform="translate(247.714 246.992)" fill="#3f3d56"/><path d="M593.4,476.816V473.3h-4.214v3.512H593.4Z" transform="translate(-289.151 -232.281)" fill="#3f3d56"/><path d="M593.048,485.716h-3.863v3.511H593.4v-3.511Z" transform="translate(-289.151 -238.372)" fill="#3f3d56"/><rect width="4.214" height="3.511" transform="translate(307.056 241.023)" fill="#3f3d56"/><rect width="4.214" height="3.511" transform="translate(307.056 247.344)" fill="#3f3d56"/><path d="M277.131,324.733l-3.511-2.81,19.664-17.557h49.861v15.45l-32.3,21.771Z" transform="translate(-134.283 -149.373)" fill="#3f3d56"/><path d="M388.137,314.216v-9.5h-6.62v2.326l-2.471-2.677-16.152,17.557-6.32,4.214-9.8,71.6,14.779,14.779H395.9V322.626Z" transform="translate(-170.184 -149.373)" fill="#ccc"/><rect width="53.373" height="90.593" transform="translate(139.337 172.551)" fill="#f2f2f2"/><rect width="9.832" height="22.122" transform="translate(160.054 241.023)" fill="#ccc"/><path d="M289.555,482.332v-3.511h-4.213v3.511h4.213Z" transform="translate(-140.036 -234.989)" fill="#3f3d56"/><path d="M289.2,491.232h-3.863v3.512h4.213v-3.512Z" transform="translate(-140.036 -241.079)" fill="#3f3d56"/><rect width="4.214" height="3.511" transform="translate(152.328 243.833)" fill="#3f3d56"/><rect width="4.214" height="3.511" transform="translate(152.328 250.153)" fill="#3f3d56"/><path d="M346.1,482.332v-3.511h-4.213v3.511H346.1Z" transform="translate(-167.785 -234.989)" fill="#3f3d56"/><path d="M345.747,491.232h-3.863v3.512H346.1v-3.512Z" transform="translate(-167.785 -241.079)" fill="#3f3d56"/><rect width="4.214" height="3.511" transform="translate(181.122 243.833)" fill="#3f3d56"/><rect width="4.214" height="3.511" transform="translate(181.122 250.153)" fill="#3f3d56"/><path d="M404.018,344.424v-3.511h-4.213v3.511h4.213Z" transform="translate(-196.21 -167.308)" fill="#3f3d56"/><path d="M403.668,353.325h-3.863v3.511h4.213v-3.511Z" transform="translate(-196.21 -173.399)" fill="#3f3d56"/><rect width="4.214" height="3.511" transform="translate(210.617 173.605)" fill="#3f3d56"/><rect width="4.214" height="3.511" transform="translate(210.617 179.926)" fill="#3f3d56"/><path d="M404.018,383.039v-3.512h-4.213v3.512h4.213Z" transform="translate(-196.21 -186.259)" fill="#3f3d56"/><path d="M403.668,391.939h-3.863v3.511h4.213v-3.511Z" transform="translate(-196.21 -192.35)" fill="#3f3d56"/><rect width="4.214" height="3.511" transform="translate(210.617 193.269)" fill="#3f3d56"/><rect width="4.214" height="3.511" transform="translate(210.617 199.589)" fill="#3f3d56"/><path d="M404.018,421.653v-3.512h-4.213v3.512h4.213Z" transform="translate(-196.21 -205.209)" fill="#3f3d56"/><path d="M403.668,430.553h-3.863v3.511h4.213v-3.511Z" transform="translate(-196.21 -211.3)" fill="#3f3d56"/><rect width="4.214" height="3.511" transform="translate(210.617 212.932)" fill="#3f3d56"/><rect width="4.214" height="3.511" transform="translate(210.617 219.253)" fill="#3f3d56"/><path d="M404.018,460.267v-3.512h-4.213v3.512h4.213Z" transform="translate(-196.21 -224.159)" fill="#3f3d56"/><path d="M403.668,469.167h-3.863v3.511h4.213v-3.511Z" transform="translate(-196.21 -230.251)" fill="#3f3d56"/><rect width="4.214" height="3.511" transform="translate(210.617 232.596)" fill="#3f3d56"/><rect width="4.214" height="3.511" transform="translate(210.617 238.916)" fill="#3f3d56"/><rect width="40.732" height="8.427" transform="translate(145.306 177.116)" fill="#3f3d56"/><rect width="40.732" height="8.427" transform="translate(145.306 193.971)" fill="#3f3d56"/><rect width="40.732" height="8.427" transform="translate(145.306 210.825)" fill="#3f3d56"/><rect width="40.732" height="8.427" transform="translate(145.306 227.68)" fill="#3f3d56"/><path d="M680.131,324.733l-3.511-2.81,19.664-17.557h49.861v15.45l-32.3,21.771Z" transform="translate(-332.062 -149.373)" fill="#3f3d56"/><path d="M791.137,314.216v-9.5h-6.62v2.326l-2.471-2.677-16.152,17.557-6.32,4.214-9.8,71.6,14.779,14.779H798.9V322.626Z" transform="translate(-367.963 -149.373)" fill="#ccc"/><rect width="53.373" height="90.593" transform="translate(344.558 172.551)" fill="#f2f2f2"/><rect width="9.832" height="22.122" transform="translate(365.275 241.023)" fill="#ccc"/><path d="M692.555,482.332v-3.511h-4.213v3.511h4.213Z" transform="translate(-337.814 -234.989)" fill="#3f3d56"/><path d="M692.2,491.232h-3.863v3.512h4.213v-3.512Z" transform="translate(-337.814 -241.079)" fill="#3f3d56"/><rect width="4.214" height="3.511" transform="translate(357.55 243.833)" fill="#3f3d56"/><rect width="4.214" height="3.511" transform="translate(357.55 250.153)" fill="#3f3d56"/><path d="M749.1,482.332v-3.511h-4.213v3.511H749.1Z" transform="translate(-365.563 -234.989)" fill="#3f3d56"/><path d="M748.747,491.232h-3.862v3.512H749.1v-3.512Z" transform="translate(-365.563 -241.079)" fill="#3f3d56"/><rect width="4.214" height="3.511" transform="translate(386.344 243.833)" fill="#3f3d56"/><rect width="4.214" height="3.511" transform="translate(386.344 250.153)" fill="#3f3d56"/><path d="M807.018,344.424v-3.511H802.8v3.511h4.213Z" transform="translate(-393.989 -167.308)" fill="#3f3d56"/><path d="M806.668,353.325H802.8v3.511h4.213v-3.511Z" transform="translate(-393.989 -173.399)" fill="#3f3d56"/><rect width="4.214" height="3.511" transform="translate(415.839 173.605)" fill="#3f3d56"/><rect width="4.214" height="3.511" transform="translate(415.839 179.926)" fill="#3f3d56"/><path d="M807.018,383.039v-3.512H802.8v3.512h4.213Z" transform="translate(-393.989 -186.259)" fill="#3f3d56"/><path d="M806.668,391.939H802.8v3.511h4.213v-3.511Z" transform="translate(-393.989 -192.35)" fill="#3f3d56"/><rect width="4.214" height="3.511" transform="translate(415.839 193.269)" fill="#3f3d56"/><rect width="4.214" height="3.511" transform="translate(415.839 199.589)" fill="#3f3d56"/><path d="M807.018,421.653v-3.512H802.8v3.512h4.213Z" transform="translate(-393.989 -205.209)" fill="#3f3d56"/><path d="M806.668,430.553H802.8v3.511h4.213v-3.511Z" transform="translate(-393.989 -211.3)" fill="#3f3d56"/><rect width="4.214" height="3.511" transform="translate(415.839 212.932)" fill="#3f3d56"/><rect width="4.214" height="3.511" transform="translate(415.839 219.253)" fill="#3f3d56"/><path d="M807.018,460.267v-3.512H802.8v3.512h4.213Z" transform="translate(-393.989 -224.159)" fill="#3f3d56"/><path d="M806.668,469.167H802.8v3.511h4.213v-3.511Z" transform="translate(-393.989 -230.251)" fill="#3f3d56"/><rect width="4.214" height="3.511" transform="translate(415.839 232.596)" fill="#3f3d56"/><rect width="4.214" height="3.511" transform="translate(415.839 238.916)" fill="#3f3d56"/><rect width="40.732" height="8.427" transform="translate(350.528 177.116)" fill="#3f3d56"/><rect width="40.732" height="8.427" transform="translate(350.528 193.971)" fill="#3f3d56"/><rect width="40.732" height="8.427" transform="translate(350.528 210.825)" fill="#3f3d56"/><rect width="40.732" height="8.427" transform="translate(350.528 227.68)" fill="#3f3d56"/><rect width="458" height="1.018" transform="translate(0 262.794)" fill="#3f3d56"/><rect width="1.018" height="40.23" transform="translate(128.327 222.565)" fill="#3f3d56"/><path d="M284.78,613.593c.065,14.067-9.832,25.517-9.832,25.517s-10-11.358-10.067-25.425,9.832-25.517,9.832-25.517S284.715,599.526,284.78,613.593Z" transform="translate(-146.035 -385.902)" fill="#559aff"/><rect width="1.018" height="40.23" transform="translate(230.174 222.565)" fill="#3f3d56"/><path d="M484.78,613.593c.065,14.067-9.832,25.517-9.832,25.517s-10-11.358-10.067-25.425,9.832-25.517,9.832-25.517S484.715,599.526,484.78,613.593Z" transform="translate(-244.188 -385.902)" fill="#559aff"/><rect width="1.018" height="40.23" transform="translate(433.359 222.565)" fill="#3f3d56"/><path d="M883.78,613.593c.065,14.067-9.832,25.517-9.832,25.517s-10-11.358-10.067-25.425,9.832-25.517,9.832-25.517S883.715,599.526,883.78,613.593Z" transform="translate(-440.003 -385.902)" fill="#559aff"/><ellipse cx="19.351" cy="4.354" rx="19.351" ry="4.354" transform="translate(230.825 81.906)" fill="#559aff"/><path d="M618.813,213.378c0,12.375-22.406,47.359-22.406,47.359S574,225.753,574,213.378a22.406,22.406,0,0,1,44.813,0Z" transform="translate(-346.74 -187.972)" fill="#559aff"/><circle cx="12.731" cy="12.731" r="12.731" transform="translate(236.935 12.676)" fill="#f2f2f2"/></g></g></svg>