<svg xmlns="http://www.w3.org/2000/svg" xmlns:xlink="http://www.w3.org/1999/xlink" width="523.397" height="508.084" viewBox="0 0 523.397 508.084"><defs><linearGradient id="a" x1="0.5" y1="1" x2="0.5" gradientUnits="objectBoundingBox"><stop offset="0" stop-color="gray" stop-opacity="0.251"/><stop offset="0.54" stop-color="gray" stop-opacity="0.122"/><stop offset="1" stop-color="gray" stop-opacity="0.102"/></linearGradient><linearGradient id="i" x1="0.5" y1="1" x2="0.5" gradientUnits="objectBoundingBox"><stop offset="0" stop-color="gray" stop-opacity="0.251"/><stop offset="0.535" stop-color="gray" stop-opacity="0.122"/><stop offset="1" stop-color="gray" stop-opacity="0.102"/></linearGradient><linearGradient id="r" x1="0.444" y1="2.08" x2="0.444" y2="0.698" xlink:href="#a"/><linearGradient id="s" x1="0.027" y1="4.202" x2="0.027" y2="3.205" xlink:href="#a"/><linearGradient id="t" x1="0.684" y1="0.372" x2="0.684" y2="-0.628" xlink:href="#a"/><linearGradient id="u" x1="1.326" y1="-2.088" x2="1.326" y2="-3.089" xlink:href="#a"/><linearGradient id="w" x1="-8.568" x2="-8.568" y2="0" xlink:href="#a"/><linearGradient id="x" y2="0" xlink:href="#a"/></defs><g transform="translate(-4910.549 1081)"><g transform="translate(4910.549 -958.879)"><path d="M133.557,222.047c11.057,30.925-3.048,66.545-19.654,93.4-5.56,8.988-11.693,18.42-12.453,29.7-.927,13.8,6.612,26.486,15.569,34.776,16.33,15.111,38.632,19.8,58.062,12.162,16.794-6.586,30.915-21.468,47.849-27.465,28.341-10.041,58.359,6.607,82.614,27.351,17.164,14.678,35.552,32.525,56.275,29.388,14.59-2.2,26.928-14.871,35.318-29.784,4.049-7.2,7.571-15.267,13.475-20.123a30.094,30.094,0,0,1,11.745-5.513c37.616-9.958,77.534,14.34,114.634,1.845,25.068-8.441,45.061-32.983,57.489-61.225s18.237-60.151,23.062-91.759c3.434-22.463,6.284-46.7-1.61-67.363a58.88,58.88,0,0,0-47.109-37.595c-19.43-2.48-38.913,4.387-56.8,14.069-22.364,12.11-44.29,29.06-68.692,29.117-16.622.036-32.473-7.858-48.37-13.881-26.574-10.067-54.191-15.069-81.739-19.686-26.361-4.424-52.987-8.53-79.5-5.919-18.758,1.85-35.338,10.729-53.544,14.835-11.87,2.678-23.8.688-35.432,5.211-14.345,5.555-29.1,18.435-29.888,38.7C114.079,191.554,127.69,205.639,133.557,222.047Z" transform="translate(-101.371 -88.601)" fill="#559aff" opacity="0.1"/><path d="M839.212,71.982a1.318,1.318,0,0,1-.735-1.589.637.637,0,0,0,.026-.146h0a.662.662,0,0,0-1.188-.438h0a.628.628,0,0,0-.073.13,1.318,1.318,0,0,1-1.589.735.631.631,0,0,0-.146-.026h0a.662.662,0,0,0-.438,1.188h0a.628.628,0,0,0,.13.073,1.318,1.318,0,0,1,.75,1.579.634.634,0,0,0-.026.146h0a.662.662,0,0,0,1.188.438h0a.631.631,0,0,0,.073-.13,1.318,1.318,0,0,1,1.589-.735.631.631,0,0,0,.146.026h0a.662.662,0,0,0,.438-1.188h0A.632.632,0,0,0,839.212,71.982Z" transform="translate(-452.641 -69.547)" fill="#559aff"/><path d="M575.212,133.982a1.318,1.318,0,0,1-.735-1.589.627.627,0,0,0,.026-.146h0a.662.662,0,0,0-1.188-.438h0a.631.631,0,0,0-.073.13,1.318,1.318,0,0,1-1.589.735.629.629,0,0,0-.146-.026h0a.662.662,0,0,0-.438,1.188h0a.625.625,0,0,0,.13.073,1.318,1.318,0,0,1,.735,1.589.627.627,0,0,0-.026.146h0a.662.662,0,0,0,1.188.438h0a.631.631,0,0,0,.073-.13,1.318,1.318,0,0,1,1.589-.735.632.632,0,0,0,.146.026h0a.662.662,0,0,0,.438-1.188h0A.629.629,0,0,0,575.212,133.982Z" transform="translate(-326.202 -99.241)" fill="#559aff"/><circle cx="2.147" cy="2.147" r="2.147" transform="translate(427.375 81.986)" fill="#559aff"/><rect width="1.063" height="6.008" transform="translate(98.074 173.109)" fill="#559aff"/><rect width="1.063" height="6.008" transform="translate(101.612 175.579) rotate(90)" fill="#559aff"/><rect width="1.063" height="6.008" transform="translate(443.017 23.564)" fill="#559aff"/><rect width="1.063" height="6.008" transform="translate(446.555 26.034) rotate(90)" fill="#559aff"/><rect width="1.063" height="6.008" transform="translate(165.812 73.065)" fill="#559aff"/><rect width="1.063" height="6.008" transform="translate(169.35 75.535) rotate(90)" fill="#559aff"/><rect width="1.063" height="6.008" transform="translate(299.204 18.353)" fill="#559aff"/><rect width="1.063" height="6.008" transform="translate(302.742 20.823) rotate(90)" fill="#559aff"/><rect width="1.063" height="6.008" transform="translate(453.959 122.566)" fill="#559aff"/><rect width="1.063" height="6.008" transform="translate(457.497 125.036) rotate(90)" fill="#559aff"/><path d="M370.889,94.93a1.3,1.3,0,0,1-.724-1.563.627.627,0,0,0,.026-.146h0a.651.651,0,0,0-1.167-.459h0a.627.627,0,0,0-.073.13,1.3,1.3,0,0,1-1.563.724.625.625,0,0,0-.146-.026h0a.651.651,0,0,0-.432,1.172h0a.625.625,0,0,0,.13.073,1.3,1.3,0,0,1,.724,1.563.629.629,0,0,0-.026.146h0a.651.651,0,0,0,1.172.432h0a.627.627,0,0,0,.073-.13,1.3,1.3,0,0,1,1.563-.724.626.626,0,0,0,.146.026h0a.651.651,0,0,0,.432-1.172h0A.623.623,0,0,0,370.889,94.93Z" transform="translate(-228.374 -80.542)" fill="#559aff"/><path d="M276.744,273.17a1.3,1.3,0,0,1-.724-1.563.625.625,0,0,0,.026-.146h0a.651.651,0,0,0-1.172-.432h0a.626.626,0,0,0-.073.13,1.3,1.3,0,0,1-1.563.724.625.625,0,0,0-.146-.026h0a.651.651,0,0,0-.432,1.172h0a.628.628,0,0,0,.13.073,1.3,1.3,0,0,1,.724,1.563.624.624,0,0,0-.026.146h0a.651.651,0,0,0,1.172.432h0a.629.629,0,0,0,.073-.13,1.3,1.3,0,0,1,1.563-.724.624.624,0,0,0,.146.026h0a.651.651,0,0,0,.432-1.172h0A.623.623,0,0,0,276.744,273.17Z" transform="translate(-183.282 -165.918)" fill="#559aff"/><circle cx="2.121" cy="2.121" r="2.121" transform="translate(36.922 94.012)" fill="#559aff"/><circle cx="2.121" cy="2.121" r="2.121" transform="translate(69.66 26.513)" fill="#559aff"/><circle cx="2.147" cy="2.147" r="2.147" transform="translate(436.488 172.192)" fill="#559aff"/></g><g transform="translate(4925.764 -1081)"><g transform="translate(0 0)"><g transform="translate(0.362 2.707)" opacity="0.5"><circle cx="50.601" cy="50.601" r="50.601" fill="url(#a)"/></g><circle cx="49.531" cy="49.531" r="49.531" transform="translate(1.432 3.502)" fill="#f5f5f5"/><path d="M289.622,282.882a49.3,49.3,0,0,0,27.228-8.148c-1.825-9.973-8.772-10.545-8.772-10.545h-38.3s-6.549.537-8.6,9.715a49.3,49.3,0,0,0,28.442,8.977Z" transform="translate(-238.519 -180.178)" fill="#559aff"/><circle cx="21.958" cy="21.958" r="21.958" transform="translate(28.625 29.983)" fill="#333"/><path d="M98.18,164.57H113.5v12.256a7.658,7.658,0,0,1-7.658,7.658h0a7.659,7.659,0,0,1-7.658-7.658V164.57Z" transform="translate(-55.312 -92.714)" opacity="0.1"/><path d="M99.648,163.27h12.4a1.463,1.463,0,0,1,1.463,1.463v10.793a7.658,7.658,0,0,1-7.658,7.658h0a7.658,7.658,0,0,1-7.658-7.658V164.733a1.463,1.463,0,0,1,1.458-1.463Z" transform="translate(-55.317 -91.981)" fill="#be7c5e"/><path d="M307.53,247.228a22.05,22.05,0,0,0,15.321.044V245.39H307.53Z" transform="translate(-264.631 -169.587)" opacity="0.1"/><circle cx="21.958" cy="21.958" r="21.958" transform="translate(28.625 34.751)" fill="#be7c5e"/><path d="M268.487,145.506a3.835,3.835,0,0,1,1.432-2.484,4.079,4.079,0,0,1,2.284-.293c6.069.332,12.086-1.052,17.989-2.5,3.375-.825,6.986-1.829,9.169-4.55s-.664-11.269-3.986-12.278c-2.183-.668-4.716.576-6.785-.4a13.173,13.173,0,0,1-2.393-1.891,14.386,14.386,0,0,0-5.746-2.336c-2.367-.585-4.925-1.157-7.174-.218-1.747.725-3.021,2.257-4.676,3.166-3.148,1.747-6.986.934-10.593.926-1.218,0-2.672.245-3.157,1.362a5.574,5.574,0,0,0-.031,2.449c.1,2.62-2.057,4.659-3.869,6.549s-3.524,4.589-2.38,6.938c.437.9,1.236,1.572,1.69,2.458.782,1.537.389,3.393.672,5.091a12.811,12.811,0,0,0,1.428,3.668c1.345,2.62,8.1,16.723,11.2,13.138,1.5-1.747,1.747-6.794,2.353-9.064Q267.178,150.344,268.487,145.506Z" transform="translate(-231.208 -97.853)" fill="#333"/><ellipse cx="2.043" cy="3.829" rx="2.043" ry="3.829" transform="translate(32.918 52.081)" fill="#be7c5e"/><g transform="translate(117.536 112.838)" opacity="0.5"><circle cx="50.601" cy="50.601" r="50.601" fill="url(#a)"/></g><circle cx="49.531" cy="49.531" r="49.531" transform="translate(118.702 113.585)" fill="#fff"/><path d="M557.976,535.132a49.3,49.3,0,0,0,27.211-8.148c-1.825-9.973-8.772-10.545-8.772-10.545H538.131s-6.549.537-8.6,9.715A49.3,49.3,0,0,0,557.976,535.132Z" transform="translate(-389.699 -322.288)" fill="#559aff"/><circle cx="23.91" cy="23.91" r="23.91" transform="translate(143.843 138.163)" fill="#f36986"/><path d="M366.53,416.8h15.321v12.256a7.659,7.659,0,0,1-7.659,7.659h0a7.659,7.659,0,0,1-7.659-7.659V416.8Z" transform="translate(-206.492 -234.813)" opacity="0.1"/><path d="M368,415.5h12.4a1.463,1.463,0,0,1,1.463,1.463v10.793a7.659,7.659,0,0,1-7.659,7.658h0a7.658,7.658,0,0,1-7.658-7.658V416.963A1.463,1.463,0,0,1,368,415.5Z" transform="translate(-206.498 -234.08)" fill="#fdb797"/><path d="M575.88,499.458a22.05,22.05,0,0,0,15.321.044V497.62H575.88Z" transform="translate(-415.811 -311.685)" opacity="0.1"/><circle cx="21.958" cy="21.958" r="21.958" transform="translate(145.795 144.883)" fill="#fdb797"/><circle cx="8.837" cy="8.837" r="8.837" transform="translate(158.885 128.915)" fill="#f36986"/><circle cx="5.803" cy="5.803" r="5.803" transform="translate(161.92 123.248)" fill="#f36986"/><path d="M577.454,383.79a8.837,8.837,0,0,1-4.606-11.3c-.061.122-.122.249-.179.375A8.839,8.839,0,1,0,588.8,380.1c.057-.127.109-.253.162-.384A8.837,8.837,0,0,1,577.454,383.79Z" transform="translate(-413.565 -241.191)" fill="#f36986"/><path d="M557.67,401s9.252,18.775,35.367,7.859l-6.078-9.532-10.772-3.869Z" transform="translate(-405.552 -254.132)" opacity="0.1"/><path d="M557.67,400.361s9.252,18.775,35.367,7.859l-6.078-9.532-10.772-3.869Z" transform="translate(-405.552 -253.771)" fill="#f36986"/><path d="M574,391.417a109.094,109.094,0,0,1,17.107,0S578.471,392.591,574,391.417Z" transform="translate(-414.752 -251.664)" fill="#333"/><path d="M594.76,353.235a5.818,5.818,0,0,0-1.31.1h.336a5.8,5.8,0,0,1,.873,11.5,5.8,5.8,0,0,0,.1-11.6Z" transform="translate(-425.71 -230.341)" fill="#f36986"/><ellipse cx="2.043" cy="3.829" rx="2.043" ry="3.829" transform="translate(143.747 162.99)" fill="#fdb797"/><ellipse cx="2.043" cy="3.829" rx="2.043" ry="3.829" transform="translate(187.668 162.99)" fill="#fdb797"/><path d="M345.22,334.149l4.283-2.209.965,3.541-2.624,1.786Z" transform="translate(-194.487 -187.005)" fill="#f36986"/><g transform="translate(117.488 0.223)" opacity="0.5"><circle cx="50.601" cy="50.601" r="50.601" fill="url(#a)"/></g><circle cx="49.531" cy="49.531" r="49.531" transform="translate(118.558 1.017)" fill="#f5f5f5"/><path d="M538.8,188.56s-5.615,27.665-8.68,26.132c0,0,29.56,25.534,55.662,0,0,0-4.6-19.5-11.234-26.132Z" transform="translate(-390.032 -137.57)" fill="#333"/><path d="M557.866,277.212a49.3,49.3,0,0,0,27.228-8.148c-1.825-9.973-8.772-10.545-8.772-10.545h-38.3s-6.549.537-8.6,9.715A49.3,49.3,0,0,0,557.866,277.212Z" transform="translate(-389.637 -176.984)" fill="#559aff"/><circle cx="21.958" cy="21.958" r="21.958" transform="translate(145.747 27.499)" fill="#333"/><path d="M366.42,158.88h15.321v12.256a7.658,7.658,0,0,1-7.645,7.658h0a7.658,7.658,0,0,1-7.658-7.658V158.88Z" transform="translate(-206.43 -89.508)" opacity="0.1"/><path d="M367.905,157.58h12.4a1.463,1.463,0,0,1,1.463,1.463v10.794a7.658,7.658,0,0,1-7.645,7.658h0a7.658,7.658,0,0,1-7.658-7.658v-10.8A1.463,1.463,0,0,1,367.905,157.58Z" transform="translate(-206.453 -88.776)" fill="#be7c5e"/><path d="M575.77,241.538a22.05,22.05,0,0,0,15.321.044V239.7H575.77Z" transform="translate(-415.75 -166.381)" opacity="0.1"/><circle cx="21.958" cy="21.958" r="21.958" transform="translate(145.747 32.263)" fill="#be7c5e"/><path d="M545.3,156.374h41.873s-3.576-16.906-19.4-15.828S545.3,156.374,545.3,156.374Z" transform="translate(-398.584 -110.493)" fill="#333"/><ellipse cx="2.043" cy="3.829" rx="2.043" ry="3.829" transform="translate(144.158 49.457)" fill="#be7c5e"/><ellipse cx="2.043" cy="3.829" rx="2.043" ry="3.829" transform="translate(187.052 49.457)" fill="#be7c5e"/><path d="M545.3,157.674h41.873s-3.576-16.906-19.4-15.828S545.3,157.674,545.3,157.674Z" transform="translate(-398.584 -111.225)" opacity="0.1"/><g transform="translate(238.112 0)" opacity="0.5"><circle cx="50.601" cy="50.601" r="50.601" fill="url(#a)"/></g><circle cx="49.531" cy="49.531" r="49.531" transform="translate(239.278 0.742)" fill="#f5f5f5"/><path d="M834.132,276.7a49.3,49.3,0,0,0,27.228-8.148c-1.829-9.977-8.772-10.549-8.772-10.549h-38.3s-6.549.537-8.6,9.715A49.3,49.3,0,0,0,834.132,276.7Z" transform="translate(-545.279 -176.691)" fill="#559aff"/><circle cx="23.91" cy="23.91" r="23.91" transform="translate(264.423 25.32)" fill="#72351c"/><path d="M642.68,158.36H658v12.256a7.659,7.659,0,0,1-7.659,7.672h0a7.658,7.658,0,0,1-7.659-7.658V158.36Z" transform="translate(-362.067 -89.215)" opacity="0.1"/><path d="M644.118,157.06h12.4a1.463,1.463,0,0,1,1.463,1.463v10.794a7.658,7.658,0,0,1-7.658,7.658h0a7.658,7.658,0,0,1-7.659-7.658V158.523a1.463,1.463,0,0,1,1.463-1.463Z" transform="translate(-362.055 -88.483)" fill="#fda57d"/><path d="M852,241.018a22.05,22.05,0,0,0,15.321.044V239.18H852Z" transform="translate(-571.369 -166.088)" opacity="0.1"/><circle cx="21.958" cy="21.958" r="21.958" transform="translate(266.375 32.04)" fill="#fda57d"/><path d="M833.82,142.561s9.252,18.775,35.367,7.859l-6.078-9.532-10.772-3.869Z" transform="translate(-561.127 -108.534)" opacity="0.1"/><path d="M833.82,141.931s9.252,18.775,35.367,7.859l-6.078-9.532-10.772-3.869Z" transform="translate(-561.127 -108.179)" fill="#72351c"/><path d="M833.039,126.615a12.684,12.684,0,0,1,3.144-5.113c4.318-4.27,11.4-5.17,15.033-10.042a2.842,2.842,0,0,1-1.31,4.008c3.493-.022,7.514-.327,9.479-3.192a6.51,6.51,0,0,1-1.1,6.873c3.083.14,6.375,2.231,6.576,5.314a6.139,6.139,0,0,1-2.842,5.174,15.627,15.627,0,0,1-5.733,2.144C850.43,133.091,829.214,138.509,833.039,126.615Z" transform="translate(-560.429 -94.135)" fill="#72351c"/><path d="M863.283,195.89H862.7L851.376,205.98c-10.916-5.109-18.924,0-18.924,0l-11.876-9.667-1.2.148a21.957,21.957,0,1,0,43.91-.563Zm-21.989,13.95c-4.27,0-7.733-.873-7.733-1.934s3.463-1.934,7.733-1.934,7.733.873,7.733,1.934-3.462,1.934-7.737,1.934Z" transform="translate(-552.992 -141.7)" fill="#72351c"/><ellipse cx="2.043" cy="3.829" rx="2.043" ry="3.829" transform="translate(264.323 50.147)" fill="#fda57d"/><ellipse cx="2.043" cy="3.829" rx="2.043" ry="3.829" transform="translate(308.243 50.147)" fill="#fda57d"/><g transform="translate(0 109.524)" opacity="0.5"><circle cx="50.601" cy="50.601" r="50.601" fill="url(#a)"/></g><circle cx="49.531" cy="49.531" r="49.531" transform="translate(1.166 110.271)" fill="#fff"/><path d="M288.764,527.542a49.3,49.3,0,0,0,27.224-8.148c-1.825-9.973-8.772-10.545-8.772-10.545H268.9s-6.549.537-8.6,9.715a49.3,49.3,0,0,0,28.464,8.977Z" transform="translate(-238.023 -318.012)" fill="#559aff"/><circle cx="23.91" cy="23.91" r="23.91" transform="translate(26.307 134.849)" fill="#333"/><path d="M97.34,409.21h15.321v12.256A7.659,7.659,0,0,1,105,429.125h0a7.659,7.659,0,0,1-7.659-7.659V409.21Z" transform="translate(-54.838 -230.537)" opacity="0.1"/><path d="M98.8,407.9h12.4a1.463,1.463,0,0,1,1.463,1.463v10.8A7.659,7.659,0,0,1,105,427.828h0a7.659,7.659,0,0,1-7.663-7.659V409.363A1.463,1.463,0,0,1,98.8,407.9Z" transform="translate(-54.838 -229.799)" fill="#fdb797"/><path d="M306.69,491.851a22.051,22.051,0,0,0,15.321.044V490H306.69Z" transform="translate(-264.158 -307.393)" opacity="0.1"/><circle cx="21.958" cy="21.958" r="21.958" transform="translate(28.259 141.569)" fill="#fdb797"/><path d="M288.48,393.4s9.252,18.775,35.367,7.859l-6.078-9.532L307,387.86Z" transform="translate(-253.899 -249.85)" opacity="0.1"/><path d="M288.48,392.771s9.252,18.775,35.367,7.859l-6.078-9.532L307,387.23Z" transform="translate(-253.899 -249.495)" fill="#333"/><path d="M287.7,377.445a12.683,12.683,0,0,1,3.144-5.113c4.318-4.27,11.4-5.17,15.033-10.043a2.842,2.842,0,0,1-1.31,4.008c3.493-.022,7.514-.327,9.479-3.192a6.51,6.51,0,0,1-1.1,6.873c3.083.14,6.375,2.231,6.576,5.314a6.139,6.139,0,0,1-2.842,5.174,15.834,15.834,0,0,1-5.737,2.161C305.085,383.929,283.874,389.348,287.7,377.445Z" transform="translate(-253.201 -235.445)" fill="#333"/><ellipse cx="2.043" cy="3.829" rx="2.043" ry="3.829" transform="translate(26.207 159.676)" fill="#fdb797"/><ellipse cx="2.043" cy="3.829" rx="2.043" ry="3.829" transform="translate(70.127 159.676)" fill="#fdb797"/><g transform="translate(239.998 115.135)" opacity="0.5"><circle cx="50.601" cy="50.601" r="50.601" fill="url(#a)"/></g><circle cx="49.531" cy="49.531" r="49.531" transform="translate(241.068 115.93)" fill="#fff"/><path d="M838.446,540.392a49.3,49.3,0,0,0,27.228-8.148C863.85,522.272,856.9,521.7,856.9,521.7H818.6s-6.549.537-8.6,9.715A49.3,49.3,0,0,0,838.446,540.392Z" transform="translate(-547.708 -325.251)" fill="#559aff"/><path d="M647,422.06h15.321v12.256a7.658,7.658,0,0,1-7.658,7.659h0A7.659,7.659,0,0,1,647,434.316Z" transform="translate(-364.5 -237.776)" opacity="0.1"/><path d="M648.463,420.76h12.4a1.463,1.463,0,0,1,1.463,1.463v10.793a7.658,7.658,0,0,1-7.658,7.658h0A7.658,7.658,0,0,1,647,433.016V422.223a1.463,1.463,0,0,1,1.463-1.463Z" transform="translate(-364.5 -237.044)" fill="#fdb797"/><path d="M856.35,504.718a22.05,22.05,0,0,0,15.321.044V502.88H856.35Z" transform="translate(-573.82 -314.649)" opacity="0.1"/><circle cx="21.958" cy="21.958" r="21.958" transform="translate(268.257 147.179)" fill="#fdb797"/><ellipse cx="2.043" cy="3.829" rx="2.043" ry="3.829" transform="translate(266.667 164.369)" fill="#fdb797"/><ellipse cx="2.043" cy="3.829" rx="2.043" ry="3.829" transform="translate(309.562 164.369)" fill="#fdb797"/><rect width="9.392" height="4.698" rx="2.349" transform="translate(276.837 169.242)" fill="none" stroke="#333" stroke-miterlimit="10" stroke-width="2"/><rect width="9.392" height="4.698" rx="2.349" transform="translate(303.598 173.936) rotate(180)" fill="none" stroke="#333" stroke-miterlimit="10" stroke-width="2"/><path d="M864,459.5s2.978-1.616,8.514,0" transform="translate(-578.13 -289.807)" fill="none" stroke="#333" stroke-miterlimit="10" stroke-width="2"/><path d="M908.72,422.7l5.388,12.518S920.7,426.913,908.72,422.7Z" transform="translate(-603.324 -269.478)" fill="#858585"/><line y1="7.183" x2="8.043" transform="translate(303.598 164.409)" stroke-width="2" stroke="#333" stroke-linecap="round" stroke-linejoin="round" fill="none"/><path d="M829.915,422.7l-5.388,12.518S817.938,426.913,829.915,422.7Z" transform="translate(-554.873 -269.478)" fill="#858585"/><line x1="8.152" y1="7.183" transform="translate(268.685 164.409)" stroke-width="2" stroke="#333" stroke-linecap="round" stroke-linejoin="round" fill="none"/><g transform="translate(0.362 223.279)" opacity="0.5"><circle cx="50.601" cy="50.601" r="50.601" fill="url(#a)"/></g><circle cx="49.531" cy="49.531" r="49.531" transform="translate(1.432 224.074)" fill="#fff"/><path d="M320.16,673.118c0,18.242-11.9,38.55-26.586,38.55S267,691.36,267,673.118s11.9-27.508,26.586-27.508S320.16,654.88,320.16,673.118Z" transform="translate(-241.798 -395.059)" fill="#fdd835"/><path d="M289.622,788.082a49.3,49.3,0,0,0,27.228-8.148c-1.825-9.973-8.772-10.545-8.772-10.545h-38.3s-6.549.537-8.6,9.715A49.3,49.3,0,0,0,289.622,788.082Z" transform="translate(-238.519 -464.793)" fill="#559aff"/><path d="M98.18,669.74H113.5V682a7.659,7.659,0,0,1-7.658,7.659h0A7.659,7.659,0,0,1,98.184,682V669.74Z" transform="translate(-55.312 -377.311)" opacity="0.1"/><path d="M99.648,668.44h12.4a1.463,1.463,0,0,1,1.463,1.463V680.7a7.658,7.658,0,0,1-7.658,7.658h0A7.658,7.658,0,0,1,98.19,680.7V669.9A1.463,1.463,0,0,1,99.648,668.44Z" transform="translate(-55.317 -376.579)" fill="#fdb797"/><path d="M307.53,752.4a22.051,22.051,0,0,0,15.321.044V750.56H307.53Z" transform="translate(-264.631 -454.184)" opacity="0.1"/><circle cx="21.958" cy="21.958" r="21.958" transform="translate(28.625 255.324)" fill="#fdb797"/><ellipse cx="2.043" cy="3.829" rx="2.043" ry="3.829" transform="translate(27.036 272.514)" fill="#fdb797"/><ellipse cx="2.043" cy="3.829" rx="2.043" ry="3.829" transform="translate(69.931 272.514)" fill="#fdb797"/><path d="M280.57,663.654s12.413,16.989,40.882,11.186c0,0,3.179-3.869-4.558-15.745S287.613,649.153,280.57,663.654Z" transform="translate(-249.443 -398.283)" opacity="0.1"/><path d="M280.57,663.024s12.413,16.989,40.882,11.187c0,0,3.179-3.869-4.558-15.745S287.613,648.523,280.57,663.024Z" transform="translate(-249.443 -397.928)" fill="#fdd835"/><g transform="translate(120.571 229.082)" opacity="0.5"><circle cx="50.601" cy="50.601" r="50.601" fill="url(#a)"/></g><path d="M49.531,0A49.531,49.531,0,1,1,0,49.531,49.531,49.531,0,0,1,49.531,0Z" transform="translate(121.741 229.829)" fill="#fff"/><path d="M592.132,684.275c0,16.478-11.837,24.587-27.211,24.587s-28.451-8.108-28.451-24.587S548.931,654.44,564.3,654.44,592.132,667.783,592.132,684.275Z" transform="translate(-393.609 -400.033)" fill="#333"/><path d="M564.932,801.362a49.3,49.3,0,0,0,27.233-8.148c-1.825-9.973-8.772-10.545-8.772-10.545h-38.3s-6.549.537-8.6,9.715a49.305,49.305,0,0,0,28.442,8.977Z" transform="translate(-393.62 -472.274)" fill="#559aff"/><path d="M373.473,683h15.321v12.256a7.659,7.659,0,0,1-7.676,7.672h0a7.659,7.659,0,0,1-7.659-7.658V683Z" transform="translate(-210.396 -384.782)" opacity="0.1"/><path d="M374.931,681.724h12.4a1.463,1.463,0,0,1,1.463,1.463v10.794a7.659,7.659,0,0,1-7.672,7.659h0a7.659,7.659,0,0,1-7.659-7.659v-10.8a1.463,1.463,0,0,1,1.463-1.463Z" transform="translate(-210.396 -384.061)" fill="#fda57d"/><path d="M582.84,765.688a22.049,22.049,0,0,0,15.321.044V763.85H582.84Z" transform="translate(-419.732 -461.671)" opacity="0.1"/><circle cx="21.958" cy="21.958" r="21.958" transform="translate(148.834 261.122)" fill="#fda57d"/><path d="M542.48,690.675s13.675-1.659,24.015-14.915c0,0,13.675,15.055,23.2,13.4,0,0,5.523-5.8,0-11.6s-9.807-13.121-17.125-12.156-16.3,1.38-20.164,4.834S542.48,690.675,542.48,690.675Z" transform="translate(-396.995 -406.158)" opacity="0.1"/><path d="M542.48,690.045s13.675-1.659,24.015-14.915c0,0,13.675,15.055,23.2,13.4,0,0,5.523-5.8,0-11.6s-9.807-13.121-17.125-12.156-16.282,1.362-20.146,4.855S542.48,690.045,542.48,690.045Z" transform="translate(-396.995 -405.803)" fill="#333"/><ellipse cx="2.043" cy="3.829" rx="2.043" ry="3.829" transform="translate(146.782 279.234)" fill="#fda57d"/><ellipse cx="2.043" cy="3.829" rx="2.043" ry="3.829" transform="translate(190.702 279.234)" fill="#fda57d"/></g><g transform="translate(127.4 228.002)"><g transform="translate(0 76.667)"><path d="M241.629,640.925c0,6.691-3.978,9.027-8.884,9.027-.114,0-.228,0-.341,0-.227,0-.453-.015-.675-.031-4.428-.313-7.869-2.77-7.869-8.992,0-6.439,8.227-14.564,8.848-15.167h0l.036-.035S241.629,634.233,241.629,640.925Z" transform="translate(-204.269 -461.741)" fill="#3f3d56"/><path d="M241.511,648.929l3.25-4.54-3.258,5.039-.009.521c-.227,0-.453-.015-.675-.031l.35-6.694,0-.052.006-.01.033-.632-3.266-5.051,3.276,4.577.008.134.265-5.058-2.8-5.219,2.83,4.331.275-10.485v0l-.046,8.268,2.783-3.278-2.795,3.99-.073,4.528,2.6-4.346-2.61,5.013-.041,2.517,3.773-6.049-3.787,6.928Z" transform="translate(-213.359 -461.741)" fill="#f2f2f2"/><path d="M452.528,376.305c-2.374-8.616-15.553-14.967-25.837-16.606v-4.139q.285-.106.567-.219a9.148,9.148,0,0,0-.494-2.425,24.96,24.96,0,0,0,10.936-8.649,28.123,28.123,0,0,0-5.553-43.355,5.518,5.518,0,0,0-2.467-10.165,10.77,10.77,0,0,0-16.767-12.512,10.767,10.767,0,0,1,15.824,9.508c0,.095-.006.188-.008.282a10.768,10.768,0,1,0-20.875,4.028,5.385,5.385,0,0,0-3.564,7.887,28.124,28.124,0,0,0-6.858,44.73,24.964,24.964,0,0,0,10.143,8.038v6.9c-10.393,1.485-24.079,7.953-26.47,16.782-2.084,7.694-4.309,16.143-5.415,21.1,9.487,6.666,29.394,10.581,41.87,10.581,11.853,0,31.227-3.533,40.435-9.6C457,393.019,454.7,384.2,452.528,376.305Zm-19-79.587c0,.1,0,.2-.009.292a5.386,5.386,0,0,0-4.472-5q.157-.265.3-.539a5.386,5.386,0,0,1,4.183,5.249Z" transform="translate(-302.293 -235.811)" fill="url(#i)"/><path d="M419.674,557.42c11.516,0,30.338-3.432,39.284-9.329-.969-5.3-3.2-13.864-5.311-21.533-2.691-9.766-19.672-16.537-29.8-16.537h-9.762c-10.162,0-27.168,6.81-29.825,16.618-2.025,7.474-4.186,15.683-5.261,20.5C388.214,553.617,407.554,557.42,419.674,557.42Z" transform="translate(-304.428 -387.043)" fill="#559aff"/><circle cx="27.32" cy="27.32" r="27.32" transform="translate(87.741 62.195)" fill="#f55f44"/><path d="M299.97,306.181h14.294a2.139,2.139,0,0,1,2.139,2.139v14.615a8.782,8.782,0,0,1-8.782,8.782h-1.008a8.781,8.781,0,0,1-8.782-8.782V308.32a2.139,2.139,0,0,1,2.139-2.139Z" transform="translate(-192.285 -197.676)" fill="#fda57d"/><path d="M477.684,485.784a24.091,24.091,0,0,0,8.979-1.73,8.9,8.9,0,0,0-8.876-8.322h-.761a8.9,8.9,0,0,0-8.864,8.1,24.086,24.086,0,0,0,9.522,1.953Z" transform="translate(-361.994 -364.905)" opacity="0.05"/><circle cx="24.17" cy="24.17" r="24.17" transform="translate(90.939 70.218)" fill="#fda57d"/><circle cx="5.231" cy="5.231" r="5.231" transform="translate(101.692 57.545)" fill="#f55f44"/><circle cx="5.231" cy="5.231" r="5.231" transform="translate(120.292 57.545)" fill="#f55f44"/><circle cx="10.463" cy="10.463" r="10.463" transform="translate(105.179 43.594)" fill="#f55f44"/><path d="M520.744,322.1a5.207,5.207,0,0,0-2.919.89,5.229,5.229,0,0,1,4.676,9.264,5.229,5.229,0,0,0-1.757-10.154Z" transform="translate(-394.058 -265.718)" fill="#f55f44"/><path d="M487.7,281.094a10.42,10.42,0,0,0-6.654,2.388,10.462,10.462,0,0,1,11.565,17.312,10.462,10.462,0,0,0-4.91-19.7Z" transform="translate(-370.31 -239.244)" fill="#f55f44"/><path d="M444.05,355.319s2.906,19.182,39.527,8.719l-18.019-15.695Z" transform="translate(-346.428 -282.661)" fill="#f55f44"/><rect width="25.181" height="10.715" rx="5.358" transform="translate(16.028 182.511)" fill="#f36986"/><g transform="translate(191.6 171.805)" opacity="0.7"><path d="M728.541,651.663V647.8h-19.3v17.857A3.765,3.765,0,0,0,713,669.424h11.776a3.764,3.764,0,0,0,3.764-3.765V661.7a5.019,5.019,0,1,0,0-10.039Zm0,8.108v-6.177a3.089,3.089,0,1,1,0,6.178Z" transform="translate(-709.236 -647.802)" fill="url(#i)"/></g><path d="M753.61,660.4a4.583,4.583,0,1,0,4.583,4.583A4.583,4.583,0,0,0,753.61,660.4Zm0,7.4a2.82,2.82,0,1,1,2.82-2.82,2.82,2.82,0,0,1-2.82,2.82Z" transform="translate(-543.326 -484.132)" fill="#559aff"/><path d="M753.61,660.4a4.583,4.583,0,1,0,4.583,4.583A4.583,4.583,0,0,0,753.61,660.4Zm0,7.4a2.82,2.82,0,1,1,2.82-2.82,2.82,2.82,0,0,1-2.82,2.82Z" transform="translate(-543.326 -484.132)" opacity="0.1"/><path d="M543.642,487.455h17.626v16.286a3.455,3.455,0,0,1-3.455,3.455H547.1a3.455,3.455,0,0,1-3.455-3.455Z" transform="translate(-350.985 -314.71)" fill="#559aff"/><rect width="228.791" height="7.756" transform="translate(0 192.487)" fill="#e0e0e0"/><g transform="translate(65.747 136.459)" opacity="0.7"><rect width="97.298" height="56.028" rx="14.5" fill="url(#i)"/></g><rect width="93.773" height="54.994" rx="26.835" transform="translate(67.509 137.493)" fill="#535461"/><circle cx="3.173" cy="3.173" r="3.173" transform="translate(111.223 161.817)" fill="#fff"/><rect width="209.402" height="3.173" transform="translate(9.695 200.243)" fill="#e0e0e0"/><rect width="209.402" height="1.058" transform="translate(9.695 200.243)" opacity="0.1"/><path d="M746.744,650.455v16.3a3.437,3.437,0,0,1-3.437,3.437h1.763a3.437,3.437,0,0,0,3.437-3.437v-16.3Z" transform="translate(-539.633 -477.71)" opacity="0.1"/><path d="M720.5,612.551a1.029,1.029,0,0,0-.778.4c-.231.419.188.892.57,1.18a7.582,7.582,0,0,1,1.931,1.8,2.254,2.254,0,0,1,.106,2.491c-.685.929-2.32,1.129-2.479,2.273-.1.734.533,1.361,1.176,1.729,1.588.909,3.635,1.152,4.785,2.575a3.709,3.709,0,0,1,2.6-1.785c1.061-.242,2.163-.223,3.238-.387a1.119,1.119,0,0,0,.893-.474c.3-.61-.556-1.342-.26-1.954.225-.466.886-.43,1.369-.617a1.783,1.783,0,0,0,.887-2.129,4.008,4.008,0,0,0-1.516-1.969,16.984,16.984,0,0,0-6.106-2.823,15.653,15.653,0,0,0-3.246-.751A16.228,16.228,0,0,0,720.5,612.551Z" transform="translate(-524.361 -452.947)" fill="#eee"/><rect width="153.971" height="105.488" transform="translate(151.806)" fill="#535461" opacity="0.1"/><g transform="translate(165.845 10.389)" opacity="0.5"><rect width="36.245" height="33.44" rx="4.5" fill="url(#i)"/></g><rect width="35.409" height="32.629" rx="4.5" transform="translate(166.288 10.648)" fill="#f5f5f5"/><rect width="5.971" height="5.374" rx="2.687" transform="translate(169.016 16.023)" fill="#559aff"/><rect width="23.738" height="0.597" rx="0.299" transform="translate(176.779 16.023)" fill="#e0e0e0"/><rect width="23.738" height="0.597" rx="0.299" transform="translate(176.779 17.814)" fill="#e0e0e0"/><rect width="32.099" height="0.597" rx="0.299" transform="translate(168.419 24.316)" fill="#e0e0e0"/><rect width="32.099" height="0.597" rx="0.299" transform="translate(168.419 26.108)" fill="#e0e0e0"/><rect width="32.099" height="0.597" rx="0.299" transform="translate(168.419 28.496)" fill="#e0e0e0"/><rect width="18.512" height="0.597" rx="0.299" transform="translate(168.419 30.288)" fill="#e0e0e0"/><rect width="32.099" height="0.597" rx="0.299" transform="translate(168.419 32.671)" fill="#e0e0e0"/><rect width="32.099" height="0.597" rx="0.299" transform="translate(168.419 34.462)" fill="#e0e0e0"/><rect width="32.099" height="0.597" rx="0.299" transform="translate(168.419 36.851)" fill="#e0e0e0"/><rect width="18.512" height="0.597" rx="0.299" transform="translate(168.419 38.642)" fill="#e0e0e0"/><g transform="translate(171.315 18.117)" opacity="0.5"><rect width="36.245" height="33.44" rx="4.5" fill="url(#i)"/></g><rect width="35.409" height="32.629" rx="4.5" transform="translate(171.757 18.376)" fill="#fff"/><rect width="5.971" height="5.374" rx="2.687" transform="translate(174.486 23.75)" fill="#559aff"/><rect width="23.738" height="0.597" rx="0.299" transform="translate(182.249 23.75)" fill="#e0e0e0"/><rect width="23.738" height="0.597" rx="0.299" transform="translate(182.249 25.542)" fill="#e0e0e0"/><rect width="32.099" height="0.597" rx="0.299" transform="translate(173.889 32.044)" fill="#e0e0e0"/><rect width="32.099" height="0.597" rx="0.299" transform="translate(173.889 33.835)" fill="#e0e0e0"/><rect width="32.099" height="0.597" rx="0.299" transform="translate(173.889 36.224)" fill="#e0e0e0"/><rect width="18.512" height="0.597" rx="0.299" transform="translate(173.889 38.015)" fill="#e0e0e0"/><rect width="32.099" height="0.597" rx="0.299" transform="translate(173.889 40.398)" fill="#e0e0e0"/><rect width="32.099" height="0.597" rx="0.299" transform="translate(173.889 42.19)" fill="#e0e0e0"/><rect width="32.099" height="0.597" rx="0.299" transform="translate(173.889 44.578)" fill="#e0e0e0"/><rect width="18.512" height="0.597" rx="0.299" transform="translate(173.889 46.37)" fill="#e0e0e0"/><rect width="19.963" height="19.18" transform="translate(222.54 23.175)" fill="url(#i)"/><rect width="19.336" height="18.319" transform="translate(222.853 23.645)" fill="#f5f5f5"/><g transform="translate(229.194 34.527)" opacity="0.6"><rect width="6.967" height="0.939" fill="#559aff"/></g><rect width="11.899" height="0.939" transform="translate(226.571 36.249)" fill="#bdbdbd"/><g transform="translate(251.645 6.393)" opacity="0.5"><rect width="43.531" height="51.146" fill="url(#i)"/></g><rect width="41.267" height="49.191" transform="translate(252.983 7.216)" fill="#fff"/><rect width="29.02" height="1.235" transform="translate(259.158 28.798)" fill="#e0e0e0"/><rect width="29.02" height="1.235" transform="translate(259.158 36.928)" fill="#e0e0e0"/><rect width="29.02" height="1.235" transform="translate(259.158 39.089)" fill="#e0e0e0"/><rect width="12.246" height="1.235" transform="translate(259.158 34.767)" fill="#e0e0e0"/><rect width="9.159" height="1.235" transform="translate(279.019 34.767)" fill="#3ad29f" opacity="0.6"/><rect width="9.159" height="1.235" transform="translate(269.346 44.132)" fill="#559aff"/><g transform="translate(226.247 71.924)" opacity="0.5"><rect width="25.865" height="21.244" fill="url(#i)"/></g><rect width="25.212" height="20.491" transform="translate(226.548 72.326)" fill="#f2f2f2"/><rect width="25.212" height="4.57" transform="translate(226.548 72.326)" fill="#559aff"/><rect width="25.212" height="4.57" transform="translate(226.548 72.326)" opacity="0.1"/><rect width="21.194" height="2.662" transform="translate(228.557 78.553)" fill="#e0e0e0"/><rect width="15.469" height="0.904" transform="translate(228.557 83.224)" fill="#e0e0e0"/><rect width="10.045" height="0.904" transform="translate(228.557 84.781)" fill="#e0e0e0"/><rect width="13.259" height="0.904" transform="translate(228.557 86.338)" fill="#e0e0e0"/><rect width="15.469" height="0.904" transform="translate(228.557 87.895)" fill="#e0e0e0"/><rect width="5.173" height="0.904" transform="translate(228.557 89.452)" fill="#e0e0e0"/><g transform="translate(210.052 64.132)" opacity="0.5"><rect width="32.059" height="26.332" fill="url(#i)"/></g><rect width="31.25" height="25.398" transform="translate(210.425 64.63)" fill="#fff"/><rect width="31.25" height="5.665" transform="translate(210.425 64.63)" fill="#559aff"/><rect width="26.27" height="3.299" transform="translate(212.915 72.349)" fill="#f5f5f5"/><rect width="19.173" height="1.121" transform="translate(212.915 78.138)" fill="#e0e0e0"/><rect width="12.45" height="1.121" transform="translate(212.915 80.068)" fill="#e0e0e0"/><rect width="16.434" height="1.121" transform="translate(212.915 81.998)" fill="#e0e0e0"/><rect width="19.173" height="1.121" transform="translate(212.915 83.928)" fill="#e0e0e0"/><rect width="6.412" height="1.121" transform="translate(212.915 85.857)" fill="#e0e0e0"/><rect width="7.47" height="0.996" transform="translate(214.285 73.469)" fill="#69f0ae"/><circle cx="4.328" cy="4.328" r="4.328" transform="translate(162.009 125.401)" fill="#535461" opacity="0.1"/><circle cx="4.328" cy="4.328" r="4.328" transform="translate(170.048 111.488)" fill="#535461" opacity="0.1"/></g><g transform="translate(147.95 0) rotate(7)"><g transform="translate(108.454 0)" opacity="0.5"><rect width="148.11" height="107.195" transform="translate(0 146.452) rotate(-81.42)" fill="url(#r)"/></g><rect width="144.836" height="104.467" transform="translate(110.129 144.498) rotate(-81.42)" fill="#fff"/><rect width="75.398" height="4.57" transform="translate(136.122 65.467) rotate(8.58)" fill="#e0e0e0"/><rect width="75.398" height="4.57" transform="translate(134.418 76.762) rotate(8.58)" fill="#e0e0e0"/><rect width="38.842" height="4.57" transform="translate(177.721 34.772) rotate(8.58)" fill="#e0e0e0"/><rect width="31.988" height="4.57" transform="translate(179.407 46.581) rotate(8.58)" fill="#559aff"/><rect width="66.261" height="4.57" transform="translate(132.712 88.058) rotate(8.58)" fill="#e0e0e0"/><rect width="57.12" height="4.57" transform="translate(131.006 99.355) rotate(8.58)" fill="#e0e0e0"/><rect width="50.266" height="4.57" transform="translate(129.302 110.651) rotate(8.58)" fill="#e0e0e0"/><rect width="63.974" height="4.57" transform="translate(127.598 121.948) rotate(8.58)" fill="#e0e0e0"/><rect width="25.132" height="4.57" transform="translate(125.896 133.243) rotate(8.58)" fill="#559aff"/><g transform="translate(140.111 23.463)" opacity="0.5"><path d="M30.33,17.525A15.25,15.25,0,1,0,4.95,26.5v.068a5.218,5.218,0,0,0,1.545,1.353l.03-.065c.614.712,3.442,2.129,6.859,2.635h.076a13.955,13.955,0,0,0,6.8-.506s.024-.038.065-.108a5.435,5.435,0,0,0,1.569-.76l.049-.168A15.234,15.234,0,0,0,30.33,17.525Z" fill="url(#s)"/></g><circle cx="14.793" cy="14.793" r="14.793" transform="translate(138.46 50.577) rotate(-81.42)" fill="#f5f5f5"/><path d="M3.564,0S.046-.24,0,6.249A5.062,5.062,0,0,0,1.5,7.556l2.96-6.34Z" transform="translate(144.988 43.029)" fill="#fda57d"/><path d="M1.215,0S4.657.812,2.779,7.022a5.063,5.063,0,0,1-1.818.812L0,.9Z" transform="translate(158.647 44.738)" fill="#fda57d"/><path d="M3.223,0S.836,4.576,0,3.986c0,0,7.593,8.856,16.438,2.479a23.243,23.243,0,0,0-2.657-4.871Z" transform="translate(147.049 32.651)" fill="#333"/><circle cx="6.556" cy="6.556" r="6.556" transform="translate(148.489 38.552) rotate(-81.42)" fill="#333"/><path d="M13.57,1.7,2.26,0,.523,4.365s-.936,2-.3,3.039,7.52,4.218,13.259,2.165A5.966,5.966,0,0,0,14.2,5.82c-.284-2.2-.127-.173-.127-.173Z" transform="translate(146.224 43.022)" opacity="0.1"/><path d="M13.568,1.7,2.257,0,.523,4.362s-.936,2-.3,3.039,7.52,4.218,13.259,2.165a5.966,5.966,0,0,0,.72-3.748c-.284-2.2-.127-.173-.127-.173Z" transform="translate(146.378 43.046)" opacity="0.1"/><path d="M13.57,1.7,2.26,0,.523,4.365s-.936,2-.3,3.039,7.52,4.218,13.259,2.165A5.967,5.967,0,0,0,14.2,5.82c-.284-2.2-.127-.173-.127-.173Z" transform="translate(146.291 43.033)" fill="#fdd835"/><path d="M0,0H4.578V4.129A1.821,1.821,0,0,1,2.757,5.95H1.821A1.821,1.821,0,0,1,0,4.129V0Z" transform="translate(152.581 39.814) rotate(8.58)" opacity="0.1"/><path d="M0,0H4.576V4.129A1.821,1.821,0,0,1,2.755,5.95H1.821A1.821,1.821,0,0,1,0,4.129Z" transform="translate(152.606 39.647) rotate(8.58)" fill="#fda57d"/><path d="M0,.541a6.583,6.583,0,0,0,4.521.7L4.605.682.081,0Z" transform="translate(152.521 39.745)" opacity="0.1"/><circle cx="6.556" cy="6.556" r="6.556" transform="translate(148.276 39.959) rotate(-81.42)" fill="#fda57d"/><path d="M0,3.7,12.366,5.566S12.063.425,7.341.027,0,3.7,0,3.7Z" transform="translate(149.896 27.35)" fill="#333"/><ellipse cx="1.145" cy="0.609" rx="1.145" ry="0.609" transform="translate(148.655 34.258) rotate(-81.42)" fill="#fda57d"/><ellipse cx="1.145" cy="0.609" rx="1.145" ry="0.609" transform="translate(161.323 36.17) rotate(-81.42)" fill="#fda57d"/><path d="M0,3.7,12.366,5.566S12.063.425,7.341.027,0,3.7,0,3.7Z" transform="translate(149.877 27.517)" opacity="0.1"/><g transform="translate(0 21.043)" opacity="0.5"><rect width="107.5" height="148.531" transform="matrix(0.987, -0.16, 0.16, 0.987, 0, 17.151)" fill="url(#t)"/></g><path d="M0,0H104.467V144.836H0Z" transform="translate(1.436 38.799) rotate(-9.31)" fill="#fff"/><rect width="75.398" height="4.57" transform="translate(25.344 98.519) rotate(-9.31)" fill="#e0e0e0"/><rect width="75.398" height="4.57" transform="translate(27.192 109.794) rotate(-9.31)" fill="#e0e0e0"/><rect width="38.842" height="4.57" transform="translate(55.507 56.53) rotate(-9.31)" fill="#e0e0e0"/><rect width="31.988" height="4.57" transform="translate(60.735 67.25) rotate(-9.31)" fill="#559aff"/><rect width="66.261" height="4.57" transform="translate(29.04 121.067) rotate(-9.31)" fill="#e0e0e0"/><rect width="57.12" height="4.57" transform="translate(30.888 132.339) rotate(-9.31)" fill="#e0e0e0"/><rect width="50.266" height="4.57" transform="translate(32.736 143.614) rotate(-9.31)" fill="#e0e0e0"/><rect width="63.974" height="4.57" transform="translate(34.584 154.886) rotate(-9.31)" fill="#e0e0e0"/><rect width="25.132" height="4.57" transform="translate(36.434 166.161) rotate(-9.31)" fill="#559aff"/><g transform="translate(20.724 50.566)" opacity="0.5"><path d="M31.15,13.139a15.678,15.678,0,1,0-22,16.792L9.173,30a5.365,5.365,0,0,0,1.937.828v-.073c.825.5,4.04,1,7.544.414h.076a14.338,14.338,0,0,0,6.494-2.644.443.443,0,0,1,.027-.124,5.585,5.585,0,0,0,1.3-1.239v-.179A15.661,15.661,0,0,0,31.15,13.139Z" fill="url(#u)"/></g><circle cx="15.207" cy="15.207" r="15.207" transform="translate(18.941 53.69) rotate(-9.31)" fill="#f5f5f5"/><path d="M2.132,0S-1.386.879.616,7.238A5.206,5.206,0,0,0,2.5,8.05l.9-7.138Z" transform="translate(28.74 73.173)" fill="#4d8af0"/><path d="M.906,0S4.53-.293,4.651,6.38A5.206,5.206,0,0,1,3.128,7.733L0,1.255Z" transform="translate(41.568 71.269)" fill="#4d8af0"/><circle cx="6.74" cy="6.74" r="6.74" transform="translate(27.204 55.503) rotate(-9.31)" fill="#333"/><path d="M11.961,0,.358,1.894.036,6.713S-.234,8.967.7,9.782,9.391,11.535,14.34,7.7a6.134,6.134,0,0,0-.479-3.894c-.974-2.065-.181-.13-.181-.13Z" transform="translate(30.445 71.282)" fill="#4d8af0"/><path d="M11.961,0,.358,1.894.036,6.713S-.234,8.967.7,9.782,9.391,11.535,14.34,7.7a6.134,6.134,0,0,0-.479-3.894c-.974-2.065-.181-.13-.181-.13Z" transform="translate(30.6 71.258)" fill="#4d8af0"/><path d="M11.961,0,.358,1.894.036,6.721S-.234,8.975.7,9.79s8.691,1.753,13.64-2.078a6.134,6.134,0,0,0-.479-3.894c-.974-2.065-.181-.13-.181-.13Z" transform="translate(30.513 71.271)" fill="#4d8af0"/><path d="M0,0h4.7V4.294A1.821,1.821,0,0,1,2.884,6.115H1.821A1.821,1.821,0,0,1,0,4.294V0Z" transform="translate(33.801 68.737) rotate(-9.31)" opacity="0.1"/><path d="M0,0h4.7V4.294A1.821,1.821,0,0,1,2.884,6.115H1.821A1.821,1.821,0,0,1,0,4.294V0Z" transform="translate(33.773 68.565) rotate(-9.31)" fill="#fda57d"/><path d="M.092,1.318A6.765,6.765,0,0,0,4.735.571L4.641,0,0,.763Z" transform="translate(33.796 67.916)" opacity="0.1"/><circle cx="6.74" cy="6.74" r="6.74" transform="translate(27.442 56.948) rotate(-9.31)" fill="#fda57d"/><path d="M0,6.073,12.688,4S10.764-.951,6.023.164,0,6.073,0,6.073Z" transform="translate(28.433 55.124)" opacity="0.1"/><path d="M0,6.076,12.7,4S10.775-.951,6.034.164,0,6.076,0,6.076Z" transform="translate(28.404 54.951)" fill="#333"/><ellipse cx="0.63" cy="1.18" rx="0.63" ry="1.18" transform="matrix(0.987, -0.16, 0.16, 0.987, 27.893, 62.622)" fill="#fda57d"/><ellipse cx="0.628" cy="1.177" rx="0.628" ry="1.177" transform="translate(40.806 60.101) rotate(-9.31)" fill="#fda57d"/><g transform="translate(76.386 44.767)" opacity="0.5"><rect width="107.195" height="148.11" fill="url(#a)"/></g><rect width="104.467" height="144.836" transform="translate(77.75 45.858)" fill="#fff"/><g transform="translate(91.701 62.967)" opacity="0.5"><path d="M0,16.029a16.029,16.029,0,1,1,24.972,13.3v.07a5.487,5.487,0,0,1-1.818,1.158l-.022-.07c-.75.644-3.91,1.675-7.541,1.664h-.078a14.733,14.733,0,0,1-6.992-1.594s-.019-.043-.049-.122A5.707,5.707,0,0,1,6.959,29.4l-.024-.181A16.013,16.013,0,0,1,0,16.029Z" fill="url(#w)"/></g><circle cx="15.548" cy="15.548" r="15.548" transform="translate(92.18 63.448)" fill="#f5f5f5"/><path d="M2.89,0S-.815.3.165,7.065A5.322,5.322,0,0,0,1.929,8.188L4.013,1.134Z" transform="translate(98.74 84.919)" fill="#be7c5e"/><path d="M1.115,0s3.7.3,2.725,7.065A5.322,5.322,0,0,1,2.075,8.188L0,1.112Z" transform="translate(112.536 84.919)" fill="#be7c5e"/><path d="M1.01,0S.726.831.32,1.791C-.562,3.891.444,11.96,2.555,12.82a11.983,11.983,0,0,0,8.715.4C14.082,12.2,14.948,3.014,12.962.777,12.729.506,12.485.254,12.231,0Z" transform="translate(100.779 73.855)" fill="#333"/><circle cx="6.892" cy="6.892" r="6.892" transform="translate(100.847 66.484)" fill="#333"/><path d="M13.4,0H1.374L.251,4.808s-.66,2.227.16,3.206,8.477,3.206,14.106.16a6.272,6.272,0,0,0,.16-4.007c-.641-2.243-.16-.16-.16-.16Z" transform="translate(100.185 84.919)" opacity="0.1"/><path d="M13.4,0H1.374L.251,4.808s-.66,2.227.16,3.206,8.477,3.206,14.106.16a6.273,6.273,0,0,0,.16-4.007c-.641-2.243-.16-.16-.16-.16Z" transform="translate(100.339 84.919)" opacity="0.1"/><path d="M13.4,0H1.374L.251,4.808s-.66,2.227.16,3.206,8.477,3.206,14.106.16a6.272,6.272,0,0,0,.16-4.007c-.641-2.243-.16-.16-.16-.16Z" transform="translate(100.255 84.919)" fill="#3ad29f"/><path d="M0,0H4.811V4.432A1.821,1.821,0,0,1,2.99,6.253H1.821A1.821,1.821,0,0,1,0,4.432V0Z" transform="translate(105.315 80.928)" opacity="0.1"/><path d="M0,0H4.811V4.432A1.821,1.821,0,0,1,2.99,6.253H1.821A1.821,1.821,0,0,1,0,4.432V0Z" transform="translate(105.315 80.75)" fill="#be7c5e"/><path d="M0,.59a6.922,6.922,0,0,0,4.808,0V0H0Z" transform="translate(105.325 80.842)" opacity="0.1"/><circle cx="6.892" cy="6.892" r="6.892" transform="translate(100.847 67.981)" fill="#be7c5e"/><path d="M0,4.984H13.145S12.022-.325,7.054.016,0,4.984,0,4.984Z" transform="translate(101.148 67.272)" fill="#333"/><ellipse cx="0.641" cy="1.201" rx="0.641" ry="1.201" transform="translate(100.349 73.379)" fill="#be7c5e"/><ellipse cx="0.641" cy="1.201" rx="0.641" ry="1.201" transform="translate(113.814 73.379)" fill="#be7c5e"/><path d="M0,4.984H13.145S12.022-.325,7.054.016,0,4.984,0,4.984Z" transform="translate(101.148 67.448)" opacity="0.1"/><rect width="75.398" height="4.57" transform="translate(91.68 108.66)" fill="#e0e0e0"/><rect width="75.398" height="4.57" transform="translate(91.68 120.084)" fill="#e0e0e0"/><rect width="38.842" height="4.57" transform="translate(128.238 72.104)" fill="#e0e0e0"/><path d="M0,0H31.988V4.57H0Z" transform="translate(131.664 83.529)" fill="#f36986"/><rect width="66.261" height="4.57" transform="translate(91.68 131.509)" fill="#e0e0e0"/><rect width="57.12" height="4.57" transform="translate(91.68 142.933)" fill="#e0e0e0"/><rect width="50.266" height="4.57" transform="translate(91.68 154.359)" fill="#e0e0e0"/><rect width="63.974" height="4.57" transform="translate(91.68 165.783)" fill="#e0e0e0"/><rect width="25.132" height="4.57" transform="translate(91.68 177.207)" fill="#f36986"/><g transform="translate(153.516 156.708)" opacity="0.5"><circle cx="22.835" cy="22.835" r="22.835" fill="url(#x)"/></g><circle cx="21.49" cy="21.49" r="21.49" transform="translate(154.861 158.053)" fill="#69f0ae"/><path d="M3.358,9.4l8.058,7.387L22.832,0l4.032,3.358L11.416,23.5,0,10.745Z" transform="translate(163.666 167.274)" fill="#fff"/></g></g></g></g></svg>