<svg xmlns="http://www.w3.org/2000/svg" xmlns:xlink="http://www.w3.org/1999/xlink" width="494" height="392.732" viewBox="0 0 494 392.732"><defs><linearGradient id="a" x1="0.5" y1="1" x2="0.5" gradientUnits="objectBoundingBox"><stop offset="0" stop-color="gray" stop-opacity="0.251"/><stop offset="0.54" stop-color="gray" stop-opacity="0.122"/><stop offset="1" stop-color="gray" stop-opacity="0.102"/></linearGradient></defs><g transform="translate(0 -0.008)"><path d="M385.173,123.242c-31.258-1.087-61.033-11.176-89.46-22.217S239.128,77.751,208.619,71.9C189,68.14,166.553,67.609,150.745,78.128c-15.218,10.142-20.135,27.6-22.777,43.82-1.99,12.2-3.159,25.037,2.294,36.459,3.782,7.93,10.5,14.6,15.141,22.217,16.165,26.428,4.743,59.019-12.775,84.824-8.21,12.108-17.749,23.665-24.086,36.541s-9.273,27.65-3.729,40.8c5.5,13.04,18.6,22.815,32.794,29.7,28.828,13.982,62.786,17.981,95.922,20.246,73.329,5.018,147.045,2.845,220.567.671,27.21-.807,54.537-1.623,81.3-5.829,14.866-2.338,30.21-6.042,41-15,13.7-11.364,17.092-30.611,7.916-44.858-15.4-23.9-57.956-29.838-68.736-55.493-5.921-14.117.164-29.843,8.771-42.941,18.469-28.089,49.422-52.735,51.055-84.843,1.12-22.057-13.765-44.138-36.773-54.575-24.115-10.978-57.565-9.587-75.348,8.52C444.964,117.04,412.77,124.2,385.173,123.242Z" transform="translate(-95.46 -56.868)" fill="#559aff" opacity="0.1"/><path d="M240.9,539.31,75.586,538.5,59.16,499.977l58.082-4.216-10.123-42.24L222,438.63,111.992,400.389l9.717-2.309L298.6,426.937l-9.741,65.92-13.924,36.227Z" transform="translate(-30.588 -205.816)" fill="#559aff"/><path d="M187,698.671s10.142-1.623,16.228,5.544c0,0-4.463,3.516-14.064-1.352Z" transform="translate(-139.466 -382.12)" fill="#559aff"/><path d="M180.339,698.51s-6.472,7.964-3.284,16.831c0,0,5.274-2.111,5.849-12.861Z" transform="translate(-133.868 -382.118)" fill="#559aff"/><path d="M172.76,668.643s4.057-7.443,20.285,2.975c0,0-2.164,5-9.331,4.6S174.653,672.564,172.76,668.643Z" transform="translate(-132.104 -365.344)" fill="#559aff"/><path d="M160.7,670.281s-8.418-.966-9.234,18.3c0,0,5.337,1.106,9.128-4.989S162.834,674.082,160.7,670.281Z" transform="translate(-121.096 -367.519)" fill="#559aff"/><path d="M160.44,630.819s4.733-13.117,21.907-3.786c0,0-3.922,12.035-20.149,8.249Z" transform="translate(-125.734 -343.43)" fill="#559aff"/><path d="M149.52,591.237s8.925-13.253,24.747-.966c0,0-5.544,12.441-23.395,5.68Z" transform="translate(-120.088 -323.456)" fill="#559aff"/><path d="M145.6,553.427s10.413-12.176,26.08,0c0,0-9.872,10.683-26.08,3.11Z" transform="translate(-118.061 -304.308)" fill="#559aff"/><path d="M142.24,515.422s10.548-12.712,25.559-.676c0,0-11.9,11.224-25.559,3.651Z" transform="translate(-116.324 -284.428)" fill="#559aff"/><path d="M144.2,478.6s11.108-16.363,25.153-5.274c0,0-11.9,14.064-25.153,8.384Z" transform="translate(-117.337 -263.697)" fill="#559aff"/><path d="M149.52,440.372s11.765-16.228,25.423-3.786c0,0-13.929,14.064-25.423,6.762Z" transform="translate(-120.088 -244.268)" fill="#559aff"/><path d="M156.989,403.306s13.929-15.252,26.08-9.176c0,0-14.513,16.2-26.689,13.224Z" transform="translate(-123.635 -224.005)" fill="#559aff"/><path d="M166.5,367s16.073-18.681,25.423-12.441c0,0-11.842,14.489-26.563,15.938Z" transform="translate(-128.278 -203.623)" fill="#559aff"/><path d="M180.248,330.509s14.069-15.252,24.346-11.466c0,0-12.036,15.822-26.235,16.228Z" transform="translate(-134.999 -185.61)" fill="#559aff"/><path d="M194.716,294.441s15.552-14.6,22.313-12.036c0,0-11.224,16.228-22.989,15.281Z" transform="translate(-143.106 -166.822)" fill="#559aff"/><path d="M208.32,257.3s13.388-17.45,20.7-16.1c0,0-8.119,15.556-20.7,17.87Z" transform="translate(-150.489 -145.636)" fill="#559aff"/><path d="M221.778,215.774s11.833-13.373,18.227-13.344c0,0-9.341,17.87-18.715,17.706Z" transform="translate(-157.195 -125.629)" fill="#559aff"/><path d="M229.024,170.578l11.432-27.858s.57,25.182-12.886,33.025Z" transform="translate(-160.442 -94.757)" fill="#559aff"/><path d="M240.107,109.858S242,86.593,240.783,84.7c0,0,8.172,19.343-.753,35.435Z" transform="translate(-166.884 -64.759)" fill="#559aff"/><path d="M138.616,636.229s-11.852-7.346-19.526,10.625c0,0,10.548,7,20.922-6.042Z" transform="translate(-104.355 -349.149)" fill="#559aff"/><path d="M125.619,595.093s-14.537-6.631-21.589,12.132c0,0,11.229,7.728,22.912-7.389Z" transform="translate(-96.568 -328.06)" fill="#559aff"/><path d="M116.28,555.737s-10.413-12.176-26.08,0c0,0,9.872,10.683,26.08,3.11Z" transform="translate(-89.418 -305.502)" fill="#559aff"/><path d="M114.139,515.422s-10.548-12.712-25.559-.676c0,0,11.9,11.224,25.559,3.651Z" transform="translate(-88.58 -284.428)" fill="#559aff"/><path d="M119.062,476.039s-7.4-18.329-23.482-10.447c0,0,8.693,16.252,22.825,13.489Z" transform="translate(-92.199 -260.675)" fill="#559aff"/><path d="M126.115,436.1s-7.356-18.647-23.665-10c0,0,9.988,17.092,22.941,12.881Z" transform="translate(-95.751 -240.092)" fill="#559aff"/><path d="M143.311,391s-2.9-20.444-16.421-22.274c0,0,2.869,21.56,14.6,25.96Z" transform="translate(-108.387 -211.612)" fill="#559aff"/><path d="M155.251,354.471s-1.13-24.631-12.311-25.491c0,0,.377,18.7,11.05,28.978Z" transform="translate(-116.686 -191.06)" fill="#559aff"/><path d="M169.676,317.394s-3.332-20.483-14.006-22.984c0,0,1.323,19.836,12.948,28.012Z" transform="translate(-123.268 -173.186)" fill="#559aff"/><path d="M189.967,281.8s-.111-21.338-6.631-24.472c0,0-4.042,19.319,4.743,27.2Z" transform="translate(-137.092 -154.014)" fill="#559aff"/><path d="M200.859,247.276s-.913-21.97-7.665-25.066c0,0-2.309,17.387,6.655,26.505Z" transform="translate(-142.531 -135.856)" fill="#559aff"/><path d="M217.363,210.072s-.039-17.87-4.859-22.062c0,0-4.791,19.575,2.342,25.655Z" transform="translate(-151.839 -118.174)" fill="#559aff"/><path d="M222.471,166.741,217.782,137s-6.37,24.371,4.912,35.112Z" transform="translate(-154.455 -91.8)" fill="#559aff"/><path d="M218.675,113.587S206.64,93.592,206.886,91.37c0,0,1.28,20.956,16.421,31.393Z" transform="translate(-149.746 -68.208)" fill="#559aff"/><path d="M216.558,92.277s-11.359-28.4-16.5-30.7c0,0,16.228,8.249,17.445,29.886Z" transform="translate(-146.219 -52.805)" fill="#559aff"/><path d="M220.338,178.4l-.778-.237c9.587-31.263,11.978-51.195,6.737-56.193l.555-.589C232.412,126.654,230.156,146.369,220.338,178.4Z" transform="translate(-156.301 -83.724)" fill="#444053"/><path d="M165.279,310.193l-1.149-.411c1.019-2.864,2.115-5.771,3.265-8.635,10.007-24.94,18.527-48.142,23.989-65.954l1-.483c-5.472,17.846-13.842,41.936-23.859,66.91C167.38,304.431,166.289,307.324,165.279,310.193Z" transform="translate(-127.642 -142.319)" fill="#444053"/><path d="M176.911,560.166c-.155-.169-15.692-17.667-26.525-47.539a175.887,175.887,0,0,1-10.466-54.469c-.744-23.245,4.134-49.2,12.49-72.779l.908,1.063c-18.759,52.919-11.306,98.265-1.42,125.572,10.717,29.6,26.08,46.906,26.23,47.08Z" transform="translate(-115.086 -220.22)" fill="#444053"/><path d="M610.2,670.36s-10.949,13.364-2.255,33.566l-87.417,37.913-8.389,1.758-3.864-16.9,2.584-21.333V693.7Z" transform="translate(-305.573 -367.564)" fill="#d5d6db"/><path d="M59.16,585.447,180.153,563.39l160.321,25.539L240.9,624.78Z" transform="translate(-30.588 -291.287)" fill="#559aff"/><path d="M59.16,585.447,180.153,563.39l160.321,25.539L240.9,624.78Z" transform="translate(-30.588 -291.287)" fill="#559aff"/><path d="M142.864,652.47s-11.316,21.439,1.724,41.241L324.011,732.59s-11.137-17.078.575-40.782Z" transform="translate(-114.291 -358.314)" fill="#559aff"/><path d="M142.864,652.47s-11.316,21.439,1.724,41.241L324.011,732.59s-11.137-17.078.575-40.782Z" transform="translate(-114.291 -358.314)" opacity="0.1"/><path d="M155.733,667.86s-6.467,15.687,0,25.839" transform="translate(-121.814 -366.271)" opacity="0.1"/><path d="M330.733,772.6,430.9,729.86s5.6,1.207,1.98,5.313-100.216,41.535-100.216,41.535L151.31,733.724Z" transform="translate(-121.013 -398.327)" fill="#559aff"/><path d="M330.733,772.6,430.9,729.86s5.6,1.207,1.98,5.313-100.216,41.535-100.216,41.535L151.31,733.724Z" transform="translate(-121.013 -398.327)" opacity="0.1"/><path d="M501.214,742.86s-9.659,11.591,0,28.978" transform="translate(-299.705 -405.049)" opacity="0.1"/><rect width="45.674" height="0.483" transform="translate(204.948 352.069) rotate(-18.45)" opacity="0.1"/><rect width="55.652" height="0.483" transform="translate(204.931 355.958) rotate(-20.82)" opacity="0.1"/><rect width="64.505" height="0.483" transform="translate(205.222 360.541) rotate(-22.26)" opacity="0.1"/><rect width="74.252" height="0.483" transform="translate(205.918 364.583) rotate(-24.31)" opacity="0.1"/><rect width="81.211" height="0.483" transform="matrix(0.916, -0.401, 0.401, 0.916, 206.455, 366.55)" opacity="0.1"/><rect width="97.183" height="0.483" transform="translate(207.579 369.853) rotate(-23.36)" opacity="0.1"/><path d="M152.23,594.81l85-17.87,51.784,9.9L219.363,609.3Z" transform="translate(-78.708 -298.292)" fill="#fff" opacity="0.3"/><path d="M623.593,659.69s4.395,1.773,1.816,4.511S524,695.541,524,695.541Z" transform="translate(-313.706 -362.047)" fill="#559aff"/><path d="M709.491,574.18s-10.944,13.359-2.251,33.566l-87.417,37.913-8.389,1.768-3.864-16.9,2.623-21.328V597.522Z" transform="translate(-356.914 -317.836)" fill="#d5d6db"/><path d="M158.46,489.262,279.448,467.21l160.326,25.539L340.2,528.6Z" transform="translate(-81.929 -241.558)" fill="#3a3768"/><path d="M242.12,556.29s-11.321,21.439,1.719,41.241L423.262,636.41s-11.132-17.092.594-40.787Z" transform="translate(-165.608 -308.586)" fill="#3a3768"/><path d="M242.12,556.29s-11.321,21.439,1.719,41.241L423.262,636.41s-11.132-17.092.594-40.787l-56.739-12.282Z" transform="translate(-165.608 -308.586)" opacity="0.1"/><path d="M255.025,571.68s-6.462,15.682,0,25.839" transform="translate(-173.153 -316.543)" opacity="0.1"/><path d="M430.023,676.423,530.2,633.68s5.6,1.207,1.975,5.313-100.216,41.535-100.216,41.535L250.6,637.544Z" transform="translate(-172.35 -348.599)" fill="#3a3768"/><path d="M430.023,676.423,530.2,633.68s5.6,1.207,1.975,5.313-100.216,41.535-100.216,41.535L250.6,637.544Z" transform="translate(-172.35 -348.599)" opacity="0.1"/><path d="M600.5,646.68s-9.659,11.591,0,28.978" transform="translate(-351.041 -355.321)" opacity="0.1"/><rect width="45.674" height="0.483" transform="translate(252.905 305.622) rotate(-18.45)" opacity="0.1"/><rect width="55.652" height="0.483" transform="translate(252.895 309.509) rotate(-20.82)" opacity="0.1"/><rect width="64.505" height="0.483" transform="translate(253.179 314.086) rotate(-22.26)" opacity="0.1"/><rect width="74.252" height="0.483" transform="translate(253.881 318.128) rotate(-24.31)" opacity="0.1"/><rect width="81.211" height="0.483" transform="matrix(0.916, -0.401, 0.401, 0.916, 254.411, 320.089)" opacity="0.1"/><rect width="97.183" height="0.483" transform="translate(255.537 323.392) rotate(-23.36)" opacity="0.1"/><path d="M251.53,498.63l85-17.87,51.784,9.9-69.654,22.458Z" transform="translate(-130.049 -248.564)" fill="#fff" opacity="0.45"/><path d="M722.908,563.51s4.39,1.772,1.816,4.506-101.394,31.34-101.394,31.34Z" transform="translate(-365.063 -312.319)" fill="#3a3768"/><path d="M718.906,464.15s-10.949,23.989-2.255,44.192l-87.417,27.288-8.37,1.772L617,520.5l2.584-21.333V487.492Z" transform="translate(-361.79 -260.947)" fill="#d5d6db"/><path d="M167.89,379.237,288.883,357.18l160.326,25.539L349.626,418.57Z" transform="translate(-86.804 -184.669)" fill="#559aff"/><path d="M251.579,446.26s-11.335,21.439,1.7,41.241L432.707,526.38s-11.137-17.092.589-40.782Z" transform="translate(-170.494 -251.697)" fill="#559aff"/><path d="M251.579,446.26s-11.335,21.439,1.7,41.241L432.707,526.38s-11.137-17.092.589-40.782Z" transform="translate(-170.494 -251.697)" opacity="0.1"/><path d="M264.463,461.65s-6.467,15.687,0,25.839" transform="translate(-178.031 -259.654)" opacity="0.1"/><path d="M439.463,570.529,539.63,538.412s5.6,1.207,1.98,5.313-100.216,30.91-100.216,30.91L260.04,531.65Z" transform="translate(-177.23 -295.847)" fill="#559aff"/><path d="M439.463,570.529,539.63,538.412s5.6,1.207,1.98,5.313-100.216,30.91-100.216,30.91L260.04,531.65Z" transform="translate(-177.23 -295.847)" opacity="0.1"/><path d="M609.944,536.65s-9.659,11.591,0,28.978" transform="translate(-355.922 -298.432)" opacity="0.1"/><rect width="45.674" height="0.483" transform="translate(257.466 252.48) rotate(-18.45)" opacity="0.1"/><rect width="55.652" height="0.483" transform="translate(257.453 256.37) rotate(-20.82)" opacity="0.1"/><rect width="64.505" height="0.483" transform="translate(257.731 260.949) rotate(-22.26)" opacity="0.1"/><rect width="74.252" height="0.483" transform="translate(258.44 264.987) rotate(-24.31)" opacity="0.1"/><rect width="81.211" height="0.483" transform="matrix(0.916, -0.401, 0.401, 0.916, 258.973, 266.952)" opacity="0.1"/><rect width="97.183" height="0.483" transform="translate(260.098 270.258) rotate(-23.36)" opacity="0.1"/><path d="M260.96,388.6l85-17.87,51.784,9.9-69.654,22.458Z" transform="translate(-134.925 -191.675)" fill="#fff" opacity="0.3"/><path d="M732.338,453.48s4.4,1.773,1.816,4.511-101.394,31.34-101.394,31.34Z" transform="translate(-369.938 -255.43)" fill="#559aff"/><path d="M381.462,149.895s-18.353-1.106-16.208,11.77a3.141,3.141,0,0,0,1.632,3.308s.034-.966,1.884-.633a8.235,8.235,0,0,0,2,.1,4.163,4.163,0,0,0,2.439-1h0s5.163-2.135,7.172-10.577c0,0,1.488-1.84,1.449-2.313l-3.11,1.323a5.572,5.572,0,0,1,.227,4.1s-.1-4.013-.7-3.922c-.121,0-1.608.778-1.608.778s1.821,3.9.444,6.728c0,0,.522-4.8-1.014-6.448l-2.183,1.275s2.13,4.023.686,7.307c0,0,.372-5.037-1.145-7l-1.98,1.546s2,3.965.782,6.689c0,0-.159-5.863-1.207-6.308a11.936,11.936,0,0,0-1.995,2.154s1.372,2.9.517,4.4c0,0-.517-3.907-.966-3.927a13,13,0,0,0-1.9,4.347,9.4,9.4,0,0,1,1.483-4.608,5.173,5.173,0,0,0-2.637,1.367s.266-1.83,3.067-1.99a11.872,11.872,0,0,1,1.806-2.082,11.306,11.306,0,0,0-4.472.512s1.488-1.724,4.979-.966l1.932-1.594s-3.661-.483-5.216.053c0,0,1.792-1.526,5.742-.415l2.13-1.27a19.353,19.353,0,0,0-4.984-.43s1.961-1.058,5.607.087l1.517-.681s-2.284-.449-2.956-.522-.705-.256-.705-.256a7.974,7.974,0,0,1,4.3.483S381.525,150.1,381.462,149.895Z" transform="translate(-231.539 -98.455)" fill="#559aff"/><path d="M916.062,259.475s-18.353-1.106-16.208,11.77a3.141,3.141,0,0,0,1.632,3.308s.034-.966,1.884-.633a8.509,8.509,0,0,0,2,.1,4.149,4.149,0,0,0,2.415-1h0s5.168-2.135,7.172-10.577c0,0,1.488-1.84,1.449-2.313l-3.1,1.323a5.573,5.573,0,0,1,.227,4.1s-.1-4.013-.7-3.922c-.121,0-1.613.778-1.613.778s1.821,3.9.449,6.728c0,0,.522-4.8-1.019-6.448l-2.183,1.275s2.13,4.023.686,7.307c0,0,.372-5.037-1.145-7l-1.975,1.546s2,3.965.778,6.689c0,0-.159-5.863-1.207-6.308a12.111,12.111,0,0,0-1.995,2.154s1.372,2.9.522,4.4c0,0-.522-3.907-.966-3.927a13,13,0,0,0-1.9,4.347,9.371,9.371,0,0,1,1.487-4.608,5.2,5.2,0,0,0-2.642,1.367s.27-1.83,3.067-1.99a12.058,12.058,0,0,1,1.806-2.086,11.352,11.352,0,0,0-4.472.517s1.488-1.724,4.979-.966l1.932-1.594s-3.666-.483-5.216.053c0,0,1.787-1.526,5.742-.415l2.125-1.27a19.353,19.353,0,0,0-4.984-.43s1.961-1.058,5.607.087l1.521-.681s-2.289-.449-2.961-.522-.705-.256-.705-.256a7.916,7.916,0,0,1,4.3.483S916.12,259.677,916.062,259.475Z" transform="translate(-507.944 -155.111)" fill="#559aff" opacity="0.1"/><path d="M441.3,303.2s-8-16.58-18.179-8.409a3.137,3.137,0,0,0-2.091,3.038s.845-.439,1.449,1.338a8.556,8.556,0,0,0,.889,1.787,4.168,4.168,0,0,0,2.072,1.642h0s4.381,3.468,12.731,1.1c0,0,2.333.4,2.714.121l-2.666-2.062a5.606,5.606,0,0,1-3.468,2.193s3.458-2.043,3.086-2.516c-.077-.1-1.449-1.029-1.449-1.029s-2.516,3.492-5.656,3.671c0,0,4.443-1.884,5.129-4.033l-2.173-1.285s-2.478,3.825-6.047,4.163c0,0,4.579-2.13,5.549-4.41l-2.309-.966s-2.487,3.68-5.462,3.946c0,0,5.042-3,4.917-4.134a12.24,12.24,0,0,0-2.854-.691s-1.845,2.6-3.584,2.6c0,0,3.154-2.362,2.961-2.743a12.742,12.742,0,0,0-4.733.483,9.4,9.4,0,0,1,4.748-.966,5.2,5.2,0,0,0-2.482-1.637s1.729-.657,3.231,1.7a11.913,11.913,0,0,1,2.7.56,11.339,11.339,0,0,0-2.627-3.646s2.231.449,3.25,3.864l2.342.927s-1.348-3.439-2.589-4.525c0,0,2.2.816,3.163,4.83L436,299.351a19.11,19.11,0,0,0-2.053-4.559s1.879,1.2,2.656,4.936l1.338.995s-.724-2.217-.966-2.835-.121-.744-.121-.744a7.926,7.926,0,0,1,1.681,3.985S441.122,303.34,441.3,303.2Z" transform="translate(-260.463 -172.21)" fill="#559aff" opacity="0.1"/><path d="M825.077,199.575s-7.993-16.58-18.179-8.408a3.143,3.143,0,0,0-2.091,3.038s.85-.435,1.449,1.338a8.376,8.376,0,0,0,.894,1.792,4.143,4.143,0,0,0,2.067,1.637h0s4.385,3.468,12.731,1.106c0,0,2.333.4,2.719.116l-2.652-2.067a5.6,5.6,0,0,1-3.463,2.2s3.453-2.048,3.081-2.521c-.077-.1-1.449-1.029-1.449-1.029s-2.511,3.492-5.656,3.671c0,0,4.448-1.884,5.134-4.028l-2.207-1.275s-2.473,3.82-6.047,4.163c0,0,4.578-2.135,5.554-4.414l-2.313-.966s-2.487,3.685-5.458,3.946c0,0,5.037-3,4.912-4.129a11.945,11.945,0,0,0-2.849-.691s-1.845,2.6-3.589,2.6c0,0,3.159-2.362,2.965-2.743a12.771,12.771,0,0,0-4.738.483,9.4,9.4,0,0,1,4.748-.966,5.172,5.172,0,0,0-2.478-1.637s1.729-.657,3.231,1.7a11.956,11.956,0,0,1,2.7.565,11.3,11.3,0,0,0-2.632-3.651s2.231.454,3.25,3.888l2.347.927s-1.348-3.444-2.589-4.53c0,0,2.2.816,3.159,4.83l2.149,1.236a19.292,19.292,0,0,0-2.057-4.559s1.884,1.2,2.656,4.936l1.338.995s-.72-2.217-.966-2.835-.121-.739-.121-.739a7.944,7.944,0,0,1,1.676,3.984S824.927,199.73,825.077,199.575Z" transform="translate(-458.89 -118.635)" fill="#559aff" opacity="0.1"/><path d="M877.951,369.38s-7.993-16.585-18.193-8.413A3.143,3.143,0,0,0,857.666,364s.85-.435,1.449,1.338a8.367,8.367,0,0,0,.889,1.792,4.144,4.144,0,0,0,2.067,1.637h0s4.385,3.473,12.736,1.106c0,0,2.328.4,2.714.116l-2.666-2.062a5.6,5.6,0,0,1-3.468,2.2s3.453-2.048,3.081-2.521c-.077-.1-1.449-1.029-1.449-1.029s-2.511,3.492-5.656,3.675c0,0,4.448-1.888,5.134-4.033l-2.178-1.285s-2.473,3.825-6.047,4.163c0,0,4.579-2.135,5.554-4.414l-2.313-.966s-2.487,3.68-5.458,3.946c0,0,5.042-3,4.917-4.134a12,12,0,0,0-2.854-.691s-1.845,2.6-3.588,2.6c0,0,3.159-2.362,2.965-2.743a12.771,12.771,0,0,0-4.738.483,9.427,9.427,0,0,1,4.752-.966,5.163,5.163,0,0,0-2.482-1.637s1.729-.662,3.231,1.7a11.914,11.914,0,0,1,2.7.56,11.39,11.39,0,0,0-2.627-3.651s2.231.454,3.25,3.888l2.342.927s-1.347-3.444-2.589-4.525c0,0,2.2.811,3.159,4.83l2.149,1.232a19.287,19.287,0,0,0-2.057-4.559s1.884,1.2,2.661,4.941l1.338.966s-.724-2.217-.966-2.835-.121-.739-.121-.739a7.9,7.9,0,0,1,1.676,3.984A19.551,19.551,0,0,0,877.951,369.38Z" transform="translate(-486.22 -206.428)" fill="#559aff" opacity="0.1"/><ellipse cx="11.103" cy="1.241" rx="11.103" ry="1.241" transform="translate(86.432 376.246)" fill="#559aff" opacity="0.1"/><ellipse cx="11.103" cy="1.241" rx="11.103" ry="1.241" transform="translate(13.644 355.15)" fill="#559aff" opacity="0.1"/><ellipse cx="11.103" cy="1.241" rx="11.103" ry="1.241" transform="translate(141.915 390.257)" fill="#559aff" opacity="0.1"/><ellipse cx="11.103" cy="1.241" rx="11.103" ry="1.241" transform="translate(426.239 359.738)" fill="#559aff" opacity="0.1"/><ellipse cx="11.103" cy="1.241" rx="11.103" ry="1.241" transform="translate(333.842 353.715)" fill="#559aff" opacity="0.1"/><ellipse cx="13.132" cy="2.255" rx="13.132" ry="2.255" transform="translate(272.042 381.061)" fill="#559aff" opacity="0.1"/><path d="M678.807,790.14s-18.285,9.447-8.838,20.574a3.534,3.534,0,0,0,3.458,2.246s-.512-.937,1.449-1.686a9.419,9.419,0,0,0,1.975-1.048,4.641,4.641,0,0,0,1.768-2.362h0s3.738-5,.84-14.262c0,0,.377-2.618.048-3.043l-2.222,3.047a6.222,6.222,0,0,1,2.56,3.806s-2.415-3.8-2.9-3.381c-.106.087-1.1,1.666-1.1,1.666s3.98,2.7,4.274,6.206c0,0-2.241-4.912-4.661-5.612l-1.386,2.473s4.347,2.647,4.83,6.626c0,0-2.526-5.047-5.105-6.066l-1.019,2.613s4.192,2.666,4.578,5.979c0,0-3.506-5.54-4.767-5.366a13.39,13.39,0,0,0-.686,3.212s2.961,1.98,3.014,3.927c0,0-2.734-3.453-3.154-3.226,0,0-.174,3.473.667,5.279a10.421,10.421,0,0,1-1.212-5.279,5.8,5.8,0,0,0-1.753,2.821s-.787-1.908,1.806-3.666a13.365,13.365,0,0,1,.546-3.033,12.731,12.731,0,0,0-4,3.052s.439-2.507,4.245-3.753l.966-2.647s-3.806,1.613-4.979,3.033c0,0,.845-2.487,5.279-3.68l1.314-2.415a22.175,22.175,0,0,0-5.032,2.415s1.28-2.14,5.438-3.125l1.067-1.521s-2.454.874-3.139,1.188-.821.159-.821.159a8.881,8.881,0,0,1,4.4-2S678.976,790.3,678.807,790.14Z" transform="translate(-387.775 -429.494)" fill="#559aff"/><path d="M628.177,225.643c-3.159-8.582-20.545-9.389-28.089-7.2-5.361,1.56-16.662,3.318-22.7,4.2l-.391-.372c.782-.232.8-.8.705-1.647a25.791,25.791,0,0,1,.048-3.342c3.7,1.149,6.993-1.57,6.993-1.57h0c4.347-1.932,3.178-10.2,4.009-12.461.623-1.69,1.294-11.649,1.594-16.614h.063l.034-1.666c.043-.72.063-1.14.063-1.14s.425-12.142,1.256-14.6c.773-2.26,1.4-13.649,1.5-15.455v-.237l-.063-1.053c.043-.768.063-1.623.058-2.521,0-4.129-.43-9.331-.483-10.171v-.439c.034-1.763-.188-10.592-7.7-13.929-2.767-1.236-6.1-2.709-9.316-4.144-.831-7.172-2.729-14.306-2.565-21.531,0-1.087.1-2.173.2-3.255,0,.314-.034.633-.039.966v2.106c.285-9.036,3.7-18.121,3.381-26.964-.029.865-.092,1.734-.174,2.6a28.074,28.074,0,0,0-.927-8.882,5.255,5.255,0,0,0-1.517-2.753,6.244,6.244,0,0,0-2.647-1.048,53.229,53.229,0,0,0-6.95-1.294,10.731,10.731,0,0,0-1.565-3.038c-4.9-6.723-12.151-13.04-20.729-14.489-4.3-.724-9.254-.121-12.18,2.956a9.131,9.131,0,0,0-.86.869c-1.574,1.879-2.251,4.347-3.864,6.221-.106.126-.227.241-.343.362-3.159,2.825-8.08,3.415-11.591,5.95a13.91,13.91,0,0,0-1.734,1.512,29.4,29.4,0,0,0-3.786,4.6c-1.579,2.222-3.2,4.535-3.7,7.187-1.009,5.313,2.608,10.35,3.279,15.7,1.5,11.963-11.741,22.579-9.234,34.383a15.745,15.745,0,0,0,4.26,7.645c-5.163,4.675-9.558,9.21-9.558,9.21v.27H492.1l.082.966H492.1l.449,5.24-.449,7.631v.72h.029c.15,2.8.744,12.852,1.449,14.972.831,2.458,1.251,14.6,1.251,14.6s.918,17.16,1.758,19.43-.353,10.514,4.009,12.461h0a9.176,9.176,0,0,0,4.381,1.816c-.222,1.806-.082,3.115.637,3.526a2.106,2.106,0,0,0,1.014.29,10.757,10.757,0,0,0-.787,1.376,20.456,20.456,0,0,1-5.061-1.193c-4.685-1.932-20.232-6.279-24.747-3.221s-15.383,5.829-10.364,18.135,7.356,12.615,7.356,12.615a17.869,17.869,0,0,1,4.013,4.033c1.507,2.265,15.547,7.447,19.058,7.447a34.379,34.379,0,0,1,4.467.222s-3.811,3.342-3.3,5.284S496.1,284.4,496.1,284.4s3.864,3.893,5.515-1.212l.058.077c.309.42,1.98,2.318,5.124-.077a28.721,28.721,0,0,1,4.086-2.589l15.223-2.154a43.087,43.087,0,0,1,4.767-.034c2.415.2,4.786-1.232,6.279-2.338,3.154,1.2,6.7,2.507,8.384,2.985,3.419.966,19.135,5.182,22.811,3.864a5.105,5.105,0,0,0,1.98-1.41l3.506.111-1.642.328s3.2.053,7.544.111l-.184.106,5.453-.048c7.979.072,16.943.1,18.121-.169,1.845-.41,11.432-.121,14.257,0h.787s10.534-2.1,6.187-12.789c-3.342-8.21-13.615-10.6-18.174-11.253,1.285-.256,2.391-.454,3.125-.57,3.183-.483,9.365-3.381,9.867-4.371s5.685-3.864,7.022-5.5S631.35,234.225,628.177,225.643Zm-87.248,24.018-.517.169-.348.116-.666.657c-.531-.357-1.1-.734-1.7-1.12C538.751,249.545,539.828,249.608,540.929,249.661Zm46.032,13.61Z" transform="translate(-282.874 -43.42)" fill="url(#a)"/><path d="M686.65,301.234s7.389,19.319,11.591,17.387,3.062-10.142,3.864-12.393,1.69-19.319,1.69-19.319.406-12.074,1.207-14.518c.744-2.246,1.347-13.571,1.449-15.354V256.8l-.8-14.006-4.511-1.125-10.461,3.864-1.449,8.273-.565,3.231-.241,1.376Z" transform="translate(-397.801 -145.918)" fill="#fdb797"/><path d="M691.69,358.3s7.051,5.771,9.176,6.279,3.429,5.008,3.429,5.008" transform="translate(-400.407 -206.219)" opacity="0.1"/><path d="M545.8,302.984s-7.389,19.319-11.591,17.387-3.062-10.142-3.864-12.393-1.69-19.319-1.69-19.319-.406-12.074-1.207-14.518c-.744-2.246-1.347-13.571-1.449-15.354v-.237l.8-14.006,4.511-1.125,10.461,3.864,1.449,8.273.565,3.231.242,1.376Z" transform="translate(-314.74 -146.822)" fill="#fdb797"/><rect width="16.493" height="25.708" transform="translate(262.686 52.778)" fill="#3e373a"/><rect width="16.493" height="25.708" transform="translate(262.686 52.778)" opacity="0.1"/><path d="M556.707,404.945s-5.636,6.2-3.545,7.322,15.619,22.217,15.619,22.217,44.433,5.472,52.813-2.738,8.21-22.878,8.21-22.878-6.733,1.449-7.467.662-4.767-4.583-4.767-4.583S560.571,401.487,556.707,404.945Z" transform="translate(-328.543 -229.541)" fill="#4b4b5b"/><path d="M556.707,404.945s-5.636,6.2-3.545,7.322,15.619,22.217,15.619,22.217,44.433,5.472,52.813-2.738,8.21-22.878,8.21-22.878-6.733,1.449-7.467.662-4.767-4.583-4.767-4.583S560.571,401.487,556.707,404.945Z" transform="translate(-328.543 -229.541)" opacity="0.02"/><path d="M623.751,196.833l-14.489,11.591-4.38.319-1.608.116-27.012,1.98-28.012-2.048-4.168-.3-5.313-.386L527.66,197.476a190.209,190.209,0,0,1,14.75-14.107,30.256,30.256,0,0,1,7.148-4.777l.319-.111a7.95,7.95,0,0,0,3.062-2.135C558.377,170.739,563.4,156.9,563.4,156.9s23.989-12.393,21.091,3.864S595.28,173,595.28,173l4.511,2.057,1.782.816,4.545,2.082,10.253,4.7C624.418,186.367,623.751,196.833,623.751,196.833Z" transform="translate(-315.598 -99.753)" fill="#fdb797"/><circle cx="21.574" cy="21.574" r="21.574" transform="translate(237.963 27.238)" opacity="0.1"/><path d="M622.927,240.11H526v-.237l.8-14.006a190.219,190.219,0,0,1,14.75-14.107l60.854-2.415,2.83-2.985,10.253,4.7c8.051,3.7,7.4,14.165,7.4,14.165S623.994,237.357,622.927,240.11Z" transform="translate(-314.74 -127.661)" opacity="0.1"/><path d="M622.927,239.11H526v-.237l.8-14.006a190.22,190.22,0,0,1,14.75-14.107l60.854-2.415,2.83-2.985,10.253,4.7c8.051,3.7,7.4,14.165,7.4,14.165S623.994,236.357,622.927,239.11Z" transform="translate(-314.74 -127.144)" fill="#f36986"/><path d="M587.327,189.4s15.291,19.483,35.658-.4,2.255,44.351,2.255,44.351l-43.95,5.216Z" transform="translate(-343.327 -116.712)" opacity="0.1"/><path d="M587.327,191.4s15.291,19.483,35.658-.4,2.255,44.351,2.255,44.351l-43.95,5.216Z" transform="translate(-343.327 -117.746)" fill="#f36986"/><path d="M613.895,202.147l1.618,24.675,1.734,8.21,1.323,6.279s3.381,48.3,2.415,50.712.483,4.347.686,5.631-.2,4.511-.044,5.96,0,2.091-3.7,1.574-8.858-1.415-8.858-1.415-13.04.966-17.546-.642-13.04-1.613-13.04-1.613-12.881.324-17.063-.159-6.443,5.153-9.176,3.54,3.217-17.223,5.148-21.734-2.574-15.938-2.574-15.938l5.8-32.151,1.29-7.288V204.876l.319-.111a7.95,7.95,0,0,0,3.062-2.135l1.449,23.057,45.4,1.613V201.35" transform="translate(-327.944 -125.071)" opacity="0.1"/><path d="M613.895,200.147l1.618,24.675,1.734,8.21,1.323,6.279s3.381,48.3,2.415,50.712.483,4.347.686,5.631-.2,4.511-.044,5.96,0,2.091-3.7,1.574-8.858-1.415-8.858-1.415-13.04.966-17.546-.642-13.04-1.613-13.04-1.613-12.881.324-17.063-.159-6.443,5.153-9.176,3.54,3.217-17.223,5.148-21.734-2.574-15.938-2.574-15.938l5.8-32.151,1.29-7.288V202.876l.319-.111a7.95,7.95,0,0,0,3.062-2.135l1.449,23.057,45.4,1.613V199.35" transform="translate(-327.944 -124.037)" fill="#f36986"/><path d="M611.884,70.017a5.322,5.322,0,0,0-1.449-2.734,5.931,5.931,0,0,0-2.55-1.043,50.385,50.385,0,0,0-6.7-1.285,10.735,10.735,0,0,0-1.449-3.009C595,55.262,588,48.96,579.757,47.535c-4.313-.749-9.312-.077-12.074,3.323-1.517,1.869-2.169,4.347-3.7,6.182-2.951,3.564-8.278,4-12,6.762a22.228,22.228,0,0,0-4.83,5.588c-1.521,2.207-3.086,4.506-3.569,7.143-.966,5.269,2.516,10.292,3.159,15.61,1.449,11.9-11.3,22.448-8.891,34.185,1.405,6.844,7.728,11.664,14.267,14.107,2.3.865,4.936,1.724,6.013,3.936.483.966.565,2.082,1.019,3.057,1.526,3.255,6.544,3.381,9.239,1.009s3.545-6.206,3.864-9.785c1.294-15.629-4.965-31.069-4.236-46.737.217-4.738,1.55-10.113,5.8-12.258,5.714-2.9,12.586,1.932,18.874,1.009a37.445,37.445,0,0,1,1.806,22.849c-1,4.168-2.729,8.21-2.854,12.509-.188,6.544,3.342,12.523,6.395,18.309a9.742,9.742,0,0,1,1.29,3.53,8.51,8.51,0,0,1-.691,3.695c-1.724,4.641-4.7,8.949-5.037,13.89a2.246,2.246,0,0,0,.362,1.652,2.077,2.077,0,0,0,1.246.56c5.216.893,9.727-3.729,12.272-8.37a39.236,39.236,0,0,0,4.839-16.672c.526-9.833-3-19.507-2.782-29.35C609.788,92.079,614.844,80.812,611.884,70.017Z" transform="translate(-320.712 -45.401)" opacity="0.1"/><path d="M612.884,69.017a5.322,5.322,0,0,0-1.449-2.734,5.931,5.931,0,0,0-2.55-1.043,50.382,50.382,0,0,0-6.7-1.285,10.731,10.731,0,0,0-1.449-3.009C596,54.262,589,47.96,580.757,46.535c-4.313-.749-9.312-.077-12.074,3.323-1.517,1.869-2.169,4.347-3.7,6.182-2.951,3.564-8.278,4-12,6.762a22.229,22.229,0,0,0-4.83,5.588c-1.521,2.207-3.086,4.506-3.569,7.143-.966,5.269,2.516,10.292,3.159,15.61,1.449,11.9-11.3,22.448-8.891,34.184,1.405,6.844,7.728,11.664,14.267,14.108,2.3.865,4.936,1.724,6.013,3.936.483.966.565,2.082,1.019,3.057,1.526,3.255,6.544,3.381,9.239,1.009s3.545-6.206,3.864-9.785c1.294-15.629-4.965-31.069-4.236-46.737.217-4.738,1.55-10.113,5.8-12.258,5.714-2.9,12.586,1.932,18.874,1.009a37.444,37.444,0,0,1,1.806,22.849c-1,4.168-2.729,8.21-2.854,12.509-.188,6.544,3.342,12.523,6.394,18.309a9.743,9.743,0,0,1,1.29,3.53,8.51,8.51,0,0,1-.691,3.695c-1.724,4.641-4.7,8.949-5.037,13.89a2.245,2.245,0,0,0,.362,1.652,2.077,2.077,0,0,0,1.246.56c5.216.893,9.727-3.729,12.272-8.37a39.236,39.236,0,0,0,4.839-16.672c.526-9.833-3-19.507-2.782-29.35C610.788,91.079,615.844,79.812,612.884,69.017Z" transform="translate(-321.229 -44.884)" fill="#3e373a"/><path d="M581.79,478.176l19.159.613L598.2,464.58l-14.677,1.4Z" transform="translate(-300.804 -240.199)" fill="#c3c7d9"/><path d="M697.985,434.371c-1.289,1.608-6.279,4.506-6.761,5.472s-6.438,3.864-9.5,4.347-12.717,2.579-14.489,3.7c-1.27.811-11.466,3.381-18.164,4.806a51.55,51.55,0,0,1-5.5.99c-2.9.159-34.609-10.625-34.609-10.625l6.114-6.279.338-.116c1.729-.584,9.717-3.284,14.151-4.569,4.994-1.449,10.789-7.4,10.789-7.4s8.529-2.9,9.659-3.221-2.9-11.268-2.9-11.268,18.512-2.569,25.757-4.748,23.989-1.372,27.046,7.162S699.294,432.763,697.985,434.371Z" transform="translate(-357.633 -230.072)" fill="#4b4b5b"/><path d="M574.848,504.483s-3.7,3.864-7.4,3.545-16.658.966-16.658.966a25.967,25.967,0,0,0-6.525,3.782c-3.028,2.386-4.636.483-4.936.077l-.053-.077c-1.613,5.076-5.313,1.207-5.313,1.207s1.608-15.455,1.116-17.387,3.183-5.25,3.183-5.25l4.347-1.106,11.012-2.821,15.779,5.472Z" transform="translate(-318.856 -272.978)" fill="#e7c7ca"/><path d="M542.586,493.26l-3.26,22.613-.053-.077C537.66,520.871,533.96,517,533.96,517s1.608-15.455,1.116-17.387,3.183-5.25,3.183-5.25Z" transform="translate(-318.856 -275.998)" opacity="0.1"/><path d="M599,360.08s8.529,2.9,15.938,0" transform="translate(-352.483 -207.139)" opacity="0.1"/><path d="M659.29,371.42s3.54,1.768,6.279,0" transform="translate(-383.655 -213.003)" opacity="0.1"/><path d="M659.29,379.231s5.955.8,7.085-.811" transform="translate(-383.655 -216.622)" opacity="0.1"/><path d="M655.29,395.131s11.186-1.449,13.963-3.381" transform="translate(-381.587 -223.514)" opacity="0.1"/><path d="M584.62,391.75s6.279,3.54,10.949,3.381" transform="translate(-345.048 -223.514)" opacity="0.1"/><path d="M649.06,487.21a51.577,51.577,0,0,1-5.5.99c-2.9.159-34.61-10.625-34.61-10.625l6.114-6.279.338-.116c.966.681,1.758,1.265,2.323,1.71,2.661,2.1,5.231-.642,6.2-.642s9.336,6.921,9.336,6.921,7.728,1.773,9.017,3.381,5.8,1.29,6.6,2.415A4.308,4.308,0,0,1,649.06,487.21Z" transform="translate(-357.628 -264.582)" opacity="0.1"/><path d="M518.084,411.631s-7.814.449-12.321-1.449-19.478-6.279-23.825-3.2-14.813,5.8-9.983,18.034,7.085,12.557,7.085,12.557a17.436,17.436,0,0,1,3.864,4.009c1.449,2.255,14.972,7.4,18.353,7.4s9.336,0,17.706,5.8a36.39,36.39,0,0,0,15.938,6.443s10.625,4.347,13.934,5.313,18.425,5.148,21.97,3.864,5.8-9.341,5.8-9.341,1.608-7.245.8-8.37-5.313-.807-6.6-2.415-9.017-3.381-9.017-3.381-8.35-6.926-9.316-6.926-3.535,2.734-6.2.642a141.363,141.363,0,0,0-16.667-10.625C523.493,426.763,518.084,411.631,518.084,411.631Z" transform="translate(-286.153 -230.838)" fill="#4b4b5b"/><path d="M536.27,427.22a9.225,9.225,0,0,1,7.916,2.091c3.864,3.221,16.865,9.688,16.865,9.688" transform="translate(-320.05 -241.756)" opacity="0.1"/><path d="M714.4,427s-17.227,2.608-20.444,6.148" transform="translate(-401.581 -241.739)" opacity="0.1"/><path d="M729.894,511.568h-.758c-2.724-.1-11.953-.386-13.731,0-2.091.483-29.785,0-29.785,0l5.414-1.125s-2.009-7.042-.734-7.626c0,0-7.245-4.772-1.782-7.993a16.946,16.946,0,0,1,11.35-1.864l13.711-4.646,2.632-.893s15.455.807,19.637,11.432S729.894,511.568,729.894,511.568Z" transform="translate(-397.269 -272.978)" fill="#e7c7ca"/><path d="M759.825,511.594h-.758c4.5-3.709,14.668-15-15.556-23.231l2.632-.894s15.455.807,19.637,11.432S759.825,511.594,759.825,511.594Z" transform="translate(-427.2 -273.004)" opacity="0.1"/><circle cx="0.845" cy="0.845" r="0.845" transform="translate(303.367 224.381)" fill="#4b4b5b"/><circle cx="0.845" cy="0.845" r="0.845" transform="translate(298.455 225.777)" fill="#4b4b5b"/><g transform="translate(217.453 30.378)" opacity="0.1"><path d="M629.3,124.13a37.473,37.473,0,0,0-2.772-15.523c-6.279.937-13.156-3.907-18.874-1.009-4.231,2.144-5.559,7.52-5.8,12.258-.058,1.251-.068,2.5-.043,3.753,0-.444,0-.893.043-1.338.222-4.738,1.55-10.113,5.8-12.258,5.718-2.9,12.586,1.932,18.874,1.009A37.373,37.373,0,0,1,629.3,124.13Z" transform="translate(-571.386 -106.492)"/><path d="M554.382,124.284a16.105,16.105,0,0,0-.063-3.159c-.512-4.25-2.835-8.312-3.255-12.456-.541,5,2.642,9.8,3.255,14.871A3.017,3.017,0,0,1,554.382,124.284Z" transform="translate(-545.12 -107.53)"/><path d="M573.532,215.534c-.3,3.584-1.145,7.414-3.864,9.79s-7.728,2.246-9.239-1.009c-.483-.966-.555-2.091-1.024-3.057-1.072-2.212-3.709-3.072-6.013-3.936-6.544-2.449-12.857-7.245-14.262-14.108a14.817,14.817,0,0,1-.256-1.884,15.223,15.223,0,0,0,.256,4.3c1.405,6.844,7.728,11.659,14.262,14.107,2.3.865,4.941,1.724,6.013,3.936.483.966.565,2.082,1.024,3.057,1.521,3.255,6.539,3.381,9.239,1.009s3.54-6.206,3.864-9.79a55.2,55.2,0,0,0,.15-5.67C573.682,213.375,573.619,214.457,573.532,215.534Z" transform="translate(-538.823 -155.438)"/><path d="M687.93,131.028v2.091c.27-8.983,3.564-18.015,3.241-26.81C690.92,114.443,688.114,122.76,687.93,131.028Z" transform="translate(-615.916 -106.31)"/><path d="M658.36,209.262a6.226,6.226,0,0,0,.111-1.744,9.659,9.659,0,0,0-1.289-3.531c-2.792-5.313-5.974-10.751-6.351-16.648,0,.251-.034.483-.039.753-.193,6.539,3.337,12.523,6.39,18.309A11.588,11.588,0,0,1,658.36,209.262Z" transform="translate(-596.71 -148.205)"/><path d="M673.563,217.226A39.3,39.3,0,0,1,668.69,233.9c-2.55,4.641-7.056,9.263-12.277,8.37a2.053,2.053,0,0,1-1.246-.565,1.209,1.209,0,0,1-.227-.377c-.058.377-.106.758-.135,1.145a2.226,2.226,0,0,0,.362,1.647,2.053,2.053,0,0,0,1.246.565c5.221.893,9.727-3.729,12.277-8.37a39.3,39.3,0,0,0,4.873-16.672c.058-1.13.063-2.255.029-3.381C673.583,216.584,673.583,216.9,673.563,217.226Z" transform="translate(-598.772 -163.158)"/></g><path d="M695.31,512.641s12.224,5.129,20.285-6.221" transform="translate(-402.279 -282.802)" fill="none" stroke="#000" stroke-miterlimit="10" stroke-width="1" opacity="0.1"/><path d="M700.29,534.7s9.983-6.491,22.7-.213" transform="translate(-404.854 -295.9)" fill="none" stroke="#000" stroke-miterlimit="10" stroke-width="1" opacity="0.1"/><path d="M561.93,529.5s4.192-9.457,15.387-2.246" transform="translate(-333.317 -292.174)" fill="none" stroke="#000" stroke-miterlimit="10" stroke-width="1" opacity="0.1"/><path d="M533.79,235.134l8.549-7.727s33.146-2.173,34.518,9.094c0,0,11.751-13.359,36.464-10.384l10.456,8.326-28.9,12.683-28.085,9.741-20.686-9.259Z" transform="translate(-318.768 -137.653)" opacity="0.1"/><path d="M533.79,236.134l8.549-7.727s33.146-2.173,34.518,9.094c0,0,11.751-13.359,36.464-10.384l10.456,8.326-28.9,12.683-28.085,9.741-20.686-9.259Z" transform="translate(-318.768 -138.17)" fill="#d5d6db"/><path d="M437.38,204.83l3.782,45.24,40.086,2.014-1.739-45.046-.034-.758Z" transform="translate(-226.139 -105.9)" opacity="0.1"/><path d="M437.38,202.83l3.782,45.24,40.086,2.014-1.739-45.046-.034-.758Z" transform="translate(-226.139 -104.866)" fill="#559aff"/><path d="M591.062,202.83l-41.352,6.2v45.443l40.41-5.839Z" transform="translate(-284.218 -104.866)" opacity="0.1"/><path d="M591.062,200.83l-41.352,6.2v45.442l40.41-5.839Z" transform="translate(-284.218 -103.832)" fill="#559aff"/><path d="M591.227,223.79l-22.337,2.482.488,7.612,21.835-2.386Z" transform="translate(-294.134 -115.703)" fill="#fff" opacity="0.3"/><path d="M537.251,346.949l2.275,6.119s3.381,2.9,7.08,1.449,6.926-2.169,8.534-3.579,3.864-8.5,3.864-8.5,2.255-7.728,4.506-9.659,8.21-28.548,0-25.945-14.489,26.752-14.489,26.752a5.726,5.726,0,0,1-3.54,1.932c-2.091.164-6.279-.324-7.085,1.449S534.836,343.409,537.251,346.949Z" transform="translate(-320.055 -179.519)" fill="#fdb797"/><path d="M625.307,255.843a13.91,13.91,0,0,1-12.127-3.023l1.743,45.042a12.292,12.292,0,0,0,10.384,3.429Z" transform="translate(-359.815 -151.683)" opacity="0.1"/><path d="M625.307,253.843a13.909,13.909,0,0,1-12.127-3.023l1.743,45.042a12.292,12.292,0,0,0,10.384,3.429Z" transform="translate(-359.815 -150.648)" fill="#559aff"/><path d="M625.307,253.843a13.909,13.909,0,0,1-12.127-3.023l1.743,45.042a12.292,12.292,0,0,0,10.384,3.429Z" transform="translate(-359.815 -150.648)" opacity="0.1"/><path d="M640.29,241.764s16.822-5.144,21.207-4.419" transform="translate(-373.832 -143.645)" opacity="0.1"/><path d="M580.959,238.748s-16.3-3.864-19.029-2.767" transform="translate(-333.317 -142.875)" opacity="0.1"/><path d="M662.25,245.018s11.248-4.125,15.315-2.164" transform="translate(-385.186 -146.256)" opacity="0.1"/><path d="M650.52,453.072a36.978,36.978,0,0,1,5.544-3.444,90.466,90.466,0,0,0,8.21-5.018" transform="translate(-379.121 -250.844)" opacity="0.1"/><path d="M548.435,360.08s-7.056,5.771-9.176,6.279-3.429,5.008-3.429,5.008" transform="translate(-319.822 -207.139)" opacity="0.1"/><path d="M682.729,345.184l-2.251,6.134s-3.381,2.9-7.085,1.449-6.921-2.169-8.534-3.579-3.864-8.5-3.864-8.5-2.251-7.728-4.506-9.659-8.21-28.548,0-25.945,14.489,26.752,14.489,26.752a5.726,5.726,0,0,0,3.54,1.932c2.091.164,6.279-.324,7.085,1.449S685.144,341.659,682.729,345.184Z" transform="translate(-380.034 -178.614)" fill="#fdb797"/><path d="M707.15,364.94s4.612,2.965,4.593,6.51" transform="translate(-408.4 -209.652)" opacity="0.1"/><circle cx="21.574" cy="21.574" r="21.574" transform="translate(238.041 26.181)" fill="#fdb797"/><path d="M586.634,105.95c2.618-.411,4.912-1.932,7.414-2.806,5.6-1.966,11.789-.618,17.454,1.154a22.636,22.636,0,0,0,6.66,1.449,6.741,6.741,0,0,0,5.863-2.9,6.551,6.551,0,0,0-.039-6.052,17.042,17.042,0,0,0-3.941-4.863c-5.023-4.743-11.253-9.176-18.145-8.693a24.972,24.972,0,0,0-7.974,2.284,87.9,87.9,0,0,0-9.36,4.714c-2.323,1.347-6.626,3.149-7.964,5.612C573.56,101.4,581.9,106.694,586.634,105.95Z" transform="translate(-340.566 -63.986)" fill="#3e373a"/><path d="M624.023,115.585a6.74,6.74,0,0,1-5.863,2.9,22.654,22.654,0,0,1-6.665-1.42c-5.665-1.772-11.852-3.125-17.455-1.154-2.5.874-4.8,2.415-7.414,2.8-3.815.6-9.959-2.724-10.625-6.95-.749,4.883,6.375,9.065,10.625,8.4,2.618-.411,4.917-1.932,7.414-2.8,5.6-1.971,11.789-.618,17.455,1.154a21.737,21.737,0,0,0,6.665,1.42c2.284-.029,4.7-.927,5.863-2.9a5.655,5.655,0,0,0,.676-3.53A5.207,5.207,0,0,1,624.023,115.585Z" transform="translate(-340.564 -78.75)" opacity="0.1"/><path d="M1029.563,661.63s2.864,3.743-1.323,9.4-7.636,10.427-6.245,13.953c0,0,6.317-10.5,11.456-10.649S1035.208,667.942,1029.563,661.63Z" transform="translate(-571.023 -363.05)" fill="#559aff"/><path d="M1029.738,661.63a4.632,4.632,0,0,1,.584,1.174c5.013,5.892,7.689,11.393,2.864,11.529-4.492.13-9.877,8.162-11.166,10.186a4.734,4.734,0,0,0,.15.483s6.317-10.5,11.456-10.649S1035.384,667.942,1029.738,661.63Z" transform="translate(-571.198 -363.05)" opacity="0.1"/><path d="M1048.292,670.608c0,1.318-.15,2.386-.328,2.386s-.333-1.067-.333-2.386.183-.7.367-.7S1048.292,669.29,1048.292,670.608Z" transform="translate(-584.439 -367.257)" fill="#ffd037"/><path d="M1050.374,673.775c-1.154.628-2.164,1.009-2.251.85s.778-.8,1.932-1.449.7-.174.787,0S1051.533,673.143,1050.374,673.775Z" transform="translate(-584.691 -368.849)" fill="#ffd037"/><path d="M999.783,661.63s-2.864,3.743,1.323,9.4,7.636,10.427,6.24,13.953c0,0-6.312-10.5-11.456-10.649S994.152,667.942,999.783,661.63Z" transform="translate(-556.38 -363.05)" fill="#559aff"/><path d="M999.783,661.63a4.642,4.642,0,0,0-.584,1.174c-5.013,5.892-7.689,11.393-2.864,11.529,4.487.13,9.877,8.162,11.166,10.186a3.748,3.748,0,0,1-.155.483s-6.312-10.5-11.456-10.649S994.152,667.942,999.783,661.63Z" transform="translate(-556.38 -363.05)" opacity="0.1"/><path d="M995.64,670.608c0,1.318.145,2.386.328,2.386s.333-1.067.333-2.386-.188-.7-.367-.7S995.64,669.29,995.64,670.608Z" transform="translate(-557.559 -367.257)" fill="#ffd037"/><path d="M991.108,673.775c1.154.628,2.164,1.009,2.251.85s-.778-.8-1.932-1.449-.7-.174-.787,0S989.948,673.143,991.108,673.775Z" transform="translate(-554.852 -368.849)" fill="#ffd037"/><ellipse cx="29.944" cy="4.593" rx="29.944" ry="4.593" transform="translate(421.028 341.395)" fill="#559aff" opacity="0.1"/><path d="M1021.232,697.658l-.145,1.169-.2,1.652-.082.691-.2,1.652-.087.691-.2,1.647-2.294,18.788c-.2,1.676-2.941,2.985-6.25,2.985H999.865c-3.308,0-6.042-1.309-6.25-2.985l-2.294-18.788-.2-1.647-.082-.691-.2-1.652-.087-.691-.2-1.652-.145-1.169c-.111-.966,1.367-1.748,3.241-1.748H1018C1019.865,695.91,1021.348,696.707,1021.232,697.658Z" transform="translate(-554.848 -380.774)" fill="#65617d"/><path d="M932.668,658.53l-.2,1.652H902.333l-.2-1.652Z" transform="translate(-466.43 -340.477)" fill="#9d9cb5"/><path d="M932.688,663.38l-.2,1.652H902.923l-.2-1.652Z" transform="translate(-466.735 -342.985)" fill="#9d9cb5"/><path d="M932.714,668.23l-.2,1.652H903.518l-.2-1.652Z" transform="translate(-467.045 -345.492)" fill="#9d9cb5"/></g></svg>