<svg xmlns="http://www.w3.org/2000/svg" width="480.584" height="537.016" viewBox="0 0 480.584 537.016"><g transform="translate(-115.894 79.015)"><rect width="44.127" height="16.434" transform="translate(355.273 42.439)" fill="#559aff" opacity="0.3"/><rect width="44.127" height="16.434" transform="translate(428.616 14.441)" fill="#559aff" opacity="0.3"/><rect width="44.127" height="16.434" transform="translate(431.659 65.264)" fill="#559aff" opacity="0.3"/><rect width="44.127" height="16.434" transform="translate(290.452 84.132)" fill="#559aff" opacity="0.3"/><rect width="44.127" height="16.434" transform="translate(276.453 151.692)" fill="#559aff" opacity="0.3"/><rect width="44.127" height="16.434" transform="translate(343.1 150.17)" fill="#559aff" opacity="0.3"/><path d="M799.345,14.856,770.13,42.577l32.258,23.205" transform="translate(-370.729 7.698)" fill="none" stroke="#3f3d56" stroke-miterlimit="10" stroke-width="1"/><line x1="42.758" y2="33.856" transform="translate(312.515 50.276)" fill="none" stroke="#3f3d56" stroke-miterlimit="10" stroke-width="1"/><path d="M585.4,208.816l14-51.114,52.649,49.605" transform="translate(-286.884 -57.137)" fill="none" stroke="#3f3d56" stroke-miterlimit="10" stroke-width="1"/><rect width="44.127" height="16.434" transform="translate(284.73 -79.015)" fill="#559aff" opacity="0.3"/><rect width="44.127" height="16.434" transform="translate(130.981 31.371)" fill="#559aff" opacity="0.3"/><rect width="44.127" height="16.434" transform="translate(134.024 82.193)" fill="#559aff" opacity="0.3"/><rect width="44.127" height="16.434" transform="translate(219.909 -37.322)" fill="#559aff" opacity="0.3"/><rect width="44.127" height="16.434" transform="translate(205.91 30.238)" fill="#559aff" opacity="0.3"/><rect width="44.127" height="16.434" transform="translate(272.557 28.716)" fill="#559aff" opacity="0.3"/><line x1="42.758" y2="33.856" transform="translate(241.972 -71.178)" fill="none" stroke="#3f3d56" stroke-miterlimit="10" stroke-width="1"/><path d="M40.4,239.816l14-51.114,52.649,49.605" transform="translate(187.572 -209.591)" fill="none" stroke="#3f3d56" stroke-miterlimit="10" stroke-width="1"/><line x2="50.043" transform="translate(178.152 90.41)" fill="none" stroke="#3f3d56" stroke-miterlimit="10" stroke-width="1"/><rect width="51.881" height="16.384" transform="translate(205.731 81.999)" fill="#559aff"/><line x2="32.773" transform="translate(257.679 90.191)" fill="none" stroke="#3f3d56" stroke-miterlimit="10" stroke-width="1"/><line x1="30.374" y1="50.707" transform="translate(175.108 39.484)" fill="none" stroke="#3f3d56" stroke-miterlimit="10" stroke-width="1"/><path d="M240.292,0C373,0,480.584,23.962,480.584,53.52S373,107.039,240.292,107.039,0,83.078,0,53.52,107.582,0,240.292,0Z" transform="translate(115.894 350.963)" fill="#f5f8fa"/><path d="M869.487,391.611l-23.432,117.4h-5.072l-.558-.867-1.616-2.514L859.1,395.959l3.08-1.29Z" transform="translate(-401.902 -163.304)" fill="#47465a"/><path d="M862.18,397.21,840.425,510.685l-1.616-2.514L859.1,398.5Z" transform="translate(-401.902 -165.845)" opacity="0.1"/><path d="M924.179,555.139l-6.024,1.942-1.464.474-1.933-4.348L881.6,401.968l3.447-.773,7.242-1.624Z" transform="translate(-421.325 -166.917)" fill="#47465a"/><path d="M918.155,558.431l-1.464.474-1.933-4.348L881.6,403.318l3.447-.773Z" transform="translate(-421.325 -168.267)" opacity="0.1"/><path d="M422.393,391.611,417.079,543.8l-6.09,1.353-.432.1-1.691-3.14,3.382-149.045,3.254-.464Z" transform="translate(-206.758 -163.304)" fill="#47465a"/><path d="M415.5,393.415l-4.513,152.552-.432.1-1.691-3.14,3.382-149.045Z" transform="translate(-206.758 -164.123)" opacity="0.1"/><path d="M458.655,599.873l-6.3,1.087-.706.121-1.932-4.106L419.039,398.167l.884-.268,4.672-1.423Z" transform="translate(-211.376 -165.512)" fill="#47465a"/><path d="M452.355,602.142l-.706.121-1.932-4.106L419.039,399.349l.884-.268Z" transform="translate(-211.376 -166.694)" opacity="0.1"/><path d="M770.246,406.123,793.7,436.1a7.606,7.606,0,0,0,6.875,2.867l96.29-11.277a7.606,7.606,0,0,0,6.722-7.555V397.91Z" transform="translate(-389.623 -190.136)" fill="#7a799c"/><path d="M880.388,377.9h6.522v9.413a2.424,2.424,0,0,1-2.424,2.423h-1.676a2.423,2.423,0,0,1-2.423-2.423V377.9Z" transform="translate(-420.773 -157.08)" fill="#47465a"/><path d="M453.539,441.067,477,471.039a7.606,7.606,0,0,0,6.875,2.867l96.29-11.277a7.606,7.606,0,0,0,6.721-7.555v-22.22Z" transform="translate(-245.876 -205.996)" fill="#7a799c"/><path d="M563.68,412.842H570.2v9.413a2.423,2.423,0,0,1-2.423,2.423H566.1a2.423,2.423,0,0,1-2.423-2.423v-9.413Z" transform="translate(-277.026 -172.94)" fill="#47465a"/><path d="M457.263,414.687,743.68,381.325a4.212,4.212,0,0,0,1.407-7.945l-51.235-25.767a59.3,59.3,0,0,0-32.659-6.017L406.734,367.542a4.87,4.87,0,0,0-2.981,8.244l29.632,30.4a28.766,28.766,0,0,0,23.878,8.5Z" transform="translate(-222.651 -164.437)" fill="#47465a"/><path d="M1077.032,404.91l-3.064-1.694s-3.307,2.435-6,12.692,5.036.111,5.036.111l3.382-7.005Z" transform="translate(-524.494 -192.545)" fill="#47465a"/><path d="M921.593,555s-3.14,14.735-4.59,18.842c-.71,2.01-4.14,3.848-7.943,5.254a53.188,53.188,0,0,1-10.416,2.718c-4.107.483-56.767-7.73-82.373-13.286-17.25-3.742-19.48-8.034-19.1-10.436a3.485,3.485,0,0,1,.981-1.884s25.364-17.151,34.3-25.364,26.572-1.691,45.9,1.691S921.593,555,921.593,555Z" transform="translate(-401.828 -248.667)" fill="#47465a"/><path d="M1040.269,403.217s11.837,7.73-28.021,23.673c0,0-21.664,12.215-18.844,62.532a13.8,13.8,0,0,0,2.006,6.391c4.112,6.764,12.925,23.886-1.762,26.012v3.865s26.572-13.286,29.471-24.639,12.561-74.4,17.393-80.2S1048.483,405.874,1040.269,403.217Z" transform="translate(-490.796 -192.545)" fill="#47465a"/><path d="M909.058,605.045a53.18,53.18,0,0,1-10.416,2.718c-4.107.483-56.767-7.73-82.373-13.286-17.25-3.742-19.48-8.034-19.1-10.436,11.339,3.877,48.158,16.182,61.372,17.2,15.7,1.208,45.7,4.565,47.972,2.283C907.389,602.644,908.283,603.572,909.058,605.045Z" transform="translate(-401.827 -274.618)" opacity="0.1"/><path d="M749.457,710.642,772.405,605.8s4.107-11.112,13.528-10.629l8.7,4.348s-14.494-3.382-17.634,7.73-23.19,103.389-23.19,103.389Z" transform="translate(-380.187 -279.664)" fill="#47465a"/><path d="M815.808,621.94l9.179-64.014h4.107l-9.421,64.014Z" transform="translate(-391.462 -238.791)" fill="#47465a"/><path d="M1004.092,726.877,995.4,626.87s0-8.455,4.348-12.561,18.385-15.821,18.385-15.821,3.6-.847,6.5,7.366,22.949,90.345,22.949,90.345l-3.865,1.691L1018.827,603.2l-17.151,16.185s-3.382,6.039-1.691,11.6,7.972,95.9,7.972,95.9Z" transform="translate(-491.815 -281.163)" fill="#47465a"/><path d="M927.717,579.158l21.74,6.28,4.831-4.59-12.561-1.691Z" transform="translate(-442.255 -248.428)" fill="#47465a"/><path d="M608.3,290.9l3.525,52.877,77.059-7.488-3.066-51.69a5.2,5.2,0,0,0-5.625-4.873l-67.141,5.648A5.2,5.2,0,0,0,608.3,290.9Z" transform="translate(-316.115 -136.486)" fill="#7a799c"/><path d="M683.776,354.14l-76.818,8.38-2.9.316-22.465-14.493V345.2l76.334-6.875Z" transform="translate(-285.157 -139.12)" fill="#7a799c"/><path d="M606.959,368.507l-2.9.316L581.595,354.33v-2.812Z" transform="translate(-285.157 -145.106)" opacity="0.1"/><path d="M583.364,251.157l2.657,47.1,67.638-6.28-2.416-45.9Z" transform="translate(-285.96 -97.252)" fill="#9493b6"/><path d="M657.233,363.706l8.213,5.556,24.881-2.416-8.455-5.314Z" transform="translate(-319.488 -149.652)" opacity="0.1"/><path d="M595.749,347.908l10.387,7.73,66.43-6.28-11.837-7.73Z" transform="translate(-291.581 -140.617)" fill="#9493b6"/><rect width="49.037" height="49.037" transform="translate(422.051 135.909)" fill="#ff6584"/><rect width="49.037" height="49.037" transform="translate(422.051 135.909)" opacity="0.1"/><path d="M876.209,300.36s6.917,18.735,0,22.194,24.788,0,24.788,0l8.935-7.206s-20.176-5.765-17.294-19.023S876.209,300.36,876.209,300.36Z" transform="translate(-437.27 -141.758)" fill="#fbbebe"/><path d="M876.209,300.36s6.917,18.735,0,22.194,24.788,0,24.788,0l8.935-7.206s-20.176-5.765-17.294-19.023S876.209,300.36,876.209,300.36Z" transform="translate(-437.27 -141.758)" opacity="0.1"/><path d="M773.056,648.972S799,685.577,794.673,695.666s-2.018,16.429-10.665,19.888-10.953,9.8-3.459,9.512,17.294-2.306,18.735-4.9,4.9-14.988,9.8-16.717,14.123-8.359,7.494-16.43-23.333-37.8-22.043-40.8S773.056,648.972,773.056,648.972Z" transform="translate(-390.899 -302.442)" fill="#fbbebe"/><path d="M812.87,519.512s-53.611,3.459-67.446,16.429,12.106,61.394,14.988,61.97,25.364-1.729,24.5-8.07-16.141-32.282-16.141-32.282,19.888-7.206,30.841-8.935,23.059-9.8,23.059-9.8Z" transform="translate(-376.525 -245.329)" fill="#9493b6"/><path d="M827.417,503.776s.865,31.994,8.935,33.147,0-24.5,0-24.5l-.288-9.8Z" transform="translate(-415.572 -237.663)" fill="#fbbebe"/><path d="M850,350.489s-14.988-4.323-17.87,7.206S828.383,409,828.383,409L823.2,440.706s9.512-2.882,11.529-1.441l12.106-15.276Z" transform="translate(-413.656 -168.252)" fill="#559aff"/><path d="M850,350.489s-14.988-4.323-17.87,7.206S828.383,409,828.383,409L823.2,440.706s9.512-2.882,11.529-1.441l12.106-15.276Z" transform="translate(-413.656 -168.252)" opacity="0.1"/><path d="M899.806,663.225s10.073,19.8,16.126,19.515,11.818-4.035,14.7,7.782-.576,8.647,2.882,15.565,4.035,19.023-2.594,21.906-12.682,3.171-12.97,0,5.765-3.171-1.153-14.412-21.617-31.706-27.67-33.723S899.806,663.225,899.806,663.225Z" transform="translate(-442.982 -310.557)" fill="#fbbebe"/><path d="M890.605,497.873s20.753,34.588,7.206,44.676-53.9,29.4-53.9,29.4,21.617,14.7,22.77,19.6S856.306,609.707,852.27,610s-15.853-13.259-28.535-16.718-20.464-28.247-6.629-37.47,26.806-24.5,26.806-24.5l-4.033-22.191Z" transform="translate(-407.567 -235.507)" fill="#9493b6"/><path d="M885.772,268.382c0,12.257-12.556,22.39-24.813,22.39a22.194,22.194,0,1,1,0-44.388C873.216,246.384,885.772,256.124,885.772,268.382Z" transform="translate(-420.723 -121.361)" fill="#fbbebe"/><path d="M866.9,337.019s19.888-8.647,19.888-9.8,11.529,2.594,14.124,4.9,4.035,2.018,5.765,6.629-8.647,47.558-8.647,47.558,5.765,33.147,8.935,36.317-25.653,7.782-25.653,7.782-19.023,3.459-22.194,4.9-8.935,3.459-7.782,0,6.053-6.053-2.306-10.376c0,0,2.882-14.123,0-20.464s-16.141-29.4-5.476-46.117,15.565-22.77,15.565-22.77S862.862,338.749,866.9,337.019Z" transform="translate(-421.041 -157.953)" fill="#559aff"/><path d="M860.948,489.428s-22.482,9.972-29.256,10.894-27.238,6.111-16,10.723,28.247-2.306,28.247-2.306l23.923-10.088Z" transform="translate(-408.751 -231.674)" fill="#fbbebe"/><path d="M918.239,343.285s8.3-4.016,10.608,10.108,10.376,58.8,0,65.429-34.3,17.294-34.3,17.294-14.123-9.512-7.494-12.97,22.482-13.259,24.788-16.718,4.636-42.066.6-48.407S918.239,343.285,918.239,343.285Z" transform="translate(-441.836 -165.103)" opacity="0.1"/><path d="M919.877,337.424s11.529-.576,13.835,13.547,10.376,58.8,0,65.429-34.3,17.294-34.3,17.294-14.123-9.512-7.494-12.97,22.482-13.259,24.788-16.717-1.729-39.488-5.764-45.829S919.877,337.424,919.877,337.424Z" transform="translate(-444.045 -162.681)" fill="#559aff"/><path d="M848.245,218.381c-3.538.482-7.334,1.776-9.114,4.872-.871,1.515-1.153,3.292-1.824,4.905-1.852,4.452-6.35,7.111-9.6,10.676-4.232,4.646-6.334,11.646-3.838,17.414.966,2.233,2.536,4.147,3.727,6.269,3.321,5.922,3.5,13.033,3.593,19.822l.186,13.348a19.184,19.184,0,0,1-.563,6.061,6.491,6.491,0,0,1-3.928,4.378,10.18,10.18,0,0,0,11.855-4.048,10.4,10.4,0,0,1-3.18,9.229c5.284-1.244,9.716-5.088,12.507-9.744a37.763,37.763,0,0,0,4.666-15.469,20.28,20.28,0,0,0-.487-8.533,26.711,26.711,0,0,0-2.8-5.368c-2.712-4.453-5.154-9.189-6.028-14.329s0-10.779,3.341-14.785a13.355,13.355,0,0,1,10.548-4.837,11.743,11.743,0,0,1,9.791,5.994c.771,1.451,1.869,3.418,3.431,2.909a8.486,8.486,0,0,0,.846-.415c1.742-.793,3.721.771,4.49,2.525,2.423,5.53-2.041,11.568-2.5,17.588-.429,5.6,2.693,10.882,6.425,15.079A49.542,49.542,0,0,0,904.016,296.8a6.8,6.8,0,0,1-3.514-2.183,46.131,46.131,0,0,0,11.336-.95,78.136,78.136,0,0,1-11.526-9.923c-3.386-3.785-6.068-8.364-6.8-13.39-.98-6.745,1.532-14.048-1.34-20.229-2.626-5.651-9.138-8.808-11.516-14.567-2.416-5.85-3.982-10.932-10.377-13.478C863.3,219.3,855.787,217.354,848.245,218.381Z" transform="translate(-413.476 -108.525)" fill="#ff6584"/><line x1="42.758" y2="33.856" transform="matrix(0.998, -0.07, 0.07, 0.998, 243.209, 48.631)" fill="none" stroke="#3f3d56" stroke-miterlimit="10" stroke-width="1"/></g></svg>